<?xml-stylesheet type="text/css" href="../css/app.css" ?>
<svg version="1.1" class="path" xmlns="http://www.w3.org/2000/svg" xmlns:xlink="http://www.w3.org/1999/xlink" x="0px" y="0px"
	 width="660.471px" height="158.259px" viewBox="0 0 660.471 158.259" enable-background="new 0 0 660.471 158.259"
	 xml:space="preserve">
<g>
	<path fill="none" stroke="#FFFFFF" stroke-width="4" stroke-linecap="round" stroke-linejoin="round" d="M2.503,136.334
		c0,0,141.5,55.5,274-17c0,0,18.5-20,29-12c0,0-20-6.5-28,21c0,0,0.5,9.5,16-2l21.5-21c0,0-10,13.5-2.5,16c0,0,7.5,1,14-6.5
		c0,0,54.5-45.5,63.5-65c0,0,13.5-20,0-11c0,0-27,18.5-50,71c0,0-6,12,3.5,14.5c0,0,14.5-4.5,20.5-22.5c0,0,0-12-7.5-6
		c0,0-3,12,12,11c0,0,13.5,5.5,42.5-26.5c0,0-14,6-14.5,22c0,0,5.5,11.5,20.5-2c0,0,18-22,5.5-27c0,0-16.5,16-7.5,24.5
		c0,0,6.5,9,36-12c0,0,9.5-8,11-10.5s-10,18,2,17.5c0,0,11.5-3,21-16c0,0-8.5,15,2,16.5c0,0,17-2,48.5-34c0,0,57.5-50,46.5-57.5
		c0,0-18,12.5-28,24l103.5-13c0,0-138.5,11.5-158,28c0,0,28-11.5,53.25-14.25c0,0-20,28.5-24.5,41.75c0,0-9.5,17.5,5.25,16.5
		c0,0,24,0.5,63.25-32.25"/>
</g>
</svg>
