<?xml-stylesheet type="text/css" href="../css/app.css" ?>
<svg version="1.1" class="path" xmlns="http://www.w3.org/2000/svg" xmlns:xlink="http://www.w3.org/1999/xlink" x="0px" y="0px"
	 width="760px" height="183.838px" viewBox="0.308 -0.322 760 183.838" enable-background="new 0.308 -0.322 760 183.838"
	 xml:space="preserve">
<g>
	<path fill="none" stroke="#FFFFFF" stroke-width="4" stroke-linecap="round" stroke-linejoin="round" d="M2.308,160.564
		c0,0,160,58,276-19c0,0,18-18,21-10.5c0,0-2,5.5-6,8.5c0,0,13.25-14.125-1.5-8.125c0,0-22.5,15-15,26.625c0,0,9.5,6.5,47-24
		c0,0,15-13,15-15s-15,9.5-15,20c0,0,5,14,21,0c0,0,19.5-25.5,5-27.5c0,0-15.5,13.5-7,24c0,0,4,8,26.5-6c0,0,18-12,19-17
		c0,0,1.5-1,1-2.5s7.5,6-5.5,24c0,0-4.5-4.5,27.5-27c0,0,7-2.5,4.5,6.5c0,0-5.5,16,3.5,16c0,0,16.5-2.5,45.5-31.5c0,0,56-55,48.5-62
		l-30,28c0,0,32-7.5,47-7.5c0,0-65.5,7.5-88.5,18c0,0,37.104-11.042,41.688-10.438c0,0-27.188,37.271-24.354,47.771
		c0,0-5.333,18.166,31.167,0.166c0,0,27.5-15,32.5-20c0,0,8.5-12,19.5-5.5c0,0-10-8-22.5,9.5c0,0-11,13.5-0.5,15c0,0,20-10,31.5-28
		c0,0-7.5,13.5-2,16c0,0,8,5.5,26.5-16c0,0,14-16.5,20.5-12.5c0,0,0,4.5-5.5,9.5c0,0,14.166-16.166-2.917-7.333
		c0,0-19.582,13.333-13.416,25.333c0,0,4.833,12,53.833-30.5c0,0,45-36,54-65.5c0,0-0.5-5.5-28.5,25c0,0,85.5-19,105-14.5
		c0,0-87.5,2.5-161,30c0,0,52.438-16.625,56.531-15.844c0,0-26.197,36.344-26.697,47.011c0,0-5.334,12.167,6.499,12.667
		c0,0,11.5,5.667,63.833-34.167"/>
</g>
</svg>
