<?xml-stylesheet type="text/css" href="../css/app.css" ?>
<!-- Generator: Adobe Illustrator 21.0.2, SVG Export Plug-In . SVG Version: 6.00 Build 0)  -->
<svg version="1.1" id="Capa_1" xmlns="http://www.w3.org/2000/svg" xmlns:xlink="http://www.w3.org/1999/xlink" x="0px" y="0px"
	 viewBox="0 0 507.7 512" style="enable-background:new 0 0 507.7 512;" xml:space="preserve">
<style type="text/css">
	.st0{fill:#FFFFFF;}
</style>
<g>
	<g>
		<path class="st0" d="M494.5,0H0v512h173.2v-0.1c7.2-0.1,12.8-4.1,13-11c0.7-17.8,0.2-35.6,0.2-52.8c-12.9,0.6-25.2,2.2-37.4,1.5
			c-26.8-1.5-47.4-13-58.1-39.3c-6.3-15.6-15.9-28.9-30.7-37.8c-2.8-1.7-5.2-4.1-7.3-6.6c-2.8-3.2-2.3-6.6,2.1-7.5
			c4.4-0.9,9.3-1.5,13.6-0.7c17.1,3.2,29,14,38.1,28.3c17.9,28.3,45.5,36.9,76.6,23.9c1.7-0.7,3.9-2.5,4.3-4.1
			c2.5-12.5,7.2-23.9,16.6-33.9c-10.5-1.9-20.2-3.4-29.7-5.6c-27.4-6.3-52-17.8-70.1-40.4c-14.7-18.5-21.4-40.1-24.5-63.2
			c-4.8-36.1-0.5-69.9,24.3-98.7c1.3-1.5,1.9-4.4,1.4-6.3c-6.2-20.3-5.3-40.4,0.9-60.4c3.2-10.5,4.1-11.1,14.9-9.6
			c0.7,0.1,1.3,0.3,1.9,0.4c21.5,3.6,40.1,14,58.3,25.2c2.5,1.5,6.2,2.4,8.9,1.8c43.6-10.6,87.2-10.5,130.8,0
			c2.5,0.6,5.9-0.3,8.3-1.5c9.9-5.2,19.4-11.2,29.5-16.1c11.7-5.7,24-10,37.3-9.8c2.3,0,5.9,2.3,6.7,4.3c8,21.1,9.7,42.7,3.3,64.7
			c-0.7,2.3,0.3,5.7,1.6,8c6.3,11.5,15,22.1,19,34.4c12.1,37.2,7.7,74.1-8.8,109.1c-15.1,32.1-43.1,48.3-76.3,56.7
			c-11.2,2.8-22.7,4.6-34.8,6.9c15.8,16.5,18.3,36.7,18,57.9c-0.3,21.8-0.2,43.6-0.2,65.4c0,10.6,4.6,16.4,12.7,16.7
			c0,0,170.1,0,170.1,0V13.2V0H494.5z"/>
	</g>
</g>
</svg>
