<?xml-stylesheet type="text/css" href="../css/app.css" ?>
<svg version="1.1" id="logoSVG" xmlns="http://www.w3.org/2000/svg" xmlns:xlink="http://www.w3.org/1999/xlink" x="0px" y="0px"
	 width="682.411px" height="372.097px" viewBox="0 0 682.411 372.097" enable-background="new 0 0 682.411 372.097"
	 xml:space="preserve">
<g id="Layer_4">
	<g>
		<g>
			<path fill="#FFFFFF" d="M273.476,239.889c0.085-0.137,0.183-0.272,0.259-0.416c0.719-1.365-1.688-1.414-2.356-0.862
				c-1.812,1.496-3.164,4.163-4.653,5.972c-4.475,5.437-9.383,10.522-14.508,15.346c-18.851,17.74-40.935,31.887-64.219,43.062
				c-57.581,27.637-122.784,36.037-186.076,34.023c-1.427-0.046-2.95,2.088-0.991,2.15c79.329,2.524,162.726-11.445,228.782-58.014
				c11.982-8.447,23.26-17.996,33.295-28.695c2.77-2.953,5.434-6.012,7.937-9.195c0.652-0.829,1.289-1.669,1.909-2.521
				c0.158-0.217,1.06-1.256,0.459-0.76c-0.786-0.288-1.571-0.575-2.356-0.862c-0.076,0.143-0.173,0.278-0.258,0.416
				C269.838,240.92,272.794,240.989,273.476,239.889L273.476,239.889z"/>
		</g>
	</g>
</g>
<g>
	<g>
		<path  id="layer1" fill="#FFFFFF" d="M264.547,247.143c6.77-8.703,12.708-16.729,19.375-27.001c6.709-10.335,13.66-20.947,20.307-32.333
			c0.23-0.516,0.491-1.044,0.787-1.585c0.291-0.54,0.742-1.139,1.347-1.798l-1.868,0.713c-9.336,4.707-18.472,9.19-27.404,13.455
			c-8.935,4.266-16.946,8.324-24.041,12.171c-3.452,2.174-6.565,4.112-9.341,5.813c-2.776,1.701-5.166,3.293-7.17,4.77
			c-1.229,0.898-2.167,1.613-2.821,2.147c-0.651,0.536-1.219,1.107-1.698,1.718c-1.104,0.851-1.583,1.461-1.441,1.835
			c-0.058,0.594-0.584,1.079-1.583,1.46c-0.859-0.384-1.176-0.835-0.944-1.352c-0.054-1.264,0.588-2.579,1.92-3.943
			c1.333-1.365,2.987-2.639,4.964-3.821c2.205-1.698,4.726-3.409,7.566-5.136c2.837-1.725,5.944-3.586,9.32-5.59
			c7.046-3.973,15.023-8.121,23.933-12.452c8.909-4.326,18.079-8.719,27.51-13.175c0.996-0.38,1.906-0.798,2.732-1.256
			c0.822-0.455,1.686-0.999,2.588-1.63c3.229-5.37,6.529-11.124,9.896-17.263c3.364-6.134,6.706-12.156,10.019-18.059
			c3.313-5.901,6.503-11.473,9.571-16.711c3.064-5.237,5.768-9.657,8.104-13.262c2.488-3.946,5.269-8.074,8.332-12.384
			c3.065-4.308,6.104-8.217,9.121-11.722c3.012-3.505,5.879-6.274,8.601-8.313c2.72-2.034,5.017-2.841,6.89-2.416
			c1.408,0.319,2.34,1.178,2.803,2.57c0.459,1.397,0.547,3.216,0.264,5.465c-0.283,2.25-0.848,4.786-1.697,7.605
			c-0.852,2.823-1.77,5.743-2.76,8.759c-0.988,3.02-2.064,5.999-3.225,8.937c-1.162,2.942-2.197,5.655-3.102,8.141
			c-1.332,4.362-3.209,9.54-5.633,15.529c-2.423,5.992-4.786,12.139-7.092,18.44c2.895-1.389,5.41-2.74,7.55-4.058
			c2.138-1.314,4.07-2.517,5.796-3.604l5.178-3.26c0.652-0.533,1.143-0.934,1.467-1.202c0.328-0.266,0.613-0.448,0.863-0.544
			c-0.143-0.374-0.037-0.662,0.312-0.868c0.35-0.204,0.695-0.229,1.041-0.076c0.705,0.731,0.943,1.353,0.713,1.868
			c-0.23,0.517-0.578,1.007-1.045,1.469c-0.467,0.465-1,1.024-1.605,1.684l-5.322,2.887c-2.002,1.48-4.399,2.964-7.184,4.454
			c-2.785,1.491-5.787,3.065-9.008,4.723c-1.63,4.335-3.051,8.55-4.269,12.653c-1.217,4.104-2.195,7.902-2.93,11.394
			c-0.737,3.493-1.114,6.527-1.13,9.101c-0.017,2.575,0.448,4.539,1.393,5.891c1.352,2.053,3.32,2.907,5.902,2.564
			c2.578-0.342,5.435-1.465,8.559-3.374c3.127-1.905,6.391-4.292,9.791-7.161c3.402-2.867,6.678-5.867,9.838-9
			c3.156-3.131,5.984-6.1,8.48-8.909c2.494-2.805,4.426-5.041,5.789-6.705c0.402-0.438,0.949-0.503,1.639-0.197
			c0.439,0.405,0.504,0.952,0.197,1.638c-1.393,1.96-3.459,4.497-6.195,7.608c-2.738,3.116-5.828,6.329-9.271,9.64
			c-3.445,3.315-7.043,6.508-10.795,9.579c-3.751,3.073-7.363,5.485-10.832,7.237c-3.472,1.753-6.617,2.669-9.441,2.747
			c-2.824,0.081-4.992-1.306-6.508-4.153c-0.868-1.521-1.293-3.573-1.276-6.149c0.015-2.575,0.331-5.584,0.942-9.029
			c0.613-3.445,1.507-7.175,2.686-11.193c1.178-4.015,2.582-8.19,4.211-12.524c-6.067,3.171-12.877,6.556-20.423,10.149
			c-7.548,3.596-15.29,7.333-23.228,11.219l-4.125,7.14c-4.25,7.188-8.586,14.338-13.007,21.448
			c-4.423,7.113-8.87,13.874-13.342,20.291c-4.475,6.417-2.58,3.823-6.899,9.419 M378.712,82.318
			c-1.08-0.584-2.773,0.024-5.082,1.832c-2.305,1.81-4.854,4.388-7.645,7.734c-2.788,3.349-5.715,7.179-8.781,11.486
			c-3.064,4.311-6.006,8.574-8.82,12.785c-2.337,3.605-4.929,7.842-7.78,12.71c-2.851,4.871-5.825,10.073-8.922,15.606
			c-3.099,5.538-6.252,11.2-9.464,16.991c-3.213,5.795-6.311,11.329-9.291,16.604l41.782-20.655l0.747-0.285
			c2.904-8.099,6.018-16.389,9.348-24.868c3.33-8.475,6.258-16.229,8.783-23.26c2.527-7.029,4.363-12.974,5.504-17.834
			C380.233,86.306,380.106,83.358,378.712,82.318z"/>
		<path fill="#FFFFFF" d="M401.423,172.122l0.408-2.296c0.137-0.765,0.252-1.488,0.352-2.167c0.096-0.679,0.125-1.44,0.092-2.283
			l-0.143-0.374l-0.23,0.516l-0.836,1.175c-0.762,1.006-1.52,2.008-2.277,3.01c-0.76,1.006-1.441,1.834-2.045,2.493
			c-0.605,0.659-1.324,0.649-2.154-0.034c-0.688-0.306-0.631-0.9,0.178-1.78c0.604-0.659,1.309-1.426,2.115-2.306
			c0.807-0.876,1.467-1.77,1.975-2.68l1.299-2.208l0.693-1.549l-0.143-0.374c0.01-0.717,0.254-1.201,0.729-1.456
			c0.473-0.251,0.977-0.052,1.514,0.6l0.658,0.605c1.041,1.603,1.455,3.442,1.25,5.517c0.836-1.175,2-2.797,3.494-4.866
			c1.492-2.068,3.117-4.079,4.869-6.032c1.75-1.952,3.537-3.631,5.355-5.041c1.818-1.406,3.527-2.059,5.139-1.961
			c0.889,0.088,1.502,0.571,1.834,1.44c0.332,0.873,0.52,1.835,0.566,2.888c0.045,1.054-0.016,2.113-0.18,3.173
			c-0.166,1.063-0.217,1.869-0.15,2.412l0.143,0.374c0.836-1.175,1.922-2.624,3.264-4.349c1.34-1.723,2.789-3.346,4.348-4.871
			c1.561-1.522,3.172-2.815,4.836-3.879c1.662-1.063,3.213-1.581,4.65-1.561c1.262-0.054,1.922,0.551,1.975,1.815
			c0.096,0.251,0.191,0.5,0.285,0.748c0.096,0.251,0.066,0.547-0.088,0.89c-0.195,1.36-0.654,2.963-1.375,4.807
			c-0.725,1.848-1.215,3.461-1.471,4.843c-0.26,1.383,0.039,2.163,0.891,2.336c0.85,0.177,2.816-0.754,5.895-2.785
			c8.131-5.244,14.512-10.96,19.143-17.152c0.105-0.469,0.371-0.71,0.791-0.73c0.422-0.017,0.705,0.16,0.848,0.534
			c0.686,0.31,0.877,0.809,0.57,1.495c-2.76,3.622-5.914,7.04-9.469,10.25c-3.557,3.213-7.184,5.953-10.885,8.221
			c-3.25,1.956-5.676,2.989-7.273,3.097c-1.6,0.112-2.641-0.276-3.119-1.164c-0.482-0.886-0.568-2.138-0.256-3.755
			c0.309-1.617,0.695-3.226,1.152-4.829c0.461-1.601,0.877-2.937,1.254-4.011c0.375-1.069,0.416-1.62,0.119-1.651
			c-1.016-0.041-2.369,0.62-4.061,1.979c-1.695,1.362-3.436,3.061-5.227,5.098c-1.791,2.041-3.521,4.234-5.193,6.584
			c-1.672,2.351-2.895,4.389-3.664,6.107c-0.23,0.517-0.42,1.054-0.564,1.607c-0.145,0.557-0.295,1.005-0.447,1.348l-0.375,0.143
			c-0.625,0.238-1.203,0.211-1.744-0.084c-0.539-0.292-0.695-0.698-0.463-1.214c0.936-2.782,1.625-5.364,2.072-7.749
			c0.447-2.381,0.701-4.335,0.764-5.857c0.061-1.521-0.072-2.612-0.395-3.275c-0.326-0.658-0.877-0.699-1.65-0.119
			c-1.277,0.775-2.771,2.094-4.484,3.959c-1.715,1.869-3.416,3.947-5.113,6.233c-1.695,2.289-3.318,4.584-4.865,6.887
			c-1.549,2.304-2.768,4.341-3.662,6.107c-0.23,0.517-0.42,1.054-0.564,1.607c-0.145,0.557-0.295,1.006-0.447,1.349l-0.375,0.143
			c-0.623,0.238-1.203,0.211-1.744-0.084c-0.541-0.292-0.695-0.698-0.463-1.214L401.423,172.122z"/>
		<path fill="#FFFFFF" d="M466.312,155.921c-1.826-0.3-2.898-1.426-3.215-3.376c-0.314-1.947-0.045-4.049,0.807-6.301
			c0.854-2.252,2.15-4.46,3.895-6.624c1.744-2.164,3.736-3.674,5.979-4.529c1.494-0.571,2.951-0.769,4.373-0.599
			c1.422,0.174,2.461,0.56,3.121,1.164c0.391,0.279,0.428,0.659,0.111,1.135c-0.318,0.48-0.709,0.666-1.178,0.557
			c-0.768-0.136-1.512-0.313-2.24-0.537c-0.727-0.221-1.838-0.048-3.332,0.522c-1.496,0.571-2.926,1.688-4.287,3.349
			c-1.365,1.665-2.451,3.397-3.26,5.205c-0.809,1.807-1.268,3.41-1.377,4.807c-0.107,1.399,0.307,2.205,1.244,2.416
			c1.217-0.177,2.605-1.027,4.164-2.553c1.559-1.521,3.141-3.266,4.744-5.235c1.604-1.967,3.107-4.003,4.518-6.113
			c1.406-2.106,2.605-3.918,3.598-5.44c0.863-1.47,1.656-1.917,2.379-1.337c0.721,0.582,0.865,1.242,0.432,1.976
			c-1.191,1.74-1.746,3.557-1.664,5.452c0.08,1.896,0.629,2.864,1.643,2.905c1.014,0.042,2.365-0.722,4.049-2.294
			c1.682-1.568,3.369-3.319,5.061-5.25c1.689-1.928,3.256-3.811,4.697-5.645c1.439-1.834,2.338-3.033,2.693-3.597
			c0.605-0.659,1.266-0.697,1.99-0.117c0.719,0.582,0.84,1.178,0.359,1.79c-0.682,0.832-1.73,2.195-3.146,4.091
			c-1.416,1.898-3.004,3.822-4.754,5.774c-1.754,1.954-3.578,3.72-5.471,5.299c-1.896,1.58-3.6,2.444-5.111,2.593
			c-1.516,0.15-2.664-0.337-3.449-1.466c-0.787-1.125-1.086-2.369-0.889-3.729c-0.99,1.522-2.193,3.229-3.609,5.124
			c-1.416,1.898-2.957,3.664-4.615,5.293c-1.662,1.634-3.219,2.978-4.672,4.03C468.444,155.716,467.251,156.135,466.312,155.921z"/>
		<path fill="#FFFFFF" d="M503.981,136.835c0.137-0.765,0.613-1.946,1.432-3.543c0.941-1.644,1.492-3.102,1.648-4.375
			c0.158-1.271,0.168-2.452,0.037-3.546c-0.883,1.337-1.785,2.538-2.705,3.602c-0.918,1.066-1.807,2.118-2.666,3.158
			c-0.586,0.652-1.242,0.688-1.963,0.106c-0.723-0.58-0.717-1.224,0.014-1.931c0.584-0.651,1.256-1.442,2.01-2.373
			c0.756-0.931,1.432-1.793,2.029-2.594c0.598-0.797,1.092-1.521,1.482-2.171c0.391-0.647,0.516-1.16,0.373-1.534l-0.143-0.374
			c0.012-0.717,0.254-1.201,0.729-1.456c0.473-0.251,0.979-0.052,1.514,0.6c0.898,1.229,1.459,2.333,1.693,3.314
			c0.23,0.982,0.352,2.044,0.357,3.182c2.93-3.543,5.502-6.522,7.721-8.94c2.217-2.415,4.41-3.396,6.584-2.941
			c0.764,0.136,1.291,0.578,1.576,1.325c0.285,0.748,0.359,1.505,0.223,2.27c0.072,1.686,0.096,3.248,0.074,4.681
			c-0.023,1.437,0.068,2.616,0.279,3.533c0.207,0.921,0.6,1.484,1.18,1.69c0.578,0.208,1.504-0.073,2.781-0.847
			c2.752-1.762,5.938-4.44,9.562-8.038c3.621-3.593,6.828-7.349,9.613-11.269c0.68-0.828,1.352-0.944,2.012-0.339
			c0.658,0.605,0.725,1.152,0.195,1.637c-3.016,4.436-6.275,8.426-9.771,11.972c-3.5,3.55-7.162,6.479-10.988,8.795
			c-2.35,1.326-4.057,1.622-5.119,0.884c-1.066-0.733-1.791-1.886-2.176-3.452c-0.383-1.566-0.521-3.333-0.416-5.299
			c0.105-1.967,0.092-3.494-0.039-4.588c-0.535-0.651-1.453-0.442-2.758,0.625c-1.305,1.069-2.721,2.503-4.246,4.296
			c-1.529,1.798-2.986,3.675-4.381,5.632c-1.393,1.959-2.447,3.502-3.156,4.629c-0.34,0.986-0.721,1.954-1.143,2.898
			c-0.424,0.948-0.775,1.617-1.053,2.007c-0.529,0.489-1.09,0.704-1.682,0.642C504.101,138.646,503.864,138.024,503.981,136.835z"/>
		<path fill="#FFFFFF" d="M549.329,125.523c-1.188-0.115-2.021-0.62-2.502-1.507c-0.482-0.887-0.736-1.93-0.768-3.133
			c-0.029-1.199,0.139-2.441,0.506-3.725c0.367-1.281,0.781-2.439,1.244-3.472c0.781-2.439,1.934-4.839,3.457-7.207
			c1.523-2.364,3.156-3.88,4.902-4.546c0.746-0.285,1.604-0.468,2.57-0.553c0.967-0.081,1.881,0.069,2.742,0.452
			c-0.367-3.57-0.102-7.738,0.793-12.504c0.893-4.762,2.135-9.271,3.727-13.518c1.59-4.246,3.479-7.712,5.662-10.402
			c2.186-2.688,4.512-3.789,6.98-3.306c1.645,0.944,2.426,2.712,2.348,5.311c-0.078,2.599-0.609,5.514-1.588,8.741
			c-0.98,3.231-2.25,6.638-3.803,10.229c-1.557,3.59-2.928,6.826-4.111,9.703c-0.848,1.896-1.768,3.779-2.764,5.657
			s-2.096,4.047-3.299,6.503l0.143,0.374c0.381,0.999,0.742,1.573,1.088,1.726c0.877,0.809,2.1,1.018,3.668,0.634
			c1.564-0.384,3.33-1.271,5.297-2.664c1.965-1.392,4.008-3.242,6.125-5.548s4.125-4.893,6.029-7.76
			c0.727-0.706,1.352-0.944,1.869-0.713c0.83,0.684,0.943,1.353,0.338,2.011c-1.779,2.82-3.834,5.568-6.166,8.241
			c-2.334,2.676-4.742,4.879-7.219,6.608c-2.48,1.732-4.854,2.708-7.123,2.932s-4.129-0.812-5.576-3.116
			c-0.836,1.176-1.82,2.622-2.949,4.336c-1.131,1.716-2.326,3.35-3.588,4.901c-1.264,1.553-2.547,2.865-3.852,3.932
			c-1.303,1.069-2.574,1.484-3.809,1.239L549.329,125.523z M561.759,105.366l-0.143-0.374l-0.373,0.143
			c-0.252,0.096-0.469-0.105-0.66-0.604c-0.658-0.605-1.799-0.598-3.416,0.019c-1.217,0.18-2.48,1.268-3.785,3.265
			c-1.309,1.998-2.352,4.215-3.133,6.654c-1.785,4.678-2.002,7.474-0.654,8.385l0.516,0.23c0.469,0.109,1.27-0.41,2.402-1.558
			c1.133-1.145,2.33-2.495,3.594-4.047c1.26-1.552,2.457-3.186,3.588-4.902c1.129-1.714,2.023-3.198,2.689-4.451L561.759,105.366z
			 M577.114,64.828c-1.811,0.122-3.627,1.812-5.449,5.076c-1.824,3.266-3.371,7.067-4.639,11.403
			c-1.27,4.339-2.201,8.728-2.791,13.161c-0.592,4.436-0.596,7.971-0.02,10.604c0.941-1.644,2.041-3.81,3.297-6.503
			c1.256-2.69,2.514-5.562,3.777-8.613c1.262-3.05,2.461-6.076,3.6-9.08c1.135-3.002,2.033-5.699,2.691-8.092
			c0.656-2.391,0.984-4.336,0.984-5.834C578.563,65.452,578.079,64.747,577.114,64.828z"/>
		<path fill="#FFFFFF" d="M587.767,109.57c-1.826-0.3-2.898-1.426-3.215-3.376c-0.316-1.947-0.047-4.049,0.807-6.301
			c0.852-2.252,2.15-4.46,3.893-6.624c1.744-2.164,3.736-3.674,5.979-4.529c1.494-0.571,2.766-0.697,3.812-0.385
			c1.049,0.316,1.902,0.773,2.561,1.378c0.391,0.279,0.43,0.659,0.113,1.135c-0.32,0.479-0.711,0.666-1.18,0.557
			c-0.768-0.135-1.324-0.384-1.68-0.751c-0.352-0.364-1.275-0.262-2.77,0.309c-1.496,0.571-2.926,1.688-4.289,3.349
			c-1.365,1.665-2.449,3.397-3.26,5.205c-0.807,1.807-1.266,3.41-1.375,4.807c-0.109,1.399,0.305,2.205,1.242,2.416
			c1.217-0.177,2.541-1.003,3.977-2.482c1.436-1.473,2.891-3.17,4.371-5.093c1.48-1.919,2.861-3.908,4.145-5.97
			c1.281-2.058,2.418-3.847,3.41-5.369c0.51-0.908,1.164-1.157,1.961-0.749c0.801,0.41,1.082,0.871,0.852,1.387
			c-0.434,0.738-0.535,1.596-0.301,2.577c0.23,0.982,0.705,1.946,1.42,2.883c0.715,0.942,1.676,1.682,2.881,2.219
			c1.203,0.541,2.604,0.649,4.193,0.327c1.59-0.32,3.24-1.13,4.959-2.428c1.717-1.297,3.332-2.77,4.844-4.417
			s2.754-3.439,3.727-5.382c0.971-1.939,1.48-3.776,1.535-5.51c-0.037-0.842,0.426-1.126,1.389-0.851
			c0.961,0.275,1.281,1.116,0.963,2.522c-0.32,1.407-0.916,3.026-1.787,4.856c-0.873,1.832-1.977,3.611-3.316,5.333
			c-1.342,1.726-2.938,3.336-4.793,4.827c-1.859,1.495-3.953,2.545-6.291,3.15c-2.336,0.607-4.562,0.386-6.676-0.664
			c-2.111-1.047-3.865-3.021-5.254-5.915c-0.848,1.896-2.02,3.875-3.512,5.942c-1.494,2.069-3.078,3.995-4.754,5.775
			c-1.674,1.782-3.289,3.255-4.844,4.417C589.948,109.31,588.704,109.784,587.767,109.57z"/>
		<path fill="#FFFFFF" d="M401.267,262.814c2.357-5.038,4.73-9.761,7.117-14.169c2.387-4.406,4.533-8.4,6.449-11.988
			c1.539-3.44,2.777-6.09,3.711-7.944c0.932-1.854,1.59-3.21,1.979-4.073l0.23-0.517l-0.143-0.374
			c-0.346-0.152-0.633-0.257-0.869-0.311c-0.232-0.052-0.615,0.165-1.141,0.649c-0.904,0.634-1.895,1.402-2.973,2.312
			c-1.08,0.913-2.277,2.26-3.594,4.047c-2.695,3.029-5.705,6.924-9.025,11.687c-3.32,4.765-6.768,9.754-10.344,14.972
			c-4.402,7.533-8.678,14.838-12.828,21.915c-4.148,7.078-7.461,12.801-9.932,17.169l-0.836,1.175l-0.461,1.033
			c-1.607,2.897-2.475,4.369-2.597,4.416c-0.482,0.611-1.104,0.849-1.868,0.713c-0.832-0.68-0.945-1.353-0.34-2.012
			c0.076-0.17,0.292-0.54,0.648-1.104c0.154-0.343,0.408-0.799,0.766-1.362c0.354-0.563,0.748-1.212,1.182-1.95l0.32-1.406
			l7.041-12.962c3.607-7.372,7.033-14.566,10.279-21.584c3.242-7.018,6.025-13.465,8.35-19.35c1.475-3.987,2.783-7.66,3.928-11.024
			c1.143-3.359,1.871-6.313,2.186-8.861c0.512-2.765,0.635-4.594,0.365-5.491c-0.271-0.894-0.578-1.419-0.922-1.575
			c-5.082-1.342-13.111,5.292-24.09,19.897c-3.574,5.217-7.365,11.089-11.369,17.61c-4.004,6.526-8.067,13.355-12.193,20.494
			l-2.223,4.273l-0.693,1.55c-1.562,4.878-3.333,9.871-5.309,14.977c-1.977,5.11-4.129,10.032-6.457,14.773
			c-3.744,8.14-7.684,15.957-11.813,23.454c-4.132,7.5-8.1,14.116-11.905,19.848c-1.502,2.43-3.085,4.818-4.757,7.168
			c-1.672,2.352-3.321,4.479-4.949,6.385s-3.089,3.5-4.385,4.777c-1.298,1.281-2.428,1.963-3.394,2.045
			c-0.346-0.152-0.563-0.354-0.659-0.605c-0.72-0.01-1.087-0.227-1.104-0.648c-0.02-0.42,0.236-0.873,0.765-1.363
			c1.026-0.676,2.895-3.352,5.606-8.025c2.712-4.674,6.314-11.221,10.807-19.645c4.262-7.905,8.931-16.607,14.011-26.112
			c5.077-9.5,10.335-19.283,15.771-29.352l5.886-10.382l0.958-4.219c2.435-8.207,3.662-15.452,3.69-21.744
			c0.024-6.288-1.585-10.882-4.833-13.783l-2.724-1.529l-1.55-0.693c-2.642-0.561-5.756-0.405-9.348,0.464
			c-3.594,0.873-7.466,2.314-11.621,4.328s-8.418,4.497-12.785,7.447c-4.369,2.952-8.586,6.204-12.654,9.753
			c-4.519,3.865-8.613,7.819-12.279,11.858c-3.668,4.042-6.695,7.979-9.084,11.815c-2.388,3.838-3.989,7.409-4.795,10.713
			c-0.809,3.306-0.637,6.097,0.517,8.366c0.646,1.325,1.96,1.964,3.944,1.92c1.981-0.04,4.367-0.703,7.163-1.984
			c2.793-1.28,5.923-3.08,9.391-5.403c3.466-2.32,7.032-5.038,10.697-8.149c3.617-3.233,6.938-6.502,9.963-9.797
			c3.023-3.295,5.549-6.398,7.577-9.313c2.025-2.913,3.616-5.476,4.284-7.843c0.773-2.739,1.041-3.911,0.882-5.144
			c-0.034-0.264-0.095-0.74-0.051-1.186c0.044-0.444-0.567-0.836-0.194-0.979c0.623-0.237,1.264-0.054,1.923,0.551
			c1.136,1.852,1.171,4.089,0.204,6.986c-0.961,2.883-2.631,5.821-4.897,9.041c-2.271,3.221-4.978,6.502-8.124,9.844
			c-3.15,3.342-6.395,6.437-9.731,9.279c-3.339,2.847-6.832,5.57-10.475,8.171c-3.645,2.606-7.145,4.654-10.498,6.147
			c-3.356,1.495-6.338,2.279-8.952,2.347c-2.615,0.071-4.52-1.092-5.72-3.49c-1.393-2.894-1.616-6.196-0.678-9.909
			c0.939-3.71,2.701-7.594,5.293-11.653c2.589-4.056,5.799-8.17,9.631-12.346c3.83-4.171,7.965-8.104,12.408-11.799
			c4.268-3.77,8.784-7.276,13.54-10.52c4.757-3.24,9.44-5.921,14.057-8.04c4.614-2.116,8.946-3.484,12.991-4.103
			c4.047-0.614,7.47-0.244,10.271,1.111l0.374-0.143c4.227,2.1,6.811,5.786,7.754,11.062c0.944,5.279,0.851,11.485-0.278,18.623
			l-1.189,4.735l5.565-8.975c2.845-4.511,5.582-8.836,8.212-12.98c2.627-4.141,5.197-7.978,7.705-11.504
			c2.305-3.304,4.662-6.381,7.074-9.229c2.408-2.846,4.744-5.235,7.004-7.169c2.26-1.932,4.467-3.343,6.623-4.24
			c2.156-0.893,4.109-1.103,5.861-0.631c1.625,0.524,2.584,1.727,2.877,3.611c0.293,1.889,0.191,4.246-0.299,7.071
			c-0.492,2.83-1.297,5.954-2.414,9.377c-1.123,3.426-2.303,6.873-3.547,10.346c-0.924,2.064-1.824,4.194-2.701,6.382
			c-0.877,2.191-1.73,4.443-2.559,6.756l-3.146,6.34l3.662-6.108c3.48-5.465,6.891-10.55,10.234-15.251s6.465-8.675,9.365-11.923
			c1.316-1.787,2.582-3.233,3.803-4.342c1.217-1.106,2.34-1.997,3.367-2.676c1.369-0.522,2.553-0.688,3.555-0.501
			c1,0.191,1.785,1.032,2.355,2.527l0.285,0.747l-0.373,0.142c0.033,0.844-0.477,2.396-1.543,4.656
			c-1.062,2.262-2.482,5.088-4.258,8.475c-1.775,3.392-3.842,7.32-6.205,11.788c-2.359,4.47-4.885,9.357-7.57,14.663
			c-1.078,2.411-2.549,5.756-4.412,10.032c-1.865,4.28-3.701,8.905-5.514,13.878c-1.814,4.975-3.389,9.823-4.727,14.541
			c-1.338,4.722-2.084,8.753-2.234,12.092c-0.152,3.343,0.512,5.551,1.992,6.625c1.482,1.076,4.148,0.31,8.004-2.306
			c1.4-0.818,3.352-2.242,5.863-4.271c2.506-2.026,5.268-4.328,8.281-6.906c3.012-2.574,6.131-5.337,9.361-8.282
			c3.229-2.945,6.252-5.774,9.07-8.492c2.816-2.714,5.369-5.187,7.658-7.418c2.287-2.228,3.949-4.039,4.988-5.436
			c0.854-0.755,1.605-0.934,2.256-0.54c0.648,0.394,0.557,1.179-0.277,2.354c-1.162,1.443-2.959,3.377-5.385,5.801
			c-2.43,2.427-5.176,5.047-8.242,7.855c-3.068,2.812-6.264,5.745-9.594,8.799c-3.328,3.057-6.531,5.885-9.607,8.483
			c-3.074,2.602-5.846,4.873-8.316,6.813c-2.471,1.942-4.283,3.276-5.432,3.999c-4.076,2.412-7.152,3.231-9.232,2.453
			c-2.082-0.774-3.426-2.333-4.029-4.67c-0.768-3.133-0.529-7.361,0.723-12.692c1.248-5.326,2.889-10.843,4.924-16.543
			c2.033-5.699,4.156-11.075,6.367-16.131C398.171,269.1,399.938,265.32,401.267,262.814z M309.686,350.425
			c3.712-5.982,7.622-12.648,11.741-20.001c4.115-7.35,7.982-15.067,11.604-23.159l7.627-17.038l-6.437,12.303l-22.19,40.578
			c-1.529,2.725-2.914,5.361-4.155,7.902c-1.243,2.545-2.511,4.918-3.81,7.127l-1.066,1.691l1.209-1.318L309.686,350.425z"/>
		<path fill="#FFFFFF" d="M433.903,283.03c0.033-2.153,0.66-4.246,1.883-6.284c1.221-2.034,2.631-3.572,4.234-4.612
			c1.273-0.771,2.594-1.238,3.959-1.403c1.363-0.163,2.322,0.29,2.875,1.364c0.551,1.074,0.5,2.344-0.152,3.805
			c-0.656,1.463-1.596,2.93-2.82,4.394c-1.225,1.468-2.465,2.797-3.721,3.989c-1.258,1.195-2.113,1.949-2.562,2.263
			c1.289,1.508,3.096,2.316,5.422,2.425c2.324,0.113,4.725-0.519,7.199-1.89c4.494-2.429,8.654-5.552,12.48-9.366
			c3.822-3.813,6.99-7.484,9.498-11.011c0.51-0.907,1.131-1.145,1.869-0.713c0.734,0.436,0.85,1.104,0.34,2.012
			c-1.271,1.912-2.867,3.984-4.799,6.219c-1.93,2.235-4.031,4.396-6.307,6.474c-2.275,2.083-4.68,4.002-7.223,5.755
			c-2.541,1.756-5.119,3.131-7.736,4.129c-1.746,0.666-3.471,1.004-5.178,1.013c-1.709,0.011-3.285-0.278-4.723-0.873
			c-1.439-0.592-2.576-1.512-3.41-2.766C434.2,286.7,433.821,285.062,433.903,283.03z M444.239,273.093
			c-2.432,0.359-4.363,1.846-5.791,4.457c-1.43,2.616-2.074,5.04-1.938,7.269c0.402-0.438,1.059-1.153,1.967-2.143
			c0.908-0.987,1.852-2.062,2.836-3.223c0.984-1.157,1.791-2.322,2.416-3.49C444.354,274.797,444.524,273.84,444.239,273.093z"/>
		<path fill="#FFFFFF" d="M486.575,275.773c-1.568-1.114-2.182-2.914-1.846-5.397c0.338-2.482,1.02-4.991,2.053-7.525l-0.143-0.373
			c-1.176-0.836-2-1.593-2.471-2.269c-0.473-0.677-1.109-1.504-1.91-2.481c-2.51,3.525-4.521,6.294-6.039,8.298
			c-1.518,2.007-2.695,3.598-3.531,4.772c-0.998,0.381-1.541,0.447-1.637,0.196c-0.393-0.277-0.586-0.596-0.578-0.956
			c0.004-0.355,0.084-0.708,0.238-1.055c0.434-0.734,0.941-1.463,1.521-2.187c0.58-0.72,1.27-1.625,2.066-2.715
			c0.797-1.087,1.701-2.361,2.717-3.819c1.014-1.457,2.256-3.249,3.727-5.383l-0.055-1.264c-0.387-2.134-0.178-4.392,0.629-6.769
			c0.805-2.375,1.893-4.576,3.262-6.597c1.369-2.021,2.875-3.773,4.523-5.259c1.645-1.483,3.053-2.376,4.221-2.682
			c0.918-0.206,1.479,0.329,1.682,1.606c0.203,1.28-0.246,2.913-1.34,4.899c-1.299,2.209-2.33,3.993-3.094,5.355
			c-0.766,1.362-1.959,3.282-3.584,5.756l-3.201,5.075c0.762,1.994,2.66,3.981,5.699,5.959c0.879,0.809,1.068,1.306,0.57,1.495
			c-0.738,1.427-1.479,3.134-2.217,5.127c-0.736,1.995-0.82,3.739-0.25,5.234c0.455,0.825,1.34,0.986,2.648,0.487
			c1.307-0.499,2.85-1.409,4.631-2.729c1.777-1.321,3.717-2.881,5.812-4.682c2.098-1.797,4.125-3.678,6.09-5.642
			c1.961-1.959,3.793-3.803,5.492-5.521c1.697-1.719,3.027-3.188,3.988-4.412c0.479-0.61,0.85-0.859,1.107-0.743
			c0.258,0.115,0.559,0.252,0.904,0.404c0.344,0.156,0.521,0.442,0.543,0.863c0.016,0.422-0.098,0.679-0.348,0.773
			c-1.238,1.617-3.27,3.962-6.092,7.035c-2.822,3.078-5.859,6.056-9.113,8.937c-3.252,2.885-6.436,5.206-9.545,6.961
			C490.597,276.31,488.222,276.718,486.575,275.773z M492.755,235.311c-2.303,1.451-4.449,3.769-6.443,6.955
			c-1.994,3.189-3.062,6.093-3.203,8.715c0.816-1.596,1.633-3.012,2.445-4.252c0.811-1.235,1.561-2.448,2.248-3.641
			c0.688-1.189,1.439-2.402,2.25-3.642C490.864,238.21,491.765,236.833,492.755,235.311z"/>
		<path fill="#FFFFFF" d="M514.032,263.583c-0.822-1.4-1.09-3.225-0.805-5.474c0.283-2.248,1.01-4.452,2.186-6.613
			c0.432-0.733,1.066-1.692,1.904-2.867c0.834-1.176,1.768-2.28,2.801-3.317c1.029-1.034,2.154-1.926,3.365-2.676
			c1.215-0.748,2.389-1.126,3.529-1.133c0.938,0.214,1.506,0.677,1.705,1.383c0.197,0.711,0.15,1.515-0.15,2.412
			c-0.299,0.9-0.734,1.816-1.307,2.747c-0.572,0.934-1.123,1.642-1.648,2.127c-0.482,0.612-1.016,0.708-1.604,0.291
			c-0.586-0.418-0.666-0.994-0.23-1.731c0.604-0.658,1.092-1.343,1.463-2.056c0.371-0.711,0.746-1.497,1.133-2.36
			c-0.891-0.088-2.135,0.675-3.732,2.281c-1.6,1.61-2.869,3.236-3.811,4.879c-0.992,1.522-1.805,3.224-2.439,5.105
			c-0.639,1.886-0.646,3.639-0.029,5.256c0.285,0.748,1.342,0.81,3.174,0.181c1.828-0.625,3.355-1.389,4.586-2.285
			c2.705-1.889,5.932-4.652,9.678-8.296c3.748-3.643,8.045-8.456,12.896-14.448c0.154-0.343,0.443-0.523,0.863-0.544
			c0.422-0.017,0.803,0.053,1.148,0.205c0.381,0.998,0.445,1.542,0.197,1.637c-4.928,6.162-9.346,11.132-13.258,14.906
			c-3.91,3.776-7.219,6.608-9.922,8.496c-1.803,1.261-3.9,2.312-6.291,3.149C517.044,265.681,515.241,265.262,514.032,263.583z"/>
		<path fill="#FFFFFF" d="M537.231,243.598c0.033-2.154,0.66-4.247,1.883-6.285c1.221-2.034,2.631-3.572,4.234-4.612
			c1.273-0.771,2.594-1.238,3.959-1.403c1.363-0.163,2.322,0.29,2.875,1.364c0.551,1.074,0.5,2.344-0.154,3.805
			c-0.654,1.463-1.594,2.93-2.818,4.394c-1.225,1.468-2.465,2.797-3.721,3.989c-1.258,1.195-2.113,1.95-2.562,2.263
			c1.289,1.508,3.096,2.317,5.422,2.426c2.324,0.113,4.725-0.52,7.197-1.891c4.496-2.429,8.656-5.552,12.48-9.366
			c3.824-3.813,6.992-7.484,9.5-11.01c0.51-0.908,1.131-1.145,1.869-0.714c0.734,0.436,0.848,1.104,0.338,2.012
			c-1.27,1.913-2.867,3.984-4.797,6.219c-1.93,2.235-4.031,4.396-6.307,6.475c-2.275,2.082-4.682,4.001-7.223,5.754
			c-2.541,1.756-5.119,3.131-7.736,4.129c-1.746,0.667-3.471,1.004-5.18,1.013c-1.709,0.011-3.283-0.277-4.721-0.873
			c-1.439-0.592-2.578-1.512-3.412-2.766C537.526,247.267,537.149,245.629,537.231,243.598z M547.567,233.659
			c-2.434,0.359-4.363,1.846-5.793,4.457c-1.43,2.617-2.072,5.04-1.936,7.27c0.402-0.438,1.059-1.154,1.967-2.143
			c0.906-0.988,1.852-2.062,2.836-3.224c0.984-1.157,1.791-2.322,2.414-3.49C547.683,235.364,547.853,234.406,547.567,233.659z"/>
		<path fill="#FFFFFF" d="M592.083,220.737c-1.229,0.897-2.76,1.374-4.592,1.432c-1.834,0.057-3.438-0.221-4.814-0.839
			c-0.277,0.394-0.725,1.1-1.334,2.115c-0.609,1.019-1.295,2.029-2.055,3.031c-0.76,1.006-1.504,1.858-2.232,2.564
			s-1.266,0.985-1.609,0.828c-0.373,0.143-0.625-0.046-0.752-0.569c-0.129-0.52-0.07-0.829,0.182-0.925
			c0.711-1.128,1.682-2.603,2.912-4.43c1.23-1.824,2.199-3.302,2.912-4.43c-0.465-1.964-0.158-3.221,0.914-3.774
			c1.074-0.55,1.852-0.562,2.342-0.036c0.219,0.204,0.348,0.545,0.391,1.027c0.043,0.485-0.168,1.241-0.629,2.274
			c0.611,0.481,1.678,0.751,3.199,0.812s3.059-0.488,4.613-1.653c1.352-0.944,2.148-1.104,2.385-0.483
			c1.549,3.69,4.242,6.162,8.072,7.409c3.83,1.252,8.066,1.417,12.713,0.5c4.646-0.916,9.375-2.828,14.188-5.735
			c4.812-2.906,8.979-6.671,12.494-11.297c0.682-0.829,1.352-0.944,2.012-0.34c0.658,0.605,0.645,1.325-0.035,2.153
			c-2.988,4.139-6.883,7.766-11.688,10.883c-4.805,3.118-9.725,5.283-14.756,6.489c-5.035,1.208-9.797,1.35-14.289,0.422
			C598.132,227.242,594.618,224.767,592.083,220.737z"/>
	</g>
	<path fill="#FFFFFF" d="M641.13,211.18"/>
	<path fill="#FFFFFF" d="M324.123,255.81"/>
	<path fill="#FFFFFF" d="M413.384,248.503"/>
	<radialGradient id="SVGID_1_" cx="569.3877" cy="106.5576" r="109.6545" gradientUnits="userSpaceOnUse">
		<stop  offset="0.0477" style="stop-color:#FFFFFF;stop-opacity:0"/>
		<stop  offset="0.9884" style="stop-color:#FFFFFF"/>
	</radialGradient>
	<path fill="url(#SVGID_1_)" d="M641.975,212.174c21.469-27.265,35.574-60.26,39.383-94.803
		c3.174-28.766-1.031-59.918-17.875-84.103C646.781,9.287,619.092-1.09,590.539,0.445c-17.725,0.953-36.516,5.783-52.551,13.376
		c-9.438,4.469-18.125,10.939-26.371,17.263c-22.346,17.134-47.768,40.341-54.148,68.985c-7.375,33.11,26.354,55.241,54.99,59.691
		c26.252,4.08,53.762-3.832,75.926-17.849c20.252-12.809,38.062-33.153,41.004-57.689c0.203-1.695-2.412-2.131-2.615-0.434
		c-4.297,35.857-39.201,60.798-71.512,70.159c-17.994,5.213-37.633,5.861-55.572,0.115c-15.898-5.091-32.551-16.275-38.557-32.489
		c-5.059-13.657-0.084-28.368,6.818-40.383c8.004-13.935,19.508-25.893,31.416-36.538c9.914-8.862,20.588-17.018,31.889-24.037
		C544,12.701,559.029,8.248,573.635,5.311c30.58-6.152,63.008-0.383,83.785,24.39c19.51,23.263,24.234,55.926,21.521,85.28
		c-3.211,34.74-18.361,69.074-39.881,96.402c-1.055,1.341,1.717,2.064,2.777,0.719L641.975,212.174z"/>
</g>
</svg>
