<?xml-stylesheet type="text/css" href="../css/app.css" ?>
<svg version="1.1" class="path" xmlns="http://www.w3.org/2000/svg" xmlns:xlink="http://www.w3.org/1999/xlink" x="0px" y="0px"
	 width="820.47px" height="256.66px" viewBox="0 0 820.47 256.66" enable-background="new 0 0 820.47 256.66" xml:space="preserve">
<g>
	<path fill="none" stroke="#3C363C" stroke-width="4" stroke-linecap="round" stroke-linejoin="round" d="M4.302,185.957
		c0,0,158.715,57.798,277.981-23.854c0,0,4.507-4.165,4.174-7.832c0,0,9,9.999-20.333,75.666c0,0-19.334,39.667-21.667,18.667
		c0,0,19.666-70.333,63-99.333c0,0,11.666,1.333,2,17.667c0,0-19,36.666-31.333,23.333c0,0,3-7,35-21c0,0,31.001-18.333,36.667-30
		c0,0-15.334,6.667-14.334,21.667c0,0,5.334,11,18.334,0.333c0,0,18.333-17.333,10.333-29.333c0,0-6.333-1-10,8.333
		c0,0-9.667,20,8.333,17.667c0,0,22-3.667,52-38c0,0,25.666-27,18-24.667c0,0-12,1.667-21.333,20.333c0,0-4.001,10,7.333,19.667
		c0,0-9.334,11.667-6,18.667c0,0,8,8.333,45-22c0,0,48-38.667,64-69.667c0,0,2.666-7.667-7.667,0.667c0,0-15.667,13-23.667,24
		c0,0,43.001-7.333,46.334-6.667c0,0-61.667,6.667-87.667,16c0,0,31.104-9.021,40.917-9.208c0,0-28.75,40.375-23.75,51.875
		c0,0,6.5,18,72-30c0,0,78-64.5,71-74.5c0,0-5.5-4-21.5,21l-42,79c0,0-37,66-27,66.5c0,0,15.5-3,37.5-77.5c0,0,7.5-15.5-1.5-16
		c0,0-5,13,7,12c0,0,25,2.5,54-31c0,0-18,12.5-13.5,24c0,0,14,16.5,29-22c0,0,2.5-15-8.5-4.5c0,0-9,15.5-3,19.5c0,0,4.5,9,27-7
		c0,0,38.5-24.5,84-90.5c0,0,4.5-10-5-3.5c0,0-41.5,31-67.5,93c0,0-4.5,20.5,32.5,1.5c0,0,31-15,36.5-27c0,0-14,20-4.5,21.5
		c0,0,22.5-3,50-34c0,0-15.5,8-14.5,20.5c0,0,5,17.5,25.5-6c0,0,13-24.5-1-21.5c0,0-18,20-1,27c0,0,26-8,36.5-21"/>
</g>
<g>
	<g>
		<path fill="none" stroke="#3C363C" stroke-width="4" stroke-linecap="round" stroke-linejoin="round" d="M728.958,59.938
			c0,0,1.401-1.713,2.987-4.009"/>
		<path fill="none" stroke="#3C363C" stroke-width="4" stroke-linecap="round" stroke-linejoin="round" d="M733.03,54.305
			c0.911-1.418,1.795-2.942,2.428-4.367"/>
	</g>
</g>
</svg>
