<svg version="1.1" class="path" xmlns="http://www.w3.org/2000/svg" xmlns:xlink="http://www.w3.org/1999/xlink" x="0px" y="0px"
	 width="691.836px" height="156.071px" viewBox="0 0 691.836 156.071" enable-background="new 0 0 691.836 156.071"
	 xml:space="preserve">
<g>
	<path fill="none" stroke="#3C363C" stroke-width="4" stroke-linecap="round" stroke-linejoin="round" d="M2.842,125.19
		c0,0,211.158,68.13,305.881-50.64l2.847-2.682c0,0-2.766,13.479-1.789,18.194c0,0-3.333,59.718-36.667,64.052
		c0,0-15.667-1.667-3-16c0,0,4-7.667,40.667-25.667c0,0,52.334-24,56.667-39c0,0-1.334-4.333-6.667-1.333
		c0,0-17.333,10.334-10,21.667c0,0,6.999,12,27.333,1c0,0,31.334-15,69.667-64c0,0,3-7-9,1.333c0,0-25.666,20.667-6.333,36.333
		c0,0-12,19-2.667,19.667c0,0,22.333,1.333,56-37c0,0-5.666,20-1.333,23c0,0,13.333,1,26.333-30c0,0-6.001-7.667-10.667,6
		c0,0-9.334,20.333,16,13.333c0,0,10.667-2.333,27.667-19.333c0,0-20.001,28,4.666,17.333c0,0,20.333-10.333,27-17.333
		c0,0,15.666-18,21-11.333c0,0-4,7.333-6.333,8c0,0,16.667-18.667-8.333-4.333c0,0-18.334,21.333-5.667,23.667
		c0,0,7.667,4,36.667-19c0,0,25.999-16.333,14.666-20.333c0,0-10.333-0.667-16.333,15c0,0-0.666,14.667,18.667,13
		c0,0,28.999-5.667,60.666-46.333c0,0,1.333,33-7,38.667c0,0-6,9-18.333-1"/>
</g>
<g>
	<g>
		<path fill="none" stroke="#3C363C" stroke-width="4" stroke-linecap="round" stroke-linejoin="round" d="M545.447,30.782
			c0,0,1.933-0.138,3.844-2.991"/>
		
			<path fill="none" stroke="#3C363C" stroke-width="4" stroke-linecap="round" stroke-linejoin="round" stroke-dasharray="3.2179,0" d="
			M549.291,27.791c0.502-0.749,1.003-1.686,1.466-2.856"/>
		<path fill="none" stroke="#3C363C" stroke-width="4" stroke-linecap="round" stroke-linejoin="round" d="M550.76,24.927
			c0.513-1.296,0.979-2.879,1.354-4.812"/>
	</g>
</g>
</svg>
