<?xml version="1.0" encoding="utf-8"?>
<!-- Generator: Adobe Illustrator 21.0.2, SVG Export Plug-In . SVG Version: 6.00 Build 0)  -->
<svg version="1.1" id="Layer_1" xmlns="http://www.w3.org/2000/svg" xmlns:xlink="http://www.w3.org/1999/xlink" x="0px" y="0px"
	 viewBox="0 0 80 80" style="enable-background:new 0 0 80 80;" xml:space="preserve">
<style type="text/css">
	.st0{fill:#486B37;}
	.st1{enable-background:new    ;}
	.st2{fill:#F2F2F2;}
</style>
<circle class="st0" cx="40" cy="40" r="40"/>
<g class="st1">
	<path class="st2" d="M21.8,41.3c0-1.3,0.2-2.5,0.7-3.6c0.5-1.1,1.1-2,1.9-2.9c0.8-0.8,1.7-1.5,2.8-1.9s2.2-0.7,3.4-0.7
		c0.9,0,1.8,0.1,2.6,0.4c0.8,0.3,1.5,0.6,2,1c0.6,0.4,1.1,0.8,1.5,1.3c0.4,0.5,0.7,0.9,0.9,1.3c0-0.6,0-1.2,0.1-1.8s0.1-1.2,0.1-1.8
		H40v16.9c0,1.2-0.2,2.4-0.6,3.4c-0.4,1-0.9,2-1.7,2.7c-0.7,0.8-1.7,1.4-2.8,1.8c-1.1,0.4-2.5,0.6-4,0.6c-1.6,0-3.1-0.3-4.3-0.9
		c-1.2-0.6-2.5-1.5-3.7-2.7l1.6-1.6c1.1,1.1,2.2,1.9,3.2,2.3c1,0.4,2.1,0.6,3.2,0.6c1.2,0,2.2-0.2,3.1-0.5c0.8-0.3,1.5-0.7,2.1-1.2
		c0.5-0.5,0.9-1.2,1.2-1.9c0.3-0.8,0.4-1.6,0.4-2.5c0-0.2,0-0.4,0-0.6c0-0.2,0-0.5,0-1c0-0.1,0-0.2,0-0.4c0-0.2,0-0.4,0-0.6
		c0-0.2,0-0.4,0-0.6c0-0.2,0-0.3,0-0.4c-0.5,1.1-1.4,2-2.6,2.9c-1.2,0.8-2.7,1.2-4.4,1.2c-1.3,0-2.4-0.2-3.5-0.7s-2-1.1-2.8-1.9
		c-0.8-0.8-1.4-1.7-1.9-2.8C22.1,43.8,21.8,42.6,21.8,41.3z M24.2,41.3c0,0.9,0.2,1.8,0.5,2.6c0.3,0.8,0.8,1.5,1.4,2.1
		c0.6,0.6,1.3,1.1,2.1,1.4s1.7,0.5,2.6,0.5c0.9,0,1.8-0.2,2.6-0.5c0.8-0.3,1.5-0.8,2.1-1.4c0.6-0.6,1.1-1.3,1.4-2.1
		c0.3-0.8,0.5-1.7,0.5-2.6c0-0.9-0.2-1.8-0.5-2.6c-0.3-0.8-0.8-1.5-1.4-2.1c-0.6-0.6-1.3-1.1-2.1-1.4c-0.8-0.3-1.7-0.5-2.6-0.5
		c-0.9,0-1.8,0.2-2.6,0.5c-0.8,0.3-1.5,0.8-2.1,1.4c-0.6,0.6-1.1,1.3-1.4,2.1C24.4,39.4,24.2,40.3,24.2,41.3z"/>
	<path class="st2" d="M44.2,35.1v-2.3h3v-5.1c0-3.5,0.8-6.1,2.5-7.9s3.9-2.7,6.7-2.8v2.3c-2.1,0.1-3.8,0.8-5,2.3s-1.8,3.5-1.8,6.1
		v5.1h5.6v2.3h-5.6v14.9h-2.4V35.1H44.2z"/>
</g>
</svg>
