<?xml version="1.0" encoding="utf-8"?>
<!-- Generator: Adobe Illustrator 21.0.2, SVG Export Plug-In . SVG Version: 6.00 Build 0)  -->
<svg version="1.1" id="Layer_1" xmlns="http://www.w3.org/2000/svg" xmlns:xlink="http://www.w3.org/1999/xlink" x="0px" y="0px"
	 viewBox="0 0 80 80" style="enable-background:new 0 0 80 80;" xml:space="preserve">
<style type="text/css">
	.st0{fill:#004761;}
	.st1{enable-background:new    ;}
	.st2{fill:#F2F2F2;}
</style>
<circle class="st0" cx="40" cy="40" r="40"/>
<g class="st1">
	<path class="st2" d="M9.8,32.7h2l0.2,4.4c0.6-1.4,1.6-2.6,2.8-3.5s2.7-1.3,4.4-1.3s3,0.5,4,1.4s1.5,2.2,1.6,3.7v12.4h-2.4V38.3
		c-0.1-1-0.4-1.8-1-2.5s-1.6-1.1-2.8-1.1c-0.9,0-1.8,0.2-2.5,0.5c-0.8,0.3-1.5,0.7-2,1.3c-0.6,0.5-1,1.2-1.4,1.9
		c-0.4,0.7-0.6,1.5-0.6,2.4v9.1H9.8V32.7z"/>
	<path class="st2" d="M44.8,47.9c-0.8,0.7-1.8,1.3-2.9,1.8c-1.1,0.4-2.3,0.6-3.5,0.6c-1.3,0-2.4-0.2-3.6-0.7
		c-1.1-0.5-2.1-1.1-2.9-1.9s-1.5-1.8-1.9-2.8c-0.5-1.1-0.7-2.3-0.7-3.5s0.2-2.4,0.7-3.5s1.1-2.1,1.9-2.9c0.8-0.8,1.8-1.5,2.9-1.9
		c1.1-0.5,2.3-0.7,3.5-0.7c1.9,0,3.5,0.6,4.9,1.7c1.4,1.1,2.4,2.6,3.1,4.4c-1,0.4-2.1,0.8-3.3,1.3s-2.4,1-3.7,1.5
		c-1.2,0.5-2.5,1-3.7,1.5s-2.4,1-3.4,1.4c0.5,1.2,1.3,2.1,2.4,2.8s2.3,1.1,3.7,1.1c0.9,0,1.8-0.2,2.6-0.5s1.5-0.7,2.1-1.3L44.8,47.9
		z M43.3,37.8c-0.5-1-1.2-1.7-2.1-2.3c-0.9-0.6-1.9-0.8-3-0.8c-0.9,0-1.8,0.2-2.6,0.5c-0.8,0.4-1.5,0.8-2.1,1.4s-1.1,1.3-1.4,2.1
		c-0.3,0.8-0.5,1.6-0.5,2.5c0,0.5,0,0.9,0.1,1.2c0.9-0.4,1.8-0.8,2.8-1.2s2-0.8,3-1.2s2-0.8,3-1.2C41.6,38.4,42.5,38.1,43.3,37.8z"
		/>
	<path class="st2" d="M59.7,36.4L58,32.7h2.1c1.4,3.2,2.6,5.9,3.6,8c0.9,2.2,1.7,4.1,2.4,5.7c0.3-1,0.7-2,1.1-3s0.8-2,1.3-3.1
		s1-2.2,1.5-3.4c0.6-1.2,1.2-2.6,1.9-4.2h2.4L66.1,51c-1-2.1-1.9-4.1-2.7-6.1s-1.7-4-2.7-6.1L55.5,51c-1.3-3.1-2.7-6.1-4-9.1
		c-1.3-3-2.6-6.1-3.9-9.1H50c0.7,1.6,1.3,3,1.8,4.2s1,2.4,1.4,3.5s0.8,2.1,1.2,3s0.7,2,1.1,3c0.2-0.6,0.5-1.2,0.7-1.9
		c0.3-0.6,0.5-1.3,0.9-2.1c0.3-0.8,0.7-1.7,1.1-2.6C58.7,38.8,59.1,37.7,59.7,36.4z"/>
</g>
</svg>
