<?xml version="1.0" encoding="utf-8"?>
<!-- Generator: Adobe Illustrator 19.2.1, SVG Export Plug-In . SVG Version: 6.00 Build 0)  -->
<svg version="1.1" id="Layer_1" xmlns="http://www.w3.org/2000/svg" xmlns:xlink="http://www.w3.org/1999/xlink" x="0px" y="0px"
	 viewBox="0 0 357.7 146.1" style="enable-background:new 0 0 357.7 146.1;" xml:space="preserve">
<style type="text/css">
	.st0{fill:#F5F6F7;}
	.st1{fill:none;}
	.st2{enable-background:new    ;}
</style>
<g id="Layer_4">
	<path class="st0" d="M134.9,128.7H5.4c-0.7,0-1.2-0.5-1.2-1.2V117c0-0.7,0.5-1.2,1.2-1.2h129.5c0.7,0,1.2,0.5,1.2,1.2v10.5
		C136.1,128.2,135.6,128.7,134.9,128.7z"/>
	<path class="st0" d="M39.6,26.2"/>
	<line class="st1" x1="116.2" y1="22.7" x2="109.1" y2="18.3"/>
	<path class="st0" d="M113.2,110.2l0.9-48.5c0-0.1,0.8-2.1,0.7-2.2c-0.1-1.8-1.1-18.8-1.9-24.7c-0.2-1.1,0.1-2.2,0.7-3.1l3.8-5.4
		c0.1-0.1,0.2-0.2,0.2-0.3V9.2c0-0.8,0.4-1.6,1.2-2l2.9-1.7c0.3-0.2,0.7,0,0.7,0.4l-1.2,49.2c0,0.2,0.1,0.3,0.3,0.4
		c0.9,0.4,3.5,1.6,4.3,2.8c0.9,1.5,1.9,24.1,2.3,24.3c0.4,0.3,7,6.8,4,26.3c0,0.1,0,0.1,0,0.2l-0.1,2c0,0.2-0.2,0.4-0.4,0.4h-18.8
		L113.2,110.2z"/>
	<path class="st0" d="M27.1,110.2l-0.9-48.5c0-0.1-0.8-2.1-0.7-2.2c0.1-1.8,1.9-18.2,2.8-24.6c0.2-1.3-0.2-2.6-1.1-3.6l-4.3-4.9
		c-0.1-0.1-0.2-0.2-0.2-0.3V9.2c0-0.8-0.4-1.6-1.2-2l-2.9-1.7c-0.3-0.2-0.7,0-0.7,0.4l1.2,49.2c0,0.2-0.1,0.3-0.3,0.4
		c-0.9,0.4-3.5,1.6-4.3,2.8c-0.9,1.5-1.9,24.1-2.3,24.3c-0.4,0.3-7,6.8-4,26.3c0,0.1,0,0.1,0,0.2l0.1,2c0,0.2,0.2,0.4,0.4,0.4h18.7
		L27.1,110.2z"/>
	<path class="st0" d="M14.7,26l1.5,25.4c0,0.3-0.2,0.7-0.5,0.9L14.6,53c-0.7,0.5-1.7,0.1-1.8-0.7l-3.3-26"/>
	<path class="st0" d="M35.3,27.2c8.9-2.3,42.1-9.5,71.5,0.9c1.3,0.5,2.7-0.2,3-1.4c0.8-2.8,0.7-7.5-7-9.5
		c-11.3-2.9-29.2-2.9-29.2-2.9S46.7,15,40.3,16.8c-6.9,2-8,5.9-7.9,8.4C32.5,26.6,33.9,27.5,35.3,27.2z"/>
	<path class="st0" d="M42.4,13.6l6.5-0.6C48.9,12.9,45,7.1,42.4,13.6z"/>
	<path class="st0" d="M58.4,12.3l6.5-0.3C64.9,12,62.3,5,58.4,12.3z"/>
	<path class="st0" d="M99.8,14.4l-6.4-1.1C93.4,13.3,97.7,7.7,99.8,14.4z"/>
	<path class="st0" d="M84.5,12.3L78,12C78,12,81.6,5.9,84.5,12.3z"/>
	<path class="st0" d="M131.6,136.7H8.7c-0.7,0-1.3-0.6-1.3-1.3v-1.8c0-0.7,0.6-1.3,0.8-1.3h123c1.2,0,1.8,0.6,1.8,1.3v1.8
		C133,136.1,132.4,136.7,131.6,136.7z"/>
	<path class="st0" d="M32.3,63.5h3.1c1.6,0,2.4,0.5,2.4,1l2.4,46.3c0,0.6-1.3,1-2.9,1h-3.1c-1.6,0-2.9-0.5-2.9-1
		c0-6.3-1.9-40-1.9-46.3C29.4,64,30.7,63.5,32.3,63.5z"/>
	<path class="st0" d="M104,63.5h3.4c1.7,0,3.2,0.5,3.2,1l-1.2,46.3c0,0.6-1.4,1-3.2,1h-3.4c-1.7,0-3.2-0.5-3.2-1
		c0-6.3,1.8-40,1.8-46.3C101.5,64,102.2,63.5,104,63.5z"/>
	<path class="st0" d="M107.3,68.7v2.2c0,1.1-0.7,2-1.6,2H34.9c-0.9,0-1.6-0.9-1.6-2v-2.2c0-1.1,0.7-2,1.5-2c9.6,0,61.1,0,70.8,0
		C106.6,66.6,107.3,67.5,107.3,68.7z"/>
	<path class="st0" d="M106.6,80.7v2.2c0,1.1-0.7,2-1.6,2H34.3c-0.9,0-1.6-0.9-1.6-2v-2.2c0-1.1,0.7-2,1.5-2c9.6,0,61.1,0,70.8,0
		C105.9,78.7,106.6,79.6,106.6,80.7z"/>
	<path class="st0" d="M106.3,92v2.2c0,1.1-0.7,2-1.6,2H34c-0.9,0-1.6-0.9-1.6-2V92c0-1.1,0.7-2,1.5-2c9.6,0,61.1,0,70.8,0
		C105.6,90,106.3,90.9,106.3,92z"/>
	<path class="st0" d="M106.6,103.5v2.2c0,1.1-0.7,2-1.6,2H34.3c-0.9,0-1.6-0.9-1.6-2v-2.2c0-1.1,0.7-2,1.5-2c9.6,0,61.1,0,70.8,0
		C105.9,101.5,106.6,102.4,106.6,103.5z"/>
	<path class="st0" d="M106.9,33.2c-0.3-1.1-1.2-1.9-2.3-2.2c-12-3.2-23.8-4.1-34.4-3.9c-10.6-0.2-22.4,0.7-34.4,3.9
		c-1.1,0.3-2,1.1-2.3,2.2c-1.3,4.5-4.6,16.9-2.8,24.8c0.4,1.7,2.2,2.7,4,2.4c4.5-0.9,10.4-1.5,36.3-1.5h0.1c0.1,0,0.1,0,0.2,0h0.1
		c25.8,0,29.8,0.6,34.3,1.5c1.8,0.3,3.6-0.7,4-2.4C111.5,50.1,108.2,37.7,106.9,33.2z"/>
	<path class="st0" d="M125.3,26l-1.5,25.4c0,0.3,0.2,0.7,0.5,0.9l1.1,0.7c0.7,0.5,1.7,0.1,1.8-0.7l3.3-26"/>
	<g class="st2">
		<path class="st0" d="M159.4,29.6h-11.1V18.5h33.4v11.1h-11v51.5h-11.3V29.6z"/>
		<path class="st0" d="M220.6,49.8l3,31.3h-11.1l-2.8-26.5l-8.5,3.6v22.8h-11.1V18.5h33.5v25.6C223.6,46.5,222.5,48.3,220.6,49.8z
			 M212.5,29.6h-11.3V46l11.3-4.9V29.6z"/>
		<path class="st0" d="M254.5,18.5h11.2v57c0,2.6-2.6,5.6-5.6,5.6c-6.2,0-22.4,0-22.4,0c-2.8,0-5.6-3-5.6-5.6v-57h11.2v51.4h11.1
			V18.5z"/>
		<path class="st0" d="M274,18.5h33.6v16.4h-11.2v-5.1h-11.1v40.2h11.1v-6.3h11.2v11.7c0,2.7-2.8,5.7-5.6,5.7c-6.2,0-22.3,0-22.3,0
			c-2.8,0-5.7-3-5.7-5.7V18.5z"/>
		<path class="st0" d="M349.2,18.5l-12.5,27l12.5,35.6h-12.3l-6.9-21.7l-3.2,7v14.7h-11.3V18.5h11.3v20.3l9.2-20.3H349.2z"/>
	</g>
	<g class="st2">
		<path class="st0" d="M166.2,127.7h15v7.6h-22.3V93.4h7.4V127.7z"/>
		<path class="st0" d="M209.1,135.3h-7.6l-1.1-8.9l-5.4,2.3l-0.8,6.6h-7.6l5.1-41.9h12.2L209.1,135.3z M199.5,118.5l-1.6-12.8
			L196,120L199.5,118.5z"/>
		<path class="st0" d="M237,97.2v34.3c0,1.8-1.8,3.8-3.8,3.8c-2.3,0-18.7,0-18.7,0V93.4h18.7C235.2,93.4,237,95.4,237,97.2z
			 M229.5,101h-7.4v26.9h7.4V101z"/>
		<path class="st0" d="M265,97.2v34.3c0,1.8-1.8,3.8-3.8,3.8c-2.3,0-18.7,0-18.7,0V93.4h18.7C263.2,93.4,265,95.4,265,97.2z
			 M257.4,101h-7.4v26.9h7.4V101z"/>
		<path class="st0" d="M270.5,93.4H293v7.4h-15v9.7h12.4v7.6H278v9.7h15v7.5h-22.5V93.4z"/>
		<path class="st0" d="M319.2,114.3l2,20.9h-7.5l-1.9-17.7l-5.7,2.4v15.3h-7.4V93.4h22.4v17.1C321.2,112.1,320.4,113.3,319.2,114.3z
			 M313.7,100.8h-7.6v11l7.6-3.3V100.8z"/>
		<path class="st0" d="M341.8,104.3v-3.4h-7.5v7.6L347,114c1.3,0.6,2.2,2.2,2.2,3.5v13.9c0,1.7-1.7,3.8-3.8,3.8c0,0,0,0-15,0
			c-1.9,0-3.6-2.1-3.6-3.8v-7.8h7.4v4.1h7.5v-7.8c-12.9-5.6-12.9-5.6-12.9-5.6c-1.2-0.7-2-2-2-3.5V93.4h22.3v10.9H341.8z"/>
	</g>
</g>
</svg>
