<?xml version="1.0" encoding="utf-8"?>
<!-- Generator: Adobe Illustrator 19.1.0, SVG Export Plug-In . SVG Version: 6.00 Build 0)  -->
<svg version="1.1" id="Layer_1" xmlns="http://www.w3.org/2000/svg" xmlns:xlink="http://www.w3.org/1999/xlink" x="0px" y="0px" width="55px" height="87px" viewBox="0 0 612 792" style="enable-background:new 0 0 612 792;" xml:space="preserve">
<style type="text/css">
	.st0{fill:#9C1919;}
	.st1{fill:#F5F6F7;}
	.st2{fill:none;}
</style>
<path class="st0" d="M530,265.9c0,119.2-215.9,465.9-215.9,465.9S98.3,385.1,98.3,265.9S194.9,50,314.2,50S530,146.7,530,265.9z"/>
<path class="st1" d="M438.2,363.1H189.6c-1.3,0-2.3-1-2.3-2.3v-20.2c0-1.3,1-2.3,2.3-2.3h248.6c1.3,0,2.3,1,2.3,2.3v20.2
	C440.5,362.1,439.5,363.1,438.2,363.1z"/>
<path class="st1" d="M255.2,166.3"/>
<line class="st2" x1="402.3" y1="159.6" x2="388.6" y2="151.2"/>
<path class="st1" d="M396.5,327.6l1.7-93.1c0-0.2,1.5-4,1.3-4.2c-0.2-3.5-2.1-36.1-3.6-47.4c-0.4-2.1,0.2-4.2,1.3-6l7.3-10.4
	c0.2-0.2,0.4-0.4,0.4-0.6v-32.3c0-1.5,0.8-3.1,2.3-3.8l5.6-3.3c0.6-0.4,1.3,0,1.3,0.8l-2.3,94.4c0,0.4,0.2,0.6,0.6,0.8
	c1.7,0.8,6.7,3.1,8.3,5.4c1.7,2.9,3.6,46.3,4.4,46.6c0.8,0.6,13.4,13.1,7.7,50.5c0,0.2,0,0.2,0,0.4l-0.2,3.8c0,0.4-0.4,0.8-0.8,0.8
	h-36.1L396.5,327.6z"/>
<path class="st1" d="M231.2,327.6l-1.7-93.1c0-0.2-1.5-4-1.3-4.2c0.2-3.5,3.6-34.9,5.4-47.2c0.4-2.5-0.4-5-2.1-6.9l-8.3-9.4
	c-0.2-0.2-0.4-0.4-0.4-0.6v-32.4c0-1.5-0.8-3.1-2.3-3.8l-5.6-3.3c-0.6-0.4-1.3,0-1.3,0.8l2.3,94.4c0,0.4-0.2,0.6-0.6,0.8
	c-1.7,0.8-6.7,3.1-8.3,5.4c-1.7,2.9-3.6,46.3-4.4,46.6c-0.8,0.6-13.4,13.1-7.7,50.5c0,0.2,0,0.2,0,0.4l0.2,3.8
	c0,0.4,0.4,0.8,0.8,0.8h35.9L231.2,327.6z"/>
<path class="st1" d="M207.4,166l2.9,48.8c0,0.6-0.4,1.3-1,1.7l-2.1,1.3c-1.3,1-3.3,0.2-3.5-1.3l-6.3-49.9"/>
<path class="st1" d="M247,168.3c17.1-4.4,80.8-18.2,137.3,1.7c2.5,1,5.2-0.4,5.8-2.7c1.5-5.4,1.3-14.4-13.4-18.2
	c-21.7-5.6-56.1-5.6-56.1-5.6s-51.6,1.3-63.9,4.8c-13.2,3.8-15.4,11.3-15.2,16.1C241.6,167.1,244.3,168.8,247,168.3z"/>
<path class="st1" d="M260.6,142.2l12.5-1.2C273.1,140.8,265.6,129.7,260.6,142.2z"/>
<path class="st1" d="M291.3,139.7l12.5-0.6C303.8,139.1,298.8,125.6,291.3,139.7z"/>
<path class="st1" d="M370.8,143.7l-12.3-2.1C358.5,141.6,366.7,130.8,370.8,143.7z"/>
<path class="st1" d="M341.4,139.7l-12.5-0.6C328.9,139.1,335.8,127.4,341.4,139.7z"/>
<path class="st1" d="M431.8,378.5H195.9c-1.3,0-2.5-1.2-2.5-2.5v-3.5c0-1.3,1.2-2.5,1.5-2.5h236.1c2.3,0,3.5,1.2,3.5,2.5v3.5
	C434.5,377.3,433.4,378.5,431.8,378.5z"/>
<path class="st1" d="M241.2,237.9h6c3.1,0,4.6,1,4.6,1.9l4.6,88.9c0,1.2-2.5,1.9-5.6,1.9h-6c-3.1,0-5.6-1-5.6-1.9
	c0-12.1-3.6-76.8-3.6-88.9C235.6,238.9,238.1,237.9,241.2,237.9z"/>
<path class="st1" d="M378.8,237.9h6.5c3.3,0,6.1,1,6.1,1.9l-2.3,88.9c0,1.2-2.7,1.9-6.1,1.9h-6.5c-3.3,0-6.1-1-6.1-1.9
	c0-12.1,3.5-76.8,3.5-88.9C374,238.9,375.4,237.9,378.8,237.9z"/>
<path class="st1" d="M385.2,247.9v4.2c0,2.1-1.3,3.8-3.1,3.8H246.2c-1.7,0-3.1-1.7-3.1-3.8v-4.2c0-2.1,1.3-3.8,2.9-3.8
	c18.4,0,117.3,0,135.9,0C383.8,243.9,385.2,245.6,385.2,247.9z"/>
<path class="st1" d="M383.8,271v4.2c0,2.1-1.3,3.8-3.1,3.8H245c-1.7,0-3.1-1.7-3.1-3.8V271c0-2.1,1.3-3.8,2.9-3.8
	c18.4,0,117.3,0,135.9,0C382.5,267.1,383.8,268.9,383.8,271z"/>
<path class="st1" d="M383.3,292.7v4.2c0,2.1-1.3,3.8-3.1,3.8H244.5c-1.7,0-3.1-1.7-3.1-3.8v-4.2c0-2.1,1.3-3.8,2.9-3.8
	c18.4,0,117.3,0,135.9,0C381.9,288.8,383.3,290.5,383.3,292.7z"/>
<path class="st1" d="M383.8,314.7v4.2c0,2.1-1.3,3.8-3.1,3.8H245c-1.7,0-3.1-1.7-3.1-3.8v-4.2c0-2.1,1.3-3.8,2.9-3.8
	c18.4,0,117.3,0,135.9,0C382.5,310.9,383.8,312.6,383.8,314.7z"/>
<path class="st1" d="M384.4,179.8c-0.6-2.1-2.3-3.6-4.4-4.2c-23-6.1-45.7-7.9-66-7.5c-20.3-0.4-43,1.3-66,7.5
	c-2.1,0.6-3.8,2.1-4.4,4.2c-2.5,8.6-8.8,32.4-5.4,47.6c0.8,3.3,4.2,5.2,7.7,4.6c8.6-1.7,20-2.9,69.7-2.9h0.2c0.2,0,0.2,0,0.4,0h0.2
	c49.5,0,57.2,1.2,65.8,2.9c3.5,0.6,6.9-1.3,7.7-4.6C393.2,212.2,386.9,188.4,384.4,179.8z"/>
<path class="st1" d="M419.7,166l-2.9,48.8c0,0.6,0.4,1.3,1,1.7l2.1,1.3c1.3,1,3.3,0.2,3.5-1.3l6.3-49.9"/>
</svg>
