<?xml version="1.0" encoding="UTF-8"?>
<svg width="24px" height="24px" viewBox="0 0 24 24" version="1.1" xmlns="http://www.w3.org/2000/svg" xmlns:xlink="http://www.w3.org/1999/xlink">
    <!-- Generator: Sketch 42 (36781) - http://www.bohemiancoding.com/sketch -->
    <title>Page 1 Copy 2</title>
    <desc>Created with Sketch.</desc>
    <defs></defs>
    <g id="Page-1" stroke="none" stroke-width="1" fill="none" fill-rule="evenodd">
        <g id="Wholesale-Form" transform="translate(-198.000000, -1623.000000)" fill="#505050">
            <g id="Group-10-Copy" transform="translate(187.000000, 1612.000000)">
                <path d="M22.9668283,6.72682825 C22.0394683,6.72682825 21.2868283,7.47946825 21.2868283,8.40682825 L21.2868283,21.2868283 L8.40682825,21.2868283 C7.47946825,21.2868283 6.72682825,22.0394683 6.72682825,22.9668283 C6.72682825,23.8941883 7.47946825,24.6468283 8.40682825,24.6468283 L21.2868283,24.6468283 L21.2868283,37.5268283 C21.2868283,38.4541883 22.0394683,39.2068283 22.9668283,39.2068283 C23.8941883,39.2068283 24.6468283,38.4541883 24.6468283,37.5268283 L24.6468283,24.6468283 L37.5268283,24.6468283 C38.4541883,24.6468283 39.2068283,23.8941883 39.2068283,22.9668283 C39.2068283,22.0394683 38.4541883,21.2868283 37.5268283,21.2868283 L24.6468283,21.2868283 L24.6468283,8.40682825 C24.6468283,7.47946825 23.8941883,6.72682825 22.9668283,6.72682825 Z" id="Page-1-Copy-2" transform="translate(22.966828, 22.966828) rotate(45.000000) translate(-22.966828, -22.966828) "></path>
            </g>
        </g>
    </g>
</svg>