<?xml version="1.0" encoding="UTF-8"?>
<svg width="73px" height="56px" viewBox="0 0 73 56" version="1.1" xmlns="http://www.w3.org/2000/svg" xmlns:xlink="http://www.w3.org/1999/xlink">
    <!-- Generator: Sketch 42 (36781) - http://www.bohemiancoding.com/sketch -->
    <title>Page 1</title>
    <desc>Created with Sketch.</desc>
    <defs></defs>
    <g id="Page-1" stroke="none" stroke-width="1" fill="none" fill-rule="evenodd">
        <g id="Wholesale-Form" transform="translate(-712.000000, -1159.000000)" fill="#505050">
            <path d="M715.633007,1207.97168 L720.133007,1207.97168 C721.340007,1212.12868 725.141007,1214.98768 729.469007,1214.99968 C733.817007,1215.03068 737.653007,1212.15568 738.836007,1207.97168 L753.469007,1207.97168 C754.680007,1212.13968 758.504007,1215.00668 762.844007,1214.99968 C767.196007,1215.03468 771.031007,1212.15968 772.219007,1207.97168 L777.387007,1207.97168 C779.379007,1207.97568 781.000007,1206.35868 780.996007,1204.36268 L780.996007,1197.45668 C780.985007,1195.79968 779.860007,1194.35868 778.258007,1193.94068 L778.258007,1193.87468 L752.719007,1193.87468 C751.188007,1193.87468 749.946007,1192.63168 749.946007,1191.10068 L749.946007,1167.63168 C749.949007,1166.47168 749.012007,1165.53068 747.852007,1165.53068 L738.934007,1165.53068 C736.891007,1165.54268 734.977007,1166.51868 733.766007,1168.16368 C733.668007,1168.26068 733.571007,1168.45668 733.473007,1168.55368 L725.973007,1179.87068 L720.684007,1180.62068 C717.547007,1181.05368 715.211007,1183.73768 715.219007,1186.90568 L715.219007,1196.19068 C713.399007,1196.42068 712.024007,1197.96068 712.000007,1199.79968 L712.000007,1204.36668 C711.996007,1206.37068 713.629007,1207.99168 715.633007,1207.97168 Z M762.883007,1200.35868 L762.883007,1200.35868 C765.559007,1200.40168 767.715007,1202.55768 767.758007,1205.23368 C767.758007,1209.57768 762.508007,1211.75268 759.438007,1208.67868 C756.364007,1205.60868 758.539007,1200.35868 762.883007,1200.35868 Z M729.469007,1200.36668 L729.469007,1200.36668 C732.145007,1200.40968 734.301007,1202.56568 734.344007,1205.24168 C734.336007,1207.92868 732.157007,1210.10868 729.469007,1210.11668 C726.793007,1210.07368 724.637007,1207.91768 724.594007,1205.24168 C724.602007,1202.55368 726.781007,1200.37868 729.469007,1200.36668 Z M784.414007,1161.48768 L784.414007,1188.24968 C784.414007,1189.41768 783.465007,1190.36268 782.301007,1190.35868 L755.547007,1190.35868 C754.395007,1190.34268 753.469007,1189.40168 753.469007,1188.24968 L753.469007,1161.48768 C753.469007,1160.31968 754.418007,1159.37468 755.582007,1159.37868 L782.305007,1159.37868 C783.469007,1159.37868 784.414007,1160.32368 784.414007,1161.48768 Z" id="Page-1"></path>
        </g>
    </g>
</svg>