<?xml version="1.0" encoding="UTF-8"?>
<svg width="60px" height="85px" viewBox="0 0 60 85" version="1.1" xmlns="http://www.w3.org/2000/svg" xmlns:xlink="http://www.w3.org/1999/xlink">
    <!-- Generator: Sketch 42 (36781) - http://www.bohemiancoding.com/sketch -->
    <title>Group Copy 2</title>
    <desc>Created with Sketch.</desc>
    <defs>
        <path d="M25,75.3457332 C25,75.3457332 35.0528286,60.513377 41.0871639,49.8498798 C47.1214991,39.1863826 50,31.9446528 50,25.1384615 C50,11.2548726 38.8071187,0 25,0 C11.1928813,0 0,11.2548726 0,25.1384615 C0,31.7035457 2.40715035,38.3614682 8.90829397,49.8498798 C15.4094376,61.3382914 25,75.3457332 25,75.3457332 Z" id="path-1"></path>
        <filter x="-50%" y="-50%" width="200%" height="200%" filterUnits="objectBoundingBox" id="filter-2">
            <feMorphology radius="1" operator="dilate" in="SourceAlpha" result="shadowSpreadOuter1"></feMorphology>
            <feOffset dx="0" dy="2" in="shadowSpreadOuter1" result="shadowOffsetOuter1"></feOffset>
            <feGaussianBlur stdDeviation="2" in="shadowOffsetOuter1" result="shadowBlurOuter1"></feGaussianBlur>
            <feComposite in="shadowBlurOuter1" in2="SourceAlpha" operator="out" result="shadowBlurOuter1"></feComposite>
            <feColorMatrix values="0 0 0 0 0   0 0 0 0 0   0 0 0 0 0  0 0 0 0.5 0" type="matrix" in="shadowBlurOuter1"></feColorMatrix>
        </filter>
        <mask id="mask-3" maskContentUnits="userSpaceOnUse" maskUnits="objectBoundingBox" x="-1" y="-1" width="52" height="77.3457332">
            <rect x="-1" y="-1" width="52" height="77.3457332" fill="white"></rect>
            <use xlink:href="#path-1" fill="black"></use>
        </mask>
    </defs>
    <g id="Page-1" stroke="none" stroke-width="1" fill="none" fill-rule="evenodd">
        <g id="Contact" transform="translate(-605.000000, -257.000000)">
            <g id="Group-Copy-2" transform="translate(610.000000, 260.000000)">
                <g id="Oval-2">
                    <use fill="black" fill-opacity="1" filter="url(#filter-2)" xlink:href="#path-1"></use>
                    <use fill="#505050" fill-rule="evenodd" xlink:href="#path-1"></use>
                    <use stroke="#FFFFFF" mask="url(#mask-3)" stroke-width="2" xlink:href="#path-1"></use>
                </g>
                <g id="Group-8" transform="translate(11.144928, 10.133333)">
                    <g id="Page-1" transform="translate(0.381209, 0.096948)">
                        <g id="Group-6" transform="translate(2.750939, 19.670916)">
                            <path d="M0.237140359,0.283521443 L2.85227154,12.1065552 C2.85227154,12.1065552 5.63349507,14.551098 11.5276563,14.551098 C17.4218176,14.551098 20.1606946,12.1065552 20.1606946,12.1065552 L22.8384045,0.079651509" id="Fill-4" fill="#505050"></path>
                            <path d="M0.237140359,0.283521443 L2.85227154,12.1065552 C2.85227154,12.1065552 5.63349507,14.551098 11.5276563,14.551098 C17.4218176,14.551098 20.1606946,12.1065552 20.1606946,12.1065552 L22.8384045,0.079651509" id="Stroke-5" stroke="#FFFFFF" stroke-width="1.5"></path>
                        </g>
                        <g id="Group-3">
                            <path d="M10.680256,3.46341829 C8.07782873,3.8929675 6.27480918,4.83361389 6.27480918,5.9245551 C6.27480918,6.209973 6.39808452,6.48590859 6.62769662,6.74335364 C4.90184178,7.40616799 3.8412974,8.30461804 3.8412974,9.29362428 C3.8412974,9.68429597 4.00691924,10.0602701 4.31181399,10.4139607 C2.86921014,11.1322466 2.01616357,12.0212143 2.01616357,12.9827218 C2.01616357,13.5085166 2.27353614,14.0143985 2.74405272,14.4828253 C1.13582704,15.2826592 0.191029734,16.2645537 0.191029734,17.3237291 C0.191029734,20.021924 6.31903774,22.2094958 13.8802393,22.2094958 C21.4414408,22.2094958 27.5694488,20.021924 27.5694488,17.3237291 C27.5694488,16.2645537 26.6246515,15.2826592 25.0164258,14.4828253 C25.4869424,14.0143985 25.744315,13.5085166 25.744315,12.9827218 C25.744315,12.0212143 24.8912684,11.1322466 23.4486645,10.4139607 C23.7535593,10.0602701 23.9191811,9.68429597 23.9191811,9.29362428 C23.9191811,8.30461804 22.8586367,7.40616799 21.1327819,6.74335364 C21.362394,6.48590859 21.4856693,6.209973 21.4856693,5.9245551 C21.4856693,4.53349839 18.554351,3.38755971 14.7751618,3.22967904 C10.0187096,1.53329155 13.7884885,-0.883278341 11.404381,0.602127479 C10.1255169,1.39816845 10.2078573,2.50001433 10.680256,3.46341829 Z" id="Fill-1" stroke="#FFFFFF" stroke-width="1.5" fill="#505050"></path>
                            <path d="M10.680256,3.46341829 C8.07782873,3.8929675 6.27480918,4.83361389 6.27480918,5.9245551 C6.27480918,6.209973 6.39808452,6.48590859 6.62769662,6.74335364 C4.90184178,7.40616799 3.8412974,8.30461804 3.8412974,9.29362428 C3.8412974,9.68429597 4.00691924,10.0602701 4.31181399,10.4139607 C2.86921014,11.1322466 2.01616357,12.0212143 2.01616357,12.9827218 C2.01616357,13.5085166 2.27353614,14.0143985 2.74405272,14.4828253 C1.13582704,15.2826592 0.191029734,16.2645537 0.191029734,17.3237291 C0.191029734,20.021924 6.31903774,22.2094958 13.8802393,22.2094958 C21.4414408,22.2094958 27.5694488,20.021924 27.5694488,17.3237291 C27.5694488,16.2645537 26.6246515,15.2826592 25.0164258,14.4828253 C25.4869424,14.0143985 25.744315,13.5085166 25.744315,12.9827218 C25.744315,12.0212143 24.8912684,11.1322466 23.4486645,10.4139607 C23.7535593,10.0602701 23.9191811,9.68429597 23.9191811,9.29362428 C23.9191811,8.30461804 22.8586367,7.40616799 21.1327819,6.74335364 C21.362394,6.48590859 21.4856693,6.209973 21.4856693,5.9245551 C21.4856693,4.53349839 18.554351,3.38755971 14.7751618,3.22967904 C10.0187096,1.53329155 13.7884885,-0.883278341 11.404381,0.602127479 C10.1255169,1.39816845 10.2078573,2.50001433 10.680256,3.46341829 Z" id="Stroke-2"></path>
                        </g>
                    </g>
                </g>
                <g id="Group-Copy-3" transform="translate(1.851852, 0.926829)"></g>
            </g>
        </g>
    </g>
</svg>