<?xml version="1.0" encoding="utf-8"?>
<!-- Generator: Adobe Illustrator 21.0.2, SVG Export Plug-In . SVG Version: 6.00 Build 0)  -->
<svg version="1.1" id="Layer_1" xmlns="http://www.w3.org/2000/svg" xmlns:xlink="http://www.w3.org/1999/xlink" x="0px" y="0px"
	 viewBox="0 0 48.2 55.9" style="enable-background:new 0 0 48.2 55.9;" xml:space="preserve">
<style type="text/css">
	.st0{fill:#505050;}
</style>
<title>Page 1</title>
<desc>Created with Sketch.</desc>
<g id="Page-1_2_">
	<g id="Wholesale-Form_1_" transform="translate(-415.000000, -1146.000000)">
		<g id="Page-1_3_" transform="translate(415.000000, 1146.000000)">
			<path id="Fill-1" class="st0" d="M27.9,9.3c-2.5,0.4-4.9-1.4-5.3-3.9c-0.4-2.5,1.4-4.9,3.9-5.3C29-0.3,31.4,1.4,31.8,4
				C32.2,6.5,30.4,8.9,27.9,9.3z"/>
			<path id="Fill-3" class="st0" d="M19.4,17.9l-6.1,1.8L19.4,17.9z"/>
			<path id="Fill-4" class="st0" d="M23.7,23.9l-1.9-6.3c0-0.1-0.2-0.2-0.3-0.2c0,0-8.2,2.4-8.2,2.4c-0.1,0-0.1,0.1-0.2,0.2
				c0,0.1-0.1,0.2,0,0.2l1.9,6.3c0,0.2,0.2,0.3,0.4,0.2l8.1-2.4c0.1,0,0.1-0.1,0.2-0.2C23.7,24.1,23.7,24,23.7,23.9z"/>
			<path id="Fill-5" class="st0" d="M19.8,17.8l0.2-0.1v0l-0.5,0.2L19.8,17.8z"/>
			<path id="Fill-6" class="st0" d="M47.6,27.5h-2.1c0-1.6-1.2-2.9-2.7-3.2l-9.2-4.5l-5.4-7.5c-0.1-0.2-0.3-0.5-0.5-0.7l-0.1-0.1
				l0,0c-0.8-0.9-2-1.5-3.3-1.4c-0.8,0-1.6,0.3-2.3,0.7l0,0L21.9,11c0,0,0,0-0.1,0l-12.3,6c-0.4,0.3-0.8,0.7-0.9,1.2l-1,8.1
				c-1.1,0.2-2,0.9-2.5,2c-0.1,0.1-0.1,0.3-0.1,0.5l-2.1-0.4c-0.3-0.1-0.7,0.2-0.8,0.5L0,40.4c-0.1,0.3,0.2,0.7,0.5,0.8l10.7,2
				c0.3,0.1,0.7-0.2,0.8-0.5l2.1-11.5c0.1-0.3-0.2-0.7-0.5-0.8L11.3,30c0.1-0.6,0-1.1-0.2-1.6c-0.2-0.4-0.5-0.8-0.8-1.1l2.3-6.5
				l-0.1-0.4c-0.1-0.2,0-0.5,0.1-0.7c0.1-0.2,0.3-0.4,0.6-0.5l8.1-2.4c0.5-0.1,1.1,0.2,1.2,0.7l1.9,6.3c0.1,0.2,0,0.5-0.1,0.7
				c-0.1,0.2-0.3,0.4-0.6,0.5L20.1,26c0,2,0,3.6,0,3.6l-1.6,11.1l-5.8,15.2h4.2l6.9-13.2c0.1-0.2,0.2-0.5,0.2-0.8l1-7.2l2.8,7.2
				l1.1,13.9h4.3l0.3-14.6c0-0.3-0.1-0.6-0.2-0.9l-4.3-11.1c0-0.1,0-8.2,0-8.2l1.6,2.1c0.3,0.4,0.8,0.7,1.3,0.9l8.1,1.5
				c-0.5,0.6-0.7,1.3-0.7,2h-1.9c-0.4,0-0.6,0.3-0.6,0.6v11.7c0,0.4,0.3,0.6,0.6,0.6h10.4c0.4,0,0.6-0.3,0.6-0.6V28.2
				C48.2,27.8,48,27.5,47.6,27.5z M6.3,29.1c0-0.1,0-0.1,0.1-0.2c0.3-0.7,1-1.2,1.8-1.2c0.3,0,0.5,0,0.7,0.1c0.5,0.2,0.8,0.6,1,1
				c0.1,0.3,0.2,0.6,0.1,0.9L6.3,29.1z M40.4,27.5c0-1.1,0.9-1.9,1.9-1.9c1.1,0,1.9,0.9,1.9,1.9H40.4z"/>
		</g>
	</g>
</g>
</svg>
