<?xml version="1.0" encoding="UTF-8"?>
<svg width="17px" height="14px" viewBox="0 0 17 14" version="1.1" xmlns="http://www.w3.org/2000/svg" xmlns:xlink="http://www.w3.org/1999/xlink">
    <!-- Generator: Sketch 42 (36781) - http://www.bohemiancoding.com/sketch -->
    <title>twitter</title>
    <desc>Created with Sketch.</desc>
    <defs></defs>
    <g id="Page-1" stroke="none" stroke-width="1" fill="none" fill-rule="evenodd">
        <g id="Home" transform="translate(-1127.000000, -53.000000)" fill-rule="nonzero" fill="#F89191">
            <g id="Main-Top-Nav-1" transform="translate(338.000000, 51.000000)">
                <g id="twitter" transform="translate(789.000000, 2.000000)">
                    <path d="M5.28395472,13.6744774 C11.6244316,13.6744774 15.0924049,8.41308732 15.0924049,3.85043353 C15.0924049,3.70099281 15.0924049,3.55222526 15.0823236,3.40413085 C15.7569865,2.91535933 16.3393668,2.31017059 16.8021964,1.61690073 C16.1730409,1.89612718 15.5056242,2.07924379 14.8222256,2.16013791 C15.5418596,1.7286326 16.0804571,1.04994958 16.3377837,0.250393318 C15.6610971,0.65257416 14.9207846,0.93601116 14.1487936,1.08847299 C13.0802295,-0.0495690062 11.3822913,-0.328108785 10.0070853,0.40904276 C8.6318792,1.1461943 7.92141229,2.71571117 8.27407358,4.23749843 C5.5023132,4.09832304 2.91986941,2.78706409 1.16943287,0.630053504 C0.254467757,2.20769285 0.721814214,4.22596018 2.23670838,5.23915509 C1.68811076,5.22286979 1.15147426,5.07464455 0.672087854,4.80698871 L0.672087854,4.85074387 C0.672536903,6.49431769 1.82925612,7.90992659 3.43772939,8.23537406 C2.93021541,8.37400389 2.39772759,8.39426877 1.88117391,8.29461177 C2.33278195,9.70112007 3.62697223,10.6646499 5.10181892,10.6923948 C3.88112929,11.6532796 2.37318222,12.1749056 0.82061927,12.1733387 C0.546342617,12.1728114 0.272332731,12.1561783 0,12.1235252 C1.57647343,13.1368117 3.41078767,13.6742868 5.28395472,13.6717848" id="Shape"></path>
                </g>
            </g>
        </g>
    </g>
</svg>