<?xml version="1.0" encoding="utf-8"?>
<!-- Generator: Adobe Illustrator 16.0.0, SVG Export Plug-In . SVG Version: 6.00 Build 0)  -->
<!DOCTYPE svg PUBLIC "-//W3C//DTD SVG 1.1//EN" "http://www.w3.org/Graphics/SVG/1.1/DTD/svg11.dtd">
<svg version="1.1" id="Calque_3" xmlns="http://www.w3.org/2000/svg" xmlns:xlink="http://www.w3.org/1999/xlink" x="0px" y="0px"
	 width="450px" height="240px" viewBox="0 0 450 240" enable-background="new 0 0 450 240" xml:space="preserve">
<g>
	<g>
		<path d="M448.041,142.864c-0.711,1.395-1.92,1.608-3.363,1.608c-98.893-0.021-197.783-0.021-296.676-0.021
			c-47.595,0-95.188-0.003-142.782,0.021c-1.419,0.002-2.546-0.287-3.233-1.608c0-31.271,0-62.542,0-93.812
			c0.431-0.432,0.862-0.862,1.292-1.292c147.823,0,295.647,0,443.47,0c0.43,0.431,0.861,0.861,1.293,1.292
			C448.041,80.322,448.041,111.593,448.041,142.864z M6.968,139.357c145.431,0,290.755,0,436.044,0c0-28.933,0-57.765,0-86.589
			c-145.397,0-290.691,0-436.044,0C6.968,81.657,6.968,110.458,6.968,139.357z"/>
		<path fill="none" d="M448.041,49.053c-0.432-0.432-0.863-0.862-1.293-1.292c0.43,0,0.861,0,1.293,0
			C448.041,48.191,448.041,48.621,448.041,49.053z"/>
		<path fill="none" d="M3.278,47.76c-0.43,0.431-0.861,0.861-1.292,1.292c0-0.432,0-0.862,0-1.292
			C2.417,47.76,2.848,47.76,3.278,47.76z"/>
		<path fill="none" d="M6.968,139.357c0-28.9,0-57.7,0-86.589c145.353,0,290.646,0,436.044,0c0,28.825,0,57.657,0,86.589
			C297.723,139.357,152.399,139.357,6.968,139.357z M80.643,114.886c-0.178-0.452-0.28-0.678-0.357-0.912
			c-1.974-6.002-3.947-12.006-5.918-18.008c-2.882-8.781-5.754-17.566-8.65-26.344c-0.658-1.994-1.714-2.775-3.55-2.778
			c-1.869-0.003-2.918,0.781-3.564,2.75c-4.063,12.374-8.115,24.752-12.173,37.129c-0.875,2.666-1.754,5.33-2.699,8.202
			c-0.192-0.506-0.305-0.781-0.403-1.061c-4.994-14.375-9.982-28.75-14.988-43.121c-0.294-0.846-0.618-1.714-1.109-2.453
			c-0.946-1.423-2.729-1.831-4.231-1.107c-1.515,0.729-2.246,2.333-1.803,3.995c0.121,0.457,0.285,0.902,0.446,1.347
			c4.47,12.417,8.941,24.834,13.417,37.25c1.604,4.448,3.211,8.896,4.831,13.338c0.567,1.555,1.611,2.504,3.356,2.535
			c1.884,0.033,2.945-0.621,3.737-2.379c0.195-0.43,0.341-0.881,0.492-1.33c4.163-12.386,8.322-24.775,12.486-37.164
			c0.609-1.813,1.244-3.616,1.965-5.709c0.252,0.633,0.402,0.967,0.52,1.312c4.304,12.703,8.602,25.407,12.909,38.108
			c0.58,1.708,1.121,3.436,1.826,5.092c0.584,1.373,1.716,2.062,3.277,2.082c1.61,0.021,2.719-0.675,3.435-2.06
			c0.235-0.457,0.398-0.951,0.573-1.438c3.294-9.14,6.585-18.282,9.877-27.423c2.797-7.765,5.603-15.527,8.387-23.295
			c0.706-1.968-0.077-3.67-1.952-4.393c-1.688-0.65-3.368,0.154-4.175,2c-0.103,0.236-0.19,0.48-0.275,0.724
			c-4.414,12.71-8.825,25.421-13.241,38.13C82.305,110.164,81.509,112.414,80.643,114.886z M269.678,99.138
			c11.066,0,21.932,0,32.908,0c0,0.622,0,1.134,0,1.646c0,6.59-0.004,13.18,0.008,19.771c0.002,0.685,0.041,1.379,0.152,2.055
			c0.236,1.461,1.439,2.555,2.895,2.705c1.521,0.158,2.943-0.697,3.428-2.164c0.187-0.557,0.226-1.182,0.226-1.773
			c0.013-16.84,0.011-33.681,0.008-50.521c0-0.345,0.019-0.692-0.016-1.034c-0.16-1.601-1.496-2.887-3.07-2.974
			c-1.682-0.093-3.155,1.011-3.459,2.657c-0.125,0.672-0.159,1.369-0.161,2.054c-0.013,6.547-0.007,13.094-0.011,19.64
			c-0.002,0.495-0.051,0.991-0.076,1.479c-11.004,0-21.836,0-32.829,0c0-0.594,0-1.1,0-1.605c0-6.633,0.006-13.266-0.009-19.899
			c-0.002-0.64-0.028-1.306-0.203-1.915c-0.391-1.364-1.348-2.186-2.758-2.384c-1.373-0.195-2.506,0.341-3.178,1.516
			c-0.363,0.636-0.546,1.462-0.546,2.203c-0.03,17.014-0.022,34.026-0.022,51.04c0,0.216-0.004,0.433,0.017,0.646
			c0.164,1.629,1.444,2.919,3.014,3.044c1.664,0.134,3.145-0.927,3.52-2.587c0.131-0.58,0.158-1.194,0.158-1.793
			c0.012-6.719,0.008-13.438,0.008-20.157C269.678,100.273,269.678,99.762,269.678,99.138z M101.309,122.251
			c0.152,1.854,1.448,3.114,3.258,3.076c1.646-0.036,2.549-1.026,3.17-2.425c1.782-4.007,3.609-7.995,5.362-12.015
			c0.357-0.819,0.765-1.172,1.704-1.169c9.688,0.034,19.377,0.034,29.064,0c0.924-0.003,1.362,0.317,1.724,1.136
			c1.734,3.934,3.521,7.846,5.313,11.753c0.265,0.578,0.6,1.149,1.012,1.631c0.862,1.008,2.008,1.322,3.274,0.975
			c1.335-0.363,2.2-1.314,2.277-2.664c0.05-0.85-0.232-1.787-0.594-2.581c-7.688-16.86-15.405-33.706-23.124-50.551
			c-0.981-2.141-2.372-2.948-4.718-2.826c-2.085,0.108-3.209,1.41-4.01,3.163c-7.698,16.855-15.407,33.705-23.098,50.563
			C101.646,120.928,101.51,121.604,101.309,122.251z M232.371,66.253c-10.719,0.176-19.189,4.541-24.93,13.717
			c-4.074,6.512-5.196,13.7-4.089,21.221c0.969,6.586,3.736,12.388,8.67,16.901c8.996,8.227,19.458,9.623,30.789,5.981
			c4.08-1.313,7.506-3.804,10.594-6.735c1.342-1.274,1.354-3.091,0.168-4.397c-1.232-1.354-2.881-1.454-4.367-0.252
			c-0.369,0.297-0.717,0.62-1.072,0.931c-4.084,3.549-8.729,5.736-14.209,6.042c-8.777,0.491-15.581-2.939-20.317-10.298
			c-3.299-5.127-4.254-10.849-3.499-16.835c0.689-5.461,2.938-10.215,6.915-14.091c7.799-7.602,20.441-7.919,29.047-1.423
			c0.856,0.648,1.66,1.374,2.531,2c1.229,0.881,2.557,1.018,3.873,0.212c1.217-0.743,1.737-1.869,1.549-3.295
			c-0.148-1.105-0.853-1.843-1.664-2.517C246.57,68.606,239.938,66.164,232.371,66.253z M181.379,73.386c0.888,0,1.651,0,2.415,0
			c4.693,0,9.386,0.008,14.08-0.005c1.77-0.005,3.047-1.127,3.183-2.73c0.143-1.703-0.921-3.035-2.705-3.341
			c-0.505-0.086-1.025-0.117-1.538-0.117c-12.53-0.006-25.06-0.007-37.589,0.002c-0.642,0-1.296,0.04-1.922,0.168
			c-1.304,0.268-2.271,1.428-2.361,2.728c-0.131,1.897,1.152,3.281,3.127,3.289c5.038,0.02,10.076,0.007,15.113,0.007
			c0.452,0,0.905,0,1.426,0c0,0.764,0,1.321,0,1.879c0,15.243,0,30.484,0,45.726c0,0.43-0.026,0.865,0.02,1.291
			c0.191,1.785,1.638,3.064,3.415,3.046c1.76-0.019,3.181-1.356,3.319-3.142c0.033-0.431,0.016-0.861,0.016-1.293
			c0.001-15.286,0.001-30.57,0.001-45.855C181.379,74.532,181.379,74.027,181.379,73.386z M386.316,73.386c0.731,0,1.25,0,1.766,0
			c4.951,0,9.904,0.012,14.854-0.009c1.689-0.007,2.933-1.151,3.062-2.713c0.133-1.667-0.891-3.031-2.559-3.343
			c-0.546-0.102-1.109-0.128-1.666-0.128c-12.529-0.007-25.06-0.007-37.589,0c-0.6,0-1.25-0.044-1.785,0.164
			c-0.69,0.269-1.424,0.656-1.903,1.2c-0.797,0.908-0.867,2.051-0.313,3.145c0.575,1.133,1.53,1.69,2.823,1.688
			c5.037-0.009,10.074-0.003,15.113-0.003c0.453,0,0.903,0,1.428,0c0,0.761,0,1.318,0,1.875c0,15.242,0,30.483,0,45.724
			c0,0.432-0.024,0.865,0.025,1.289c0.198,1.688,1.526,2.953,3.159,3.048c1.625,0.094,3.078-0.921,3.472-2.503
			c0.131-0.532,0.11-1.108,0.11-1.666c0.004-15.37,0.004-30.742,0.004-46.112C386.316,74.535,386.316,74.03,386.316,73.386z
			 M350.91,96.156c0-8.306,0.002-16.612,0-24.918c0-0.43,0.016-0.862-0.02-1.291c-0.142-1.678-1.459-2.986-3.095-3.097
			c-1.668-0.113-3.103,0.964-3.459,2.648c-0.106,0.499-0.137,1.023-0.137,1.535c-0.009,16.698-0.009,33.396,0,50.095
			c0,0.511,0.028,1.035,0.133,1.534c0.336,1.593,1.638,2.658,3.192,2.664c1.56,0.005,2.938-1.053,3.283-2.586
			c0.111-0.494,0.096-1.024,0.096-1.539C350.912,112.854,350.91,104.505,350.91,96.156z M416.234,73.314
			c-0.009,0-0.017,0-0.025,0.001c0.119,2.577,0.229,5.154,0.355,7.73c0.405,8.199,0.817,16.397,1.229,24.595
			c0.086,1.675,0.148,3.351,0.275,5.022c0.086,1.142,0.838,1.904,1.842,1.992c1.039,0.092,1.865-0.525,2.121-1.651
			c0.11-0.499,0.141-1.021,0.166-1.534c0.375-7.771,0.742-15.542,1.112-23.312c0.242-5.066,0.541-10.13,0.714-15.197
			c0.082-2.371-1.736-3.981-4.15-3.911c-2.174,0.063-3.83,1.848-3.766,4.077C416.129,71.856,416.191,72.584,416.234,73.314z
			 M420.094,125.385c2.313-0.003,3.967-1.67,3.953-3.978c-0.016-2.227-1.682-3.896-3.904-3.91c-2.26-0.016-4.047,1.708-4.069,3.924
			C416.047,123.626,417.836,125.389,420.094,125.385z"/>
		<path d="M80.643,114.886c0.867-2.472,1.662-4.722,2.445-6.978c4.416-12.709,8.827-25.42,13.241-38.13
			c0.084-0.244,0.172-0.488,0.275-0.724c0.807-1.847,2.487-2.65,4.175-2c1.875,0.722,2.658,2.424,1.952,4.393
			c-2.785,7.768-5.59,15.53-8.387,23.295c-3.292,9.142-6.583,18.283-9.877,27.423c-0.175,0.485-0.338,0.979-0.573,1.437
			c-0.715,1.387-1.825,2.082-3.435,2.061c-1.561-0.021-2.693-0.709-3.277-2.082c-0.705-1.656-1.246-3.384-1.826-5.092
			c-4.307-12.701-8.605-25.405-12.909-38.108c-0.118-0.345-0.268-0.679-0.52-1.312c-0.721,2.093-1.356,3.897-1.965,5.709
			c-4.164,12.387-8.323,24.776-12.486,37.165c-0.151,0.447-0.297,0.899-0.492,1.33c-0.792,1.758-1.853,2.41-3.737,2.377
			c-1.745-0.03-2.789-0.979-3.356-2.535c-1.62-4.441-3.228-8.889-4.831-13.337c-4.476-12.416-8.947-24.833-13.417-37.25
			c-0.161-0.444-0.325-0.89-0.446-1.347c-0.442-1.662,0.289-3.266,1.803-3.995c1.503-0.724,3.285-0.316,4.231,1.107
			c0.492,0.739,0.815,1.607,1.109,2.453c5.005,14.371,9.994,28.746,14.988,43.121c0.098,0.28,0.21,0.555,0.403,1.061
			c0.945-2.872,1.825-5.536,2.699-8.202c4.058-12.377,8.109-24.755,12.173-37.129c0.646-1.969,1.695-2.752,3.564-2.75
			c1.836,0.003,2.892,0.784,3.55,2.778c2.896,8.777,5.768,17.563,8.65,26.344c1.972,6.002,3.944,12.006,5.918,18.008
			C80.362,114.208,80.464,114.434,80.643,114.886z"/>
		<path d="M269.678,99.138c0,0.624,0,1.135,0,1.646c0,6.719,0.004,13.438-0.008,20.157c0,0.599-0.027,1.213-0.158,1.793
			c-0.375,1.66-1.854,2.721-3.52,2.586c-1.568-0.125-2.85-1.414-3.014-3.043c-0.021-0.213-0.017-0.43-0.017-0.646
			c0-17.013-0.008-34.026,0.022-51.04c0-0.74,0.183-1.566,0.546-2.203c0.672-1.175,1.805-1.711,3.178-1.516
			c1.41,0.199,2.367,1.02,2.758,2.384c0.175,0.608,0.201,1.275,0.203,1.915c0.015,6.634,0.009,13.267,0.009,19.899
			c0,0.505,0,1.012,0,1.605c10.993,0,21.825,0,32.829,0c0.025-0.489,0.074-0.984,0.076-1.479c0.004-6.546-0.002-13.093,0.011-19.64
			c0.002-0.686,0.036-1.382,0.161-2.054c0.304-1.646,1.777-2.75,3.459-2.657c1.574,0.086,2.91,1.373,3.07,2.974
			c0.032,0.341,0.017,0.688,0.017,1.034c0.002,16.84,0.004,33.681-0.009,50.521c0,0.593-0.039,1.218-0.226,1.773
			c-0.483,1.467-1.907,2.322-3.428,2.164c-1.455-0.15-2.658-1.244-2.895-2.705c-0.111-0.676-0.15-1.371-0.152-2.056
			c-0.012-6.59-0.008-13.18-0.008-19.77c0-0.512,0-1.023,0-1.646C291.609,99.138,280.744,99.138,269.678,99.138z"/>
		<path d="M101.309,122.251c0.201-0.646,0.336-1.323,0.615-1.936c7.691-16.858,15.4-33.708,23.098-50.563
			c0.801-1.753,1.925-3.055,4.01-3.163c2.346-0.122,3.737,0.685,4.718,2.826c7.719,16.845,15.437,33.691,23.124,50.551
			c0.362,0.794,0.644,1.731,0.594,2.581c-0.078,1.35-0.942,2.301-2.277,2.664c-1.266,0.348-2.412,0.033-3.274-0.975
			c-0.412-0.48-0.747-1.053-1.012-1.631c-1.792-3.907-3.579-7.819-5.313-11.753c-0.362-0.818-0.8-1.139-1.724-1.136
			c-9.688,0.034-19.376,0.034-29.064,0c-0.938-0.003-1.347,0.35-1.704,1.169c-1.753,4.02-3.58,8.007-5.362,12.016
			c-0.622,1.397-1.525,2.389-3.17,2.425C102.757,125.365,101.461,124.105,101.309,122.251z M116.323,103.511
			c8.748,0,17.315,0,26.046,0c-4.347-9.662-8.623-19.167-13.025-28.954C124.933,84.367,120.646,93.899,116.323,103.511z"/>
		<path d="M232.371,66.253c7.566-0.089,14.199,2.354,19.988,7.161c0.812,0.674,1.516,1.412,1.664,2.517
			c0.188,1.427-0.332,2.552-1.549,3.295c-1.316,0.805-2.646,0.668-3.873-0.212c-0.871-0.626-1.674-1.352-2.531-2
			c-8.605-6.496-21.249-6.178-29.047,1.423c-3.977,3.875-6.226,8.629-6.915,14.091c-0.756,5.987,0.199,11.708,3.499,16.835
			c4.736,7.359,11.54,10.789,20.317,10.298c5.48-0.306,10.125-2.493,14.209-6.042c0.355-0.311,0.703-0.634,1.072-0.931
			c1.486-1.202,3.135-1.103,4.367,0.252c1.188,1.306,1.174,3.124-0.168,4.397c-3.088,2.931-6.514,5.422-10.594,6.735
			c-11.33,3.642-21.792,2.244-30.789-5.981c-4.934-4.513-7.701-10.315-8.67-16.901c-1.107-7.521,0.015-14.709,4.089-21.221
			C213.182,70.793,221.652,66.429,232.371,66.253z"/>
		<path d="M181.379,73.386c0,0.641,0,1.146,0,1.652c0,15.285,0,30.57-0.001,45.856c0,0.431,0.017,0.861-0.016,1.291
			c-0.138,1.785-1.559,3.123-3.319,3.143c-1.777,0.02-3.224-1.262-3.415-3.046c-0.046-0.427-0.02-0.86-0.02-1.291
			c0-15.242,0-30.483,0-45.726c0-0.558,0-1.115,0-1.879c-0.521,0-0.974,0-1.426,0c-5.038,0-10.076,0.013-15.113-0.007
			c-1.976-0.008-3.258-1.392-3.127-3.289c0.09-1.3,1.058-2.46,2.361-2.728c0.626-0.128,1.28-0.167,1.922-0.168
			c12.529-0.009,25.059-0.008,37.589-0.002c0.513,0,1.033,0.03,1.538,0.117c1.784,0.307,2.848,1.639,2.705,3.341
			c-0.136,1.604-1.414,2.725-3.183,2.73c-4.693,0.014-9.387,0.005-14.08,0.005C183.03,73.386,182.267,73.386,181.379,73.386z"/>
		<path d="M386.316,73.386c0,0.644,0,1.149,0,1.656c0,15.37,0,30.742-0.004,46.112c0,0.558,0.02,1.134-0.111,1.666
			c-0.393,1.582-1.846,2.597-3.471,2.503c-1.633-0.095-2.961-1.36-3.16-3.048c-0.051-0.424-0.025-0.857-0.025-1.289
			c0-15.241,0-30.482,0-45.724c0-0.557,0-1.114,0-1.875c-0.523,0-0.975,0-1.428,0c-5.039,0-10.076-0.006-15.113,0.003
			c-1.293,0.002-2.248-0.555-2.824-1.688c-0.553-1.094-0.481-2.237,0.314-3.145c0.48-0.544,1.213-0.931,1.904-1.2
			c0.535-0.208,1.186-0.164,1.785-0.164c12.528-0.007,25.059-0.007,37.588,0c0.557,0,1.12,0.027,1.665,0.128
			c1.669,0.312,2.691,1.676,2.56,3.343c-0.129,1.562-1.371,2.706-3.062,2.713c-4.948,0.021-9.901,0.009-14.854,0.009
			C387.566,73.386,387.049,73.386,386.316,73.386z"/>
		<path d="M350.91,96.156c0,8.349,0.002,16.698-0.004,25.046c0,0.515,0.016,1.045-0.096,1.539c-0.347,1.534-1.726,2.591-3.283,2.586
			c-1.557-0.007-2.857-1.071-3.193-2.664c-0.104-0.499-0.133-1.022-0.133-1.534c-0.008-16.699-0.008-33.396,0-50.095
			c0-0.512,0.029-1.036,0.137-1.535c0.357-1.684,1.791-2.761,3.459-2.648c1.635,0.111,2.953,1.419,3.094,3.097
			c0.035,0.428,0.021,0.861,0.021,1.291C350.912,79.544,350.91,87.851,350.91,96.156z"/>
		<path d="M416.234,73.314c-0.043-0.729-0.105-1.458-0.127-2.188c-0.064-2.229,1.592-4.014,3.766-4.077
			c2.414-0.07,4.232,1.54,4.15,3.911c-0.173,5.067-0.472,10.131-0.714,15.197c-0.37,7.771-0.737,15.543-1.112,23.313
			c-0.025,0.514-0.056,1.036-0.166,1.534c-0.256,1.126-1.082,1.744-2.121,1.651c-1.004-0.088-1.756-0.851-1.842-1.992
			c-0.127-1.671-0.189-3.348-0.275-5.022c-0.41-8.198-0.822-16.396-1.229-24.595c-0.128-2.576-0.236-5.153-0.355-7.73
			C416.219,73.314,416.227,73.314,416.234,73.314z"/>
		<path d="M420.094,125.385c-2.258,0.004-4.047-1.759-4.021-3.963c0.022-2.216,1.811-3.94,4.069-3.924
			c2.224,0.014,3.89,1.683,3.904,3.91C424.061,123.715,422.406,125.382,420.094,125.385z"/>
		<path fill="none" d="M116.323,103.511c4.322-9.611,8.609-19.144,13.021-28.954c4.403,9.788,8.678,19.292,13.025,28.954
			C133.639,103.511,125.071,103.511,116.323,103.511z"/>
	</g>
</g>
</svg>
