<?xml version="1.0" encoding="UTF-8"?>
<svg width="8px" height="15px" viewBox="0 0 8 15" version="1.1" xmlns="http://www.w3.org/2000/svg" xmlns:xlink="http://www.w3.org/1999/xlink">
    <!-- Generator: Sketch 42 (36781) - http://www.bohemiancoding.com/sketch -->
    <title>fay</title>
    <desc>Created with Sketch.</desc>
    <defs></defs>
    <g id="Page-1" stroke="none" stroke-width="1" fill="none" fill-rule="evenodd">
        <g id="Home" transform="translate(-1099.000000, -53.000000)" fill-rule="nonzero" fill="#F89191">
            <g id="Main-Top-Nav-1" transform="translate(338.000000, 51.000000)">
                <g id="fay" transform="translate(761.000000, 2.000000)">
                    <path d="M7.77019431,0.691401772 C7.75211958,0.583328504 7.67593367,0.492821918 7.57156674,0.455206313 C6.93467572,0.226839484 6.0929379,0.000573018763 5.1895905,1.92188802e-07 C4.48098367,-0.000190750002 3.73020249,0.141870221 3.03228501,0.541703112 L3.03228501,0.541703112 C2.68089687,0.742383331 2.40394549,0.996145468 2.19307374,1.28179494 C1.87569717,1.71084199 1.70680542,2.20461843 1.61157301,2.70584161 C1.53480403,3.11121183 1.50584561,3.52421973 1.49029746,3.92462545 C1.30838413,3.92882618 1.10217682,3.93016277 0.914432939,3.93016277 C0.75020563,3.93016277 0.599971653,3.92920806 0.490551563,3.92806241 C0.435938694,3.92748958 0.391820825,3.9271077 0.361113231,3.92672581 C0.330405643,3.92615299 0.314080086,3.92596205 0.313691382,3.92596205 C0.231286199,3.92481639 0.150435831,3.95689468 0.0915472214,4.0136045 C0.0328529638,4.07069621 -0.000575554021,4.1499372 7.50195618e-06,4.23108762 L0.0122516683,6.2474369 C0.0134177792,6.41546602 0.151796294,6.56325525 0.322437216,6.56325525 L0.537973413,6.56325525 C0.840190533,6.56325525 1.40419959,6.55046212 1.83779856,6.55886354 C1.90193467,7.94395801 1.91709411,10.0196903 1.91709411,11.6302875 C1.91709411,12.3092778 1.91417884,12.9010076 1.91184662,13.3271905 C1.9102918,13.5397091 1.90912569,13.7086929 1.90795958,13.8259314 C1.90698782,13.942979 1.90640476,14.005608 1.90640476,14.0059899 C1.90562735,14.0869493 1.93788976,14.1650447 1.99638967,14.2227093 C2.05469522,14.2799919 2.13437948,14.3120702 2.21697902,14.3116883 L4.96394802,14.2981314 C5.04654757,14.2977495 5.12428828,14.2652894 5.18220513,14.2074338 C5.24031635,14.1497693 5.27199568,14.0728196 5.27121828,13.9914782 C5.27121828,13.9914782 5.25683623,12.3319999 5.23992765,10.5419171 C5.2255456,9.00254138 5.20960875,7.3688402 5.20047419,6.60793568 C5.36994901,6.60507154 5.56741048,6.60392592 5.75943013,6.60411688 C5.98390651,6.60411688 6.202358,6.60545344 6.36444739,6.60679006 C6.44529777,6.60736287 6.51234917,6.60812663 6.55879925,6.60869944 C6.60563808,6.6092723 6.63168122,6.60946325 6.63168122,6.60946325 C6.71428072,6.61060887 6.79377067,6.57910342 6.85265924,6.52220267 C6.91154787,6.46530192 6.94478205,6.38777938 6.94497638,6.30662898 L6.94847474,4.43902364 C6.94866907,4.35787323 6.91621233,4.25380974 6.85771241,4.19671803 C6.79940686,4.13962633 6.7208887,4.08119803 6.63809482,4.08119803 L6.53547702,4.08119803 C6.4697861,4.08119803 6.37630286,4.1086937 6.26416186,4.1086937 C5.91957602,4.1086937 5.39832441,4.12072305 4.98590977,4.11384914 C4.99329514,3.90667689 5.01234161,3.73043727 5.04343791,3.57424658 C5.07336811,3.42225661 5.1145707,3.29909892 5.16315866,3.19770863 C5.19969679,3.12171365 5.24031635,3.06175781 5.28385115,3.01154002 C5.34993077,2.9363088 5.42145226,2.88551819 5.51357502,2.84771164 C5.60550346,2.81028698 5.72114282,2.78794674 5.86923892,2.7877558 C6.13219699,2.78699203 6.4933027,2.8633689 6.94555946,3.0350259 C6.94886344,3.0363625 6.95255613,3.03674438 6.95605444,3.03808098 C6.95974713,3.03922663 6.96266241,3.04132699 6.9663551,3.04228171 C6.97296307,3.04438207 6.979571,3.04457301 6.98617897,3.04610055 C6.99667395,3.0485828 7.00697461,3.0508741 7.01727527,3.0522107 C7.02738156,3.05335635 7.03729352,3.05373824 7.0470111,3.05412012 C7.05731176,3.05431106 7.06722372,3.054502 7.07752433,3.05392918 C7.08763066,3.05316541 7.09734824,3.05182882 7.10687145,3.05011034 C7.11678341,3.0485828 7.12669537,3.04667337 7.13621862,3.04419113 C7.14554751,3.04170888 7.15487639,3.03846286 7.16381657,3.0350259 C7.17333982,3.03177989 7.18266871,3.02815199 7.19160889,3.02376032 C7.20035469,3.01955959 7.20851747,3.01478603 7.21687462,3.00982154 C7.2254261,3.0046661 7.23397758,2.99912878 7.24214036,2.99320957 C7.24991443,2.98767225 7.25691111,2.98137115 7.26390778,2.97487912 C7.27168186,2.96800521 7.27906723,2.96113129 7.28567515,2.95368454 C7.29228313,2.94642874 7.2981137,2.93879105 7.30413859,2.93096242 C7.31016349,2.92294286 7.31618843,2.91473234 7.32143592,2.905949 C7.32648904,2.89754755 7.33095913,2.88819138 7.33542922,2.87883521 C7.33834451,2.87272506 7.34203719,2.86718774 7.34456378,2.86069571 C7.34611858,2.85725875 7.34650728,2.85363085 7.34786776,2.849812 C7.34883954,2.84656599 7.35097737,2.84370185 7.35194915,2.84026489 C7.41433609,2.63824809 7.52142397,2.29970763 7.61335236,1.94245484 C7.65921941,1.76335109 7.70178248,1.57928284 7.73326749,1.40189757 C7.76455812,1.22432135 7.78574247,1.05476471 7.78593684,0.8966646 C7.78554814,0.826779765 7.78127238,0.7589953 7.77019431,0.691401772 L7.77019431,0.691401772 Z" id="Shape"></path>
                </g>
            </g>
        </g>
    </g>
</svg>