<?xml version="1.0" encoding="UTF-8"?>
<svg width="357px" height="358px" viewBox="0 0 357 358" version="1.1" xmlns="http://www.w3.org/2000/svg" xmlns:xlink="http://www.w3.org/1999/xlink">
    <!-- Generator: Sketch 42 (36781) - http://www.bohemiancoding.com/sketch -->
    <title>Group</title>
    <desc>Created with Sketch.</desc>
    <defs>
        <ellipse id="path-1" cx="187.357743" cy="186.020566" rx="178.280449" ry="178.282275"></ellipse>
        <mask id="mask-2" maskContentUnits="userSpaceOnUse" maskUnits="objectBoundingBox" x="0" y="0" width="356.560898" height="356.564549" fill="white">
            <use xlink:href="#path-1"></use>
        </mask>
    </defs>
    <g id="Page-1" stroke="none" stroke-width="1" fill="none" fill-rule="evenodd">
        <g id="Home" transform="translate(-422.000000, -297.000000)">
            <g id="Group" transform="translate(413.000000, 290.000000)">
                <g id="Circle">
                    <ellipse id="Combined-Shape" cx="186.938376" cy="186.840394" rx="186.747644" ry="186.747089"></ellipse>
                    <use id="Combined-Shape" stroke="#FFFFFF" mask="url(#mask-2)" stroke-width="10" xlink:href="#path-1"></use>
                </g>
                <g id="logo" transform="translate(65.143443, 77.405738)">
                    <g id="Group-3" transform="translate(0.000000, 141.782787)">
                        <g id="Group-4" fill="#FFFFFF">
                            <path d="M98.5424439,7.63827821 L5.28808686,10.5636234 C2.35816603,10.6555336 0,8.36280868 0,5.44333687 L0,5.28617133 C0,2.36791882 2.36755713,0 5.28808686,0 L121.856557,0 L238.425028,0 C241.345558,0 243.713115,2.36791882 243.713115,5.28617133 L243.713115,5.44333687 C243.713115,8.36280868 241.354949,10.6555336 238.425028,10.5636234 L144.989161,7.63258434 C142.480141,7.69607518 138.745444,8.06343096 136.80123,9.57991803 C133.705794,11.9943577 131.819672,22.6086066 131.819672,22.6086066 L131.801528,22.5665451 C131.557309,24.7958155 131.436475,26.6106594 131.436475,27.5810293 C131.436475,30.6502569 135.143739,36.0204918 135.143739,36.0204918 C135.143739,36.0204918 137.184426,39.852459 136.034836,43.6844262 C135.276155,46.2133626 132.193746,49.7836283 131.053279,51.7224228 C127.221311,58.236767 130.670082,63.9847179 133.352459,66.2838982 C136.034836,68.5830785 152.338401,70.4972721 157.571981,72.4241803 C162.805561,74.3510886 164.77459,78.1629965 162.938587,78.1629965 C161.257286,78.1629965 127.562006,77.6298337 121.895622,77.5399852 C116.229237,77.6298337 82.5339574,78.1629965 80.852656,78.1629965 C79.0166532,78.1629965 80.9856824,74.3510886 86.2192623,72.4241803 C91.4528422,70.4972721 107.756407,68.5830785 110.438784,66.2838982 C113.121161,63.9847179 116.569932,58.236767 112.737965,51.7224228 C111.597497,49.7836283 108.515088,46.2133626 107.756407,43.6844262 C106.606817,39.852459 108.647504,36.0204918 108.647504,36.0204918 C108.647504,36.0204918 112.354768,30.6502569 112.354768,27.5810293 C112.354768,26.5888086 112.228431,24.713654 111.97303,22.4153235 L111.893443,22.6086066 C111.893443,22.6086066 109.624124,11.9943577 106.528689,9.57991803 C104.635919,8.10355769 101.046166,7.71632044 98.5424439,7.63827821 Z" id="Combined-Shape"></path>
                        </g>
                        <g id="Group-5" transform="translate(79.704918, 3.065574)"></g>
                    </g>
                    <g id="Text" fill="#FFFFFF">
                        <path d="M75.0224084,77.8822929 C75.2485511,77.2734863 75.4957838,76.6224994 75.7641081,75.9293281 L82.0939051,58.9313341 L91.9797677,58.9313341 L84.4409084,79.5565151 C83.7771062,81.4056785 83.2081414,83.1481333 82.7339969,84.7839317 C82.2598524,86.4197301 82.0227838,87.59322 82.0227838,88.3044367 C82.0227838,89.1578968 82.1887318,89.7624219 82.520633,90.1180302 C82.8525341,90.4736386 83.2792577,90.6514401 83.8008166,90.6514401 C84.4172044,90.6514401 85.1284104,90.3788111 85.934456,89.833545 C86.7405016,89.2882788 87.5583885,88.5415125 88.3881413,87.5932236 C89.2178942,86.6449347 90.0239277,85.5188585 90.806266,84.2149612 C91.5886044,82.9110639 92.2642501,81.4767984 92.8332235,79.9121217 L100.727689,58.9313341 L110.613552,58.9313341 L96.6737744,96.981237 C95.678071,99.6838605 94.4453139,102.042694 92.9754661,104.057808 C91.5056183,106.072922 89.8698444,107.744256 88.0680954,109.07186 C86.2663465,110.399465 84.3579436,111.395153 82.3428297,112.058956 C80.3277157,112.722758 78.3007785,113.054654 76.2619573,113.054654 C74.6024517,113.054654 73.1563328,112.817585 71.9235572,112.343441 C70.6907816,111.869296 69.6476794,111.252918 68.7942194,110.494287 C67.9407594,109.735655 67.3006739,108.858501 66.8739439,107.862798 C66.4472139,106.867095 66.2338521,105.823992 66.2338521,104.73346 C66.2338521,102.836882 66.8976444,101.058867 68.2252489,99.3993617 C69.5528534,97.7398561 71.6864715,96.5545127 74.6261671,95.843296 L75.1951376,97.4079649 C72.8244153,97.9769383 71.093814,98.9015061 70.0032817,100.181696 C68.9127495,101.461886 68.3674915,102.789471 68.3674915,104.16449 C68.3674915,105.492094 68.8653357,106.665584 69.8610391,107.684995 C70.8567425,108.704405 72.2554477,109.214103 74.0571966,109.214103 C76.75982,109.214103 79.0830931,108.301389 81.0270854,106.475932 C82.9710777,104.650476 84.7253859,101.746385 86.2900626,97.7635715 L89.9172496,88.5178007 C88.4474018,90.461793 86.9420157,91.8249379 85.4010462,92.6072762 C83.8600767,93.3896146 82.1176219,93.7807779 80.1736296,93.7807779 C79.1305118,93.7807779 78.1585302,93.6503901 77.2576557,93.3896107 C76.3567813,93.1288312 75.5626012,92.7258145 74.8750917,92.1805483 C74.1875822,91.6352822 73.6423243,90.9359296 73.2393015,90.0824696 C72.8362787,89.2290095 72.6347703,88.2096142 72.6347703,87.0242531 C72.6347703,86.3604508 72.6940375,85.6848051 72.8125736,84.9972956 C72.8249837,84.9253174 72.8381732,84.8524298 72.8521423,84.7786328 C68.3681118,90.7800858 63.3132409,93.7807779 57.6874404,93.7807779 C56.7865659,93.7807779 55.9094118,93.6503901 55.0559518,93.3896107 C54.2024918,93.1288312 53.4320186,92.7258145 52.7445091,92.1805483 C52.0569996,91.6352822 51.4998883,90.9359296 51.0731582,90.0824696 C50.6464282,89.2290095 50.4330664,88.2096142 50.4330664,87.0242531 C50.4330664,86.3368368 50.4952893,85.6260917 50.619736,84.892013 C49.1392776,87.0091552 47.662535,88.7511545 46.1894942,90.1180302 C43.5579925,92.5598742 40.5590737,93.7807779 37.192648,93.7807779 C36.1495302,93.7807779 35.1775486,93.6503901 34.2766742,93.3896107 C33.3757997,93.1288312 32.5816196,92.7258145 31.8941101,92.1805483 C31.2066007,91.6352822 30.6613427,90.9359296 30.2583199,90.0824696 C29.8552971,89.2290095 29.6537888,88.2096142 29.6537888,87.0242531 C29.6537888,86.4552797 29.7012025,85.8507546 29.7960314,85.2106596 C29.8173842,85.0665279 29.842944,84.9169878 29.8727107,84.7620389 C29.831469,84.8168736 29.7901043,84.8715854 29.7486167,84.9261743 C28.397305,86.7042161 26.8919189,88.2451624 25.2324133,89.5490597 C23.5729077,90.852957 21.723772,91.8842057 19.6849508,92.6428369 C17.6461296,93.401468 15.3939772,93.7807779 12.928426,93.7807779 C11.3163348,93.7807779 9.79909531,93.591123 8.37666192,93.2118074 C6.95422853,92.8324918 5.70961799,92.1924064 4.64279294,91.2915319 C3.5759679,90.3906574 2.73437411,89.2171675 2.1179863,87.7710269 C1.5015985,86.3248863 1.19340922,84.5350178 1.19340922,82.4013677 C1.19340922,79.2245998 1.79793435,76.1308536 3.00700273,73.1200362 C4.21607111,70.1092189 5.80443123,67.4303429 7.77213075,65.0833278 C9.73983027,62.7363127 11.9919827,60.8516167 14.5286556,59.4291833 C17.0653284,58.0067499 19.6612304,57.2955439 22.3164394,57.2955439 C25.2087207,57.2955439 27.377899,57.9948965 28.8240396,59.3936227 C30.2701803,60.7923488 30.9932397,62.4873899 30.9932397,64.4787966 C30.9932397,65.1900133 30.8628519,65.865659 30.6020725,66.505754 C30.341293,67.1458491 29.9619832,67.7266673 29.4641315,68.2482262 C28.9662798,68.7697851 28.3736081,69.1846553 27.6860986,69.4928492 C26.9985891,69.8010431 26.2518228,69.9551378 25.4457772,69.9551378 C24.1655872,69.9551378 23.0869247,69.5402676 22.2097575,68.7105148 C21.3325902,67.880762 20.7991857,66.8258064 20.6095279,65.5456163 L26.7970822,61.1360949 C26.3703522,60.5197071 25.872508,60.1048369 25.3035346,59.8914719 C24.7345613,59.6781069 24.1181827,59.5714259 23.4543804,59.5714259 C21.9371182,59.5714259 20.4435855,60.3300457 18.9737377,61.847308 C17.5038898,63.3645703 16.1763053,65.2611197 14.9909441,67.5370131 C13.8055829,69.8129065 12.8573082,72.2665673 12.1460916,74.8980691 C11.4348749,77.5295708 11.0792718,79.9832316 11.0792718,82.2591251 C11.0792718,84.487604 11.5889695,86.3367397 12.6083801,87.8065875 C13.6277907,89.2764354 15.2042974,90.0113483 17.3379475,90.0113483 C20.0879853,90.0113483 22.6601805,89.0275133 25.05461,87.0598137 C27.4490395,85.0921142 29.5470973,82.4725054 31.3488463,79.2009086 C31.6173189,78.6937937 31.8857889,78.1819918 32.1542597,77.6654968 C32.3512167,77.1193419 32.5608387,76.5406198 32.7831266,75.9293281 L39.1129235,58.9313341 L48.9987861,58.9313341 L41.4599269,79.5565151 C40.7961246,81.4056785 40.2271598,83.1718402 39.7530153,84.855053 C39.2788709,86.5382659 39.0418022,87.853997 39.0418022,88.8022859 C39.0418022,90.0350615 39.7055945,90.6514401 41.033199,90.6514401 C42.2659746,90.6514401 43.8780416,89.7150188 45.8694483,87.8421482 C47.8608551,85.9692776 49.9233525,83.0888932 52.0570026,79.2009086 C52.3949725,78.562521 52.7329384,77.9167057 53.0709067,77.2634506 C53.2286493,76.8328262 53.3924817,76.3881188 53.5624042,75.9293281 L58.730368,61.2441561 L53.7757682,61.0649735 L54.6292239,58.9313341 L59.4633069,58.9473536 L61.285541,53.9332302 L72.3384311,52.0325667 L69.7780638,58.9313341 L79.3083198,58.9313341 L78.4548641,61.0649735 L68.9957293,61.0649735 L62.2392045,79.5565151 C61.5754023,81.4056785 61.0301443,83.0414524 60.6034143,84.4638858 C60.1766843,85.8863192 59.9633225,86.9294213 59.9633225,87.5932236 C59.9633225,88.4940981 60.1885377,89.1223301 60.6389749,89.4779384 C61.0894122,89.8335468 61.7176442,90.0113483 62.5236898,90.0113483 C63.187492,90.0113483 63.9816721,89.8098399 64.9062538,89.4068171 C65.8308355,89.0037943 66.8146705,88.3755623 67.8577883,87.5221023 C68.9009061,86.6686422 69.9677152,85.5544195 71.0582474,84.1794005 C72.1487797,82.8043816 73.2392956,81.1449009 74.3298279,79.2009086 C74.5606892,78.7648371 74.7915487,78.3252998 75.0224084,77.8822929 Z M42.17114,47.9075305 C42.17114,46.2480249 42.7163979,44.8137594 43.8069302,43.604691 C44.8974625,42.3956226 46.3198745,41.7910975 48.074209,41.7910975 C49.5440569,41.7910975 50.7649606,42.2889417 51.7369567,43.2846451 C52.7089529,44.2803485 53.1949436,45.5131056 53.1949436,46.9829534 C53.1949436,47.788999 53.0289956,48.5476188 52.6970944,49.2588354 C52.3651933,49.9700521 51.9147628,50.5864307 51.3457895,51.1079896 C50.7768161,51.6295485 50.1248773,52.0444187 49.3899533,52.3526126 C48.6550294,52.6608065 47.9082631,52.8149011 47.149632,52.8149011 C45.6797841,52.8149011 44.4825873,52.3407638 43.5580056,51.3924749 C42.6334239,50.4441859 42.17114,49.2825494 42.17114,47.9075305 Z" id="city" transform="translate(55.903481, 77.422876) rotate(1.000000) translate(-55.903481, -77.422876) "></path>
                        <g id="Group-2" transform="translate(95.799180, 73.573770)">
                            <path d="M124.199843,31.30941 C123.476261,32.8011767 122.463632,35.1027335 121.654924,36.5518784 C120.675961,38.3419985 119.558683,40.0255385 118.303057,41.6025491 C117.047431,43.1795597 115.642853,44.5647509 114.089282,45.7581643 C112.53571,46.9515777 110.801269,47.8999009 108.885907,48.6031623 C106.970545,49.3064238 104.88496,49.6580493 102.629089,49.6580493 C98.8834925,49.6580493 96.0424147,48.8162792 94.1057709,47.1327139 C92.1691271,45.4491486 91.2008197,42.7959746 91.2008197,39.1731125 C91.2008197,36.5731762 91.7115752,33.9519682 92.7331016,31.30941 C93.7546281,28.6668518 95.1698466,26.2800608 96.9787996,24.1489654 C98.7877526,22.0178701 100.90526,20.2703981 103.331385,18.906497 C105.75751,17.542596 108.375133,16.8606557 111.18433,16.8606557 C114.078655,16.8606557 116.16424,17.4253875 117.441148,18.5548681 C118.718056,19.6843486 119.356501,21.0588845 119.356501,22.678517 C119.356501,24.2981494 118.962793,25.8218598 118.175367,27.2496936 C117.38794,28.6775275 116.185537,29.9561656 114.56812,31.0856461 C112.950703,32.2151266 110.928962,33.1208286 108.502837,33.8027791 C106.076712,34.4847296 103.246275,34.8896317 100.011441,35.0174974 C99.8411866,35.656826 99.7241384,36.2854897 99.660293,36.9035073 C99.5964476,37.521525 99.5645254,38.0862568 99.5645254,38.5977197 C99.5645254,41.3255217 100.181688,43.2861 101.416033,44.4795134 C102.650377,45.6729268 104.182644,46.2696246 106.012879,46.2696246 C107.20466,46.2696246 108.438985,46.0458629 109.715893,45.5983329 C110.992801,45.1508029 112.237768,44.5114839 113.450831,43.6803567 C114.663893,42.8492295 115.813093,41.8369744 116.898465,40.643561 C117.983837,39.4501476 118.952144,38.086267 119.803416,36.5518784 C120.186489,35.8273059 121.271851,34.1037711 121.654924,33.3578877 C122.037996,32.6120043 124.199843,31.30941 124.199843,31.30941 Z M110.714378,18.8379508 C109.948233,18.8379508 109.107615,19.2535082 108.192497,20.0846354 C107.27738,20.9157626 106.372917,22.0026049 105.479081,23.345195 C104.585246,24.687785 103.755268,26.1901847 102.989123,27.8524391 C102.222978,29.5146935 101.584534,31.1556123 101.07377,32.7752448 C102.776315,32.5195133 104.319222,31.9760921 105.702539,31.144965 C107.085856,30.3138378 108.245697,29.3335486 109.182096,28.2040681 C110.118495,27.0745875 110.842065,25.8705367 111.352829,24.5918795 C111.863592,23.3132223 112.11897,22.1198268 112.11897,21.0116572 C112.11897,19.5625124 111.650777,18.8379508 110.714378,18.8379508 Z" id="Combined-Shape"></path>
                            <path d="M119.763266,36.5518784 C119.933521,36.2109031 120.125054,35.837967 120.337872,35.4330589 C120.55069,35.0281508 120.795427,34.5486615 121.072091,33.9945767 C121.348754,33.4404919 121.536008,32.8864164 121.919081,32.140533 C122.302153,31.3946497 122.891673,30.3717383 123.402436,29.2635687 C124.423962,27.2177171 125.349707,25.4169686 126.179697,23.861269 C127.009687,22.3055694 127.935432,21.016276 128.956958,19.9933502 C129.978485,18.9704245 131.159607,18.1925863 132.50036,17.6598125 C133.841114,17.1270387 135.532991,16.8606557 137.576044,16.8606557 C139.661661,16.8606557 141.449305,17.1163833 142.939031,17.6278462 C144.428757,18.1393091 145.663083,18.9491132 146.642046,20.0572828 L145.428989,21.4637987 C144.833099,20.867092 144.215936,20.398258 143.577482,20.0572828 C142.939028,19.7163075 142.194176,19.5458225 141.342904,19.5458225 C140.10856,19.5458225 139.182815,19.9400692 138.565643,20.7285745 C137.948471,21.5170797 137.639889,22.635888 137.639889,24.0850329 C137.639889,25.1505805 137.725015,26.2693888 137.89527,27.4414913 C138.065524,28.6135937 138.246417,29.8282998 138.437953,31.0856461 C138.629489,32.3429924 138.810382,33.6322857 138.980636,34.9535648 C139.15089,36.274844 139.236016,37.5961033 139.236016,38.9173824 C139.236016,40.3239053 138.948716,41.6664752 138.374108,42.9451325 C137.799499,44.2237897 136.958881,45.3639086 135.852227,46.3655234 C134.745573,47.3671382 133.40484,48.166287 131.829987,48.7629937 C130.255134,49.3597004 128.467489,49.6580493 126.467,49.6580493 C124.849583,49.6580493 123.476928,49.4449429 122.348992,49.0187239 C121.221057,48.5925048 120.305953,48.027773 119.603654,47.3245115 C118.901354,46.62125 118.379958,45.8327566 118.039449,44.9590075 C117.69894,44.0852584 117.528689,43.2221777 117.528689,42.3697396 C117.528689,41.0058386 117.869192,39.7698218 118.55021,38.6616522 L119.763266,38.9173824 C119.380194,39.8124424 119.252506,41.24026 119.252506,42.177942 C119.252506,43.541843 119.688776,44.7352385 120.56133,45.7581643 C121.433884,46.78109 122.700132,47.2925452 124.360112,47.2925452 C126.318038,47.2925452 127.78646,46.6212603 128.765423,45.2786702 C129.744386,43.9360801 130.23386,42.2418847 130.23386,40.1960332 C130.23386,38.7468884 130.159375,37.3936631 130.010402,36.1363168 C129.861429,34.8789706 129.701818,33.6749198 129.531564,32.5241283 C129.36131,31.3733368 129.201698,30.2545285 129.052726,29.1676699 C128.903753,28.0808112 128.829268,26.962003 128.829268,25.8112115 C128.829268,25.2145048 128.925035,24.4686326 129.116571,23.5735725 C129.308107,22.6785125 129.616689,21.9113297 130.042325,21.2720011 C129.403871,21.9113297 128.829271,22.6039253 128.318507,23.3498086 C127.807744,24.095692 127.328911,24.9161514 126.881993,25.8112115 C126.435075,26.7062715 125.977523,27.6759054 125.509324,28.7201421 C125.041124,29.7643788 124.160463,31.288093 123.564573,32.5241283 C122.840991,34.015895 122.069592,35.1027335 121.260884,36.5518784 L119.763266,36.5518784 Z" id="Path"></path>
                            <path d="M62.0858661,43.3384189 C61.1298091,44.5622604 60.1737509,45.6095285 59.2176871,46.4802295 C56.8142652,48.6690601 54.1104562,49.763459 51.1061789,49.763459 C49.389449,49.763459 47.9302505,49.2913654 46.7285395,48.3471639 C45.5268286,47.4029625 44.9259822,45.83647 44.9259822,43.6476393 L44.9259822,43.2291885 C44.9259822,43.0789747 44.947441,42.9394924 44.9903592,42.8107377 C44.1319943,44.1841216 43.2843716,45.3214381 42.4474658,46.2227213 C41.6105599,47.1240045 40.7736667,47.832145 39.9367609,48.3471639 C39.099855,48.8621829 38.2629618,49.2269825 37.4260559,49.4415738 C36.5891501,49.656165 35.7415274,49.763459 34.8831625,49.763459 C33.6814516,49.763459 32.6192409,49.5274122 31.6964986,49.0553115 C30.7737562,48.5832108 29.99051,47.9394467 29.3467363,47.124 C28.7029626,46.3085533 28.2094101,45.3429072 27.8660641,44.2270328 C27.5227182,43.1111584 27.3510477,41.9094655 27.3510477,40.621918 C27.3510477,40.3373317 27.3584917,40.0502647 27.3733795,39.7607169 C26.9219161,40.4421958 26.4515711,41.1047945 25.9623425,41.7485164 C24.7391724,43.3579507 23.3765385,44.7527728 21.8743998,45.9330246 C20.3722612,47.1132764 18.6984746,48.0467343 16.85299,48.7334262 C15.0075054,49.4201182 12.9689192,49.763459 10.7371703,49.763459 C9.27794992,49.763459 7.9045866,49.5917886 6.61703918,49.2484426 C5.32949176,48.9050966 4.20290466,48.325709 3.2372441,47.5102623 C2.27158353,46.6948156 1.50979607,45.6326049 0.951858851,44.3235984 C0.393921635,43.0145918 0.114957212,41.3944523 0.114957212,39.4631311 C0.114957212,36.5876086 0.662156658,33.7872349 1.75657197,31.0619262 C2.85098727,28.3366175 4.288727,25.9117729 6.06983426,23.7873197 C7.85094153,21.6628664 9.8895277,19.9568917 12.1856539,18.6693443 C14.4817802,17.3817968 16.831519,16.7380328 19.2349408,16.7380328 C21.8529539,16.7380328 23.8164343,17.3710674 25.1254408,18.6371557 C26.4344474,19.903244 27.0889408,21.4375484 27.0889408,23.2401148 C27.0889408,23.8838885 26.9709174,24.4954643 26.734867,25.0748607 C26.4988167,25.654257 26.1554759,26.1799976 25.7048343,26.6520984 C25.2541927,27.1241991 24.7177226,27.4997281 24.095408,27.7786967 C23.4730934,28.0576653 22.7971412,28.1971475 22.067531,28.1971475 C20.9087383,28.1971475 19.9323628,27.8216185 19.1383752,27.0705492 C18.3443877,26.3194799 17.8615646,25.3645632 17.6898916,24.2057705 L23.2906949,20.2143934 C22.9044307,19.6564562 22.4537959,19.2809272 21.9387769,19.0877951 C21.4237579,18.894663 20.8658291,18.7980984 20.2649736,18.7980984 C18.8915897,18.7980984 17.5396852,19.48478 16.2092195,20.8581639 C14.8787538,22.2315479 13.6770609,23.948252 12.6041048,26.0083279 C11.5311486,28.0684037 10.6727965,30.2893897 10.0290228,32.6713525 C9.38524908,35.0533152 9.06336705,37.2743012 9.06336705,39.334377 C9.06336705,41.3515347 9.52473129,43.0253212 10.4474736,44.3557869 C11.3702159,45.6862526 12.7972262,46.3514754 14.7285474,46.3514754 C17.2178057,46.3514754 19.5460857,45.4609351 21.7134572,43.6798279 C23.8808287,41.8987206 25.7799327,39.527523 27.4108261,36.5661639 C27.6771316,36.0631424 27.9434344,35.5550261 28.2097382,35.0418077 C28.7199123,33.3012714 29.4315202,31.5991267 30.3445805,29.9353279 C31.3102411,28.1756797 32.458287,26.4911638 33.7887527,24.8817295 C35.1192183,23.2722952 36.610605,21.8667437 38.2629576,20.6650328 C39.9153101,19.4633219 41.6856612,18.5084052 43.5740641,17.8002541 C45.462467,17.092103 47.4581356,16.7380328 49.5611297,16.7380328 C52.565407,16.7380328 54.9151458,17.3496086 56.6104166,18.5727787 C58.3056874,19.7959487 59.15331,21.5233823 59.15331,23.7551311 C59.15331,24.8280873 58.9172632,26.0726978 58.4451625,27.489 L55.0331789,37.0811803 C54.4323234,38.754992 53.9065828,40.3536727 53.4559412,41.8772705 C53.0052996,43.4008683 52.7799822,44.5918318 52.7799822,45.4501967 C52.7799822,45.9222974 52.8658174,46.2870971 53.0374904,46.5446066 C53.2091633,46.802116 53.6383394,46.9308689 54.3250313,46.9308689 C55.4409058,46.9308689 56.9430219,46.0832462 58.8314248,44.3879754 C60.7198277,42.6927046 62.629661,40.0854602 64.5609822,36.5661639 C64.5918505,36.5078571 64.6227188,36.4494818 64.653587,36.3910381 L77.3183678,2.12444262 L86.9105481,0.257508197 L75.7089415,30.9009836 L77.3827448,30.9009836 C79.314066,30.9009836 81.0200407,30.7293132 82.5007202,30.3859672 C83.9813998,30.0426212 85.2474691,29.5597982 86.2989661,28.9374836 C87.3504632,28.315169 88.2302741,27.5855698 88.9384251,26.7486639 C89.6465762,25.9117581 90.2152345,24.9783002 90.644417,23.9482623 L84.5285973,21.0512951 C84.5285973,20.5362761 84.6251619,20.0319943 84.818294,19.5384344 C85.0114261,19.0448746 85.3011199,18.5835103 85.6873842,18.1543279 C86.0736484,17.7251454 86.5350126,17.3818046 87.0714907,17.1242951 C87.6079688,16.8667856 88.2410035,16.7380328 88.9706137,16.7380328 C90.1723246,16.7380328 91.1808883,17.1242912 91.996335,17.8968197 C92.8117817,18.6693481 93.2194989,19.8066646 93.2194989,21.3088033 C93.2194989,22.3388412 93.0156403,23.4117813 92.607917,24.5276557 C92.2001936,25.6435302 91.5671589,26.6950115 90.708794,27.6821311 C89.8504291,28.6692508 88.7667596,29.5597911 87.457753,30.3537787 C86.1487465,31.1477663 84.5715245,31.7593421 82.7260399,32.1885246 L88.5843514,48.2827869 L78.7346629,48.2827869 L74.4857776,34.3129672 L69.3999907,48.2827869 L60.2584497,48.2827869 L62.0858661,43.3384189 Z M37.9732609,46.8664918 C38.874544,46.8664918 39.7758137,46.4051276 40.6770969,45.4823852 C41.5783801,44.5596429 42.4260028,43.4223264 43.2199904,42.0704016 C44.0139779,40.7184768 44.7543066,39.2914665 45.4409986,37.7893279 C46.1276905,36.2871892 46.6856194,34.9567435 47.1148018,33.7979508 L50.2049002,25.4933115 C50.8915922,23.6049086 51.234933,22.1457101 51.234933,21.1156721 C51.234933,20.2573072 51.0310744,19.6457313 50.623351,19.2809262 C50.2156277,18.9161211 49.6469694,18.7337213 48.9173592,18.7337213 C48.016076,18.7337213 47.0718887,19.205815 46.084769,20.1500164 C45.0976494,21.0942178 44.1212739,22.3066401 43.1556133,23.7873197 C42.1899527,25.2679992 41.2564949,26.9310563 40.3552117,28.776541 C39.4539285,30.6220256 38.6706822,32.4674826 38.0054494,34.3129672 C37.3402165,36.1584519 36.8037465,37.8966148 36.3960231,39.5275082 C35.9882998,41.1584016 35.7844412,42.4888473 35.7844412,43.5188852 C35.7844412,43.8622312 35.8059,44.2270309 35.8488182,44.6132951 C35.8917365,44.9995593 35.9883011,45.3643589 36.1385149,45.7077049 C36.2887288,46.0510509 36.5140462,46.3300153 36.814474,46.5446066 C37.1149017,46.7591978 37.5011601,46.8664918 37.9732609,46.8664918 Z" id="cakes"></path>
                        </g>
                        <path d="M187.520695,40.8768009 C187.243751,41.4368858 186.972815,41.9628224 186.719115,42.4168115 C186.082507,43.5793143 185.395665,44.7031628 184.658585,45.7883673 C184.377876,46.792199 184.278281,48.0663604 184.278281,48.9587459 C184.278281,50.5446773 184.786267,51.9323465 185.802254,53.1217951 C186.818241,54.3112437 188.29264,54.905959 190.225494,54.905959 C192.50527,54.905959 194.215077,54.1253951 195.354965,52.5642439 C196.494853,51.0030926 197.064789,49.033098 197.064789,46.6542008 C197.064789,44.9691487 196.978059,43.3956309 196.804598,41.9336004 C196.631137,40.4715699 196.445288,39.0715108 196.247047,37.7333811 C196.048806,36.3952515 195.862957,35.0943116 195.689496,33.8305225 C195.516034,32.5667334 195.429305,31.2657936 195.429305,29.9276639 C195.429305,29.2338189 195.540814,28.3665257 195.763836,27.3257582 C195.986857,26.2849907 196.346165,25.3929177 196.841768,24.6495123 C196.098363,25.3929177 195.429308,26.1982614 194.834584,27.0655676 C194.23986,27.9328739 193.682314,28.8868964 193.16193,29.9276639 C192.641546,30.9684314 192.108781,32.0959126 191.563617,33.3101414 C191.018453,34.5243701 189.993025,36.2961308 189.29918,37.7333811 C188.730467,38.904262 188.136384,39.8606069 187.520695,40.8768009 Z M182.273939,48.9502454 C180.952979,50.5127349 179.498279,51.9032405 177.909806,53.1217951 C176.100853,54.5094851 174.081299,55.6121865 171.851083,56.4299324 C169.620867,57.2476783 167.192446,57.6565451 164.565747,57.6565451 C160.204435,57.6565451 156.896331,56.6777427 154.641335,54.7201086 C152.386339,52.7624745 151.258857,49.6773885 151.258857,45.4647582 C151.258857,42.4415764 151.853573,39.3936602 153.043021,36.320918 C154.23247,33.2481759 155.880327,30.4728375 157.986642,27.9948197 C160.092957,25.5168018 162.558548,23.4848577 165.383488,21.8989262 C168.208429,20.3129948 171.256345,19.520041 174.527329,19.520041 C177.897433,19.520041 180.325854,20.1767059 181.812665,21.4900553 C183.299475,22.8034048 184.04287,24.4017023 184.04287,26.2849959 C184.04287,28.1682895 183.584443,29.9400457 182.667577,31.6003176 C181.75071,33.2605896 180.350651,34.747378 178.467357,36.0607275 C176.584064,37.3740769 174.229982,38.4272187 171.405042,39.2201844 C168.580101,40.0131501 165.284387,40.4839665 161.5178,40.6326475 C161.319558,41.3760529 161.18327,42.1070572 161.108929,42.8256824 C161.034588,43.5443076 160.997419,44.2009724 160.997419,44.7956967 C160.997419,47.9675596 161.716033,50.2473018 163.153284,51.6349918 C164.590534,53.0226818 166.37468,53.7165164 168.505775,53.7165164 C169.893465,53.7165164 171.330694,53.4563284 172.817505,52.9359447 C174.304316,52.4155609 175.753934,51.6721667 177.166404,50.7057398 C178.578875,49.7393128 179.916984,48.562272 181.180773,47.174582 C182.444562,45.786892 183.572044,44.2009843 184.563251,42.4168115 C185.009294,41.5742854 186.273072,39.5701751 186.719115,38.7028689 C186.735719,38.6705836 186.755193,38.6374013 186.7773,38.6034335 C186.945998,38.2101441 187.126981,37.7855378 187.383197,37.2873402 C187.82924,36.4200339 188.515667,35.2306021 189.110391,33.9420328 C190.29984,31.5631356 191.377761,29.469242 192.344188,27.6602889 C193.310615,25.8513359 194.388537,24.3521576 195.577985,23.162709 C196.767434,21.9732604 198.142713,21.0687975 199.703865,20.449293 C201.265016,19.8297886 203.23501,19.520041 205.613908,19.520041 C208.042365,19.520041 210.123869,19.8173987 211.858481,20.412123 C213.593094,21.0068472 215.030323,21.9484799 216.170211,23.2370492 L214.757748,24.8725328 C214.063903,24.1786878 213.345288,23.633532 212.601883,23.2370492 C211.858478,22.8405663 210.991184,22.6423279 209.999977,22.6423279 C208.562727,22.6423279 207.484805,23.1007543 206.76618,24.0176209 C206.047555,24.9344875 205.688248,26.2354274 205.688248,27.9204795 C205.688248,29.1594884 205.787367,30.4604283 205.985608,31.8233381 C206.18385,33.1862479 206.394478,34.5986969 206.6175,36.0607275 C206.840521,37.522758 207.05115,39.0219363 207.249391,40.5583074 C207.447633,42.0946784 207.546752,43.6310265 207.546752,45.1673975 C207.546752,46.8028893 207.212224,48.3640172 206.54316,49.8508279 C205.874095,51.3376386 204.895292,52.6633582 203.606723,53.8280266 C202.318154,54.992695 200.757026,55.9219378 198.923293,56.6157828 C197.08956,57.3096278 195.008056,57.6565451 192.678719,57.6565451 C190.795426,57.6565451 189.197128,57.408747 187.883779,56.9131434 C186.570429,56.4175399 185.504897,55.760875 184.687151,54.9431291 C183.869406,54.1253832 183.2623,53.2085304 182.865817,52.192543 C182.469335,51.1765557 182.271096,50.1729735 182.271096,49.1817664 C182.271096,49.1042374 182.272044,49.0270637 182.273939,48.9502454 Z M84.2818171,21.2298648 L93.4999974,21.2298648 L92.6079154,23.4600697 L83.4640753,23.4600697 L71.4209687,55.9467213 L61.0133457,55.9467213 L73.0564523,23.4600697 L67.5552802,23.4600697 L68.4473621,21.2298648 L73.8741941,21.2298648 L76.2530794,14.9109508 C77.2938469,12.0860105 78.5328372,9.74431872 79.9700876,7.88580533 C81.4073379,6.02729194 82.9808556,4.55289343 84.690688,3.46256557 C86.4005203,2.37223772 88.1970563,1.60406371 90.0803498,1.15802049 C91.9636434,0.711977278 93.8469087,0.488959016 95.7302023,0.488959016 C97.0187716,0.488959016 98.2205922,0.674807568 99.3357003,1.04651025 C100.450808,1.41821292 101.429611,1.92619896 102.272137,2.57048361 C103.114663,3.21476825 103.783718,3.99533216 104.279321,4.91219877 C104.774925,5.82906538 105.022723,6.83264755 105.022723,7.92297541 C105.022723,9.75670862 104.465177,11.1319879 103.350069,12.0488545 C102.234961,12.9657211 101.03314,13.4241475 99.7445712,13.4241475 C98.5551226,13.4241475 97.4648111,13.0400605 96.4736039,12.271875 C95.4823968,11.5036895 94.9620209,10.3514284 94.9124605,8.81505738 L100.562313,4.50332787 C100.16583,4.0077243 99.5835046,3.59885749 98.8153191,3.27671516 C98.0471336,2.95457284 97.1922302,2.7935041 96.2505835,2.7935041 C94.4168502,2.7935041 92.8928921,3.33865985 91.6786634,4.4289877 C90.4644346,5.51931556 89.3617332,7.42736069 88.3705261,10.1531803 L84.2818171,21.2298648 Z M96.4859944,57.6565451 C94.5531405,57.6565451 92.8928934,57.3715773 91.5052034,56.8016332 C90.1175134,56.2316891 88.9776423,55.4635151 88.0855559,54.4970881 C87.1934695,53.5306612 86.5368046,52.39079 86.1155415,51.0774406 C85.6942785,49.7640911 85.4836501,48.364032 85.4836501,46.8772213 C85.4836501,44.9443674 85.7810078,42.9248131 86.3757321,40.818498 C86.9704564,38.7121828 87.8129698,36.6430689 88.9032977,34.6110943 C89.9936255,32.5791196 91.3069553,30.6462947 92.8433264,28.8125615 C94.3796974,26.9788283 96.0895041,25.3805307 97.9727977,24.0176209 C99.8560913,22.6547111 101.888035,21.5643996 104.068691,20.7466537 C106.249347,19.9289078 108.553869,19.520041 110.982326,19.520041 C114.848034,19.520041 117.648152,20.5236232 119.382765,22.5308176 C121.117377,24.5380121 121.984671,27.0283827 121.984671,30.0020041 C121.984671,32.9260652 121.328006,36.0111511 120.014656,39.2573545 C118.701307,42.5035579 116.904771,45.4895246 114.624994,48.2153443 C112.345218,50.9411639 109.656609,53.1961263 106.559087,54.9802992 C103.461564,56.764472 100.1039,57.6565451 96.4859944,57.6565451 Z M109.867224,21.8245861 C108.925577,21.8245861 107.909605,22.3697418 106.819277,23.4600697 C105.728949,24.5503975 104.638638,25.9628465 103.54831,27.697459 C102.457982,29.4320715 101.40484,31.3896763 100.388853,33.570332 C99.3728657,35.7509877 98.4807926,37.9563905 97.7126071,40.1866066 C96.9444216,42.4168226 96.3373163,44.5602759 95.8912731,46.6170307 C95.4452299,48.6737856 95.2222116,50.4207619 95.2222116,51.8580123 C95.2222116,53.1465816 95.43284,54.0510445 95.854103,54.5714283 C96.275366,55.091812 96.8576915,55.352 97.6010969,55.352 C98.5427437,55.352 99.5587157,54.8068442 100.649044,53.7165164 C101.739371,52.6261885 102.829683,51.2137395 103.920011,49.479127 C105.010339,47.7445146 106.06348,45.7869098 107.079468,43.6062541 C108.095455,41.4255984 108.987528,39.2201956 109.755714,36.9899795 C110.523899,34.7597634 111.131004,32.6163101 111.577048,30.5595553 C112.023091,28.5028005 112.246109,26.7558241 112.246109,25.3185738 C112.246109,24.0300045 112.035481,23.1255415 111.614218,22.6051578 C111.192955,22.084774 110.610629,21.8245861 109.867224,21.8245861 Z M145.247905,19.520041 C146.536475,19.520041 147.738295,19.7058895 148.853403,20.0775922 C149.968511,20.4492949 150.947314,20.9572809 151.78984,21.6015656 C152.632366,22.2458502 153.301421,23.0264141 153.797024,23.9432807 C154.292628,24.8601473 154.540426,25.8637295 154.540426,26.9540574 C154.540426,28.7877906 153.98288,30.1630699 152.867772,31.0799365 C151.752664,31.9968031 150.550843,32.4552295 149.262274,32.4552295 C148.072826,32.4552295 146.982514,32.0711425 145.991307,31.302957 C145.0001,30.5347714 144.479724,29.3825104 144.430164,27.8461393 L150.080016,23.5344098 C149.683533,23.0388063 149.101208,22.6299395 148.333022,22.3077971 C147.564837,21.9856548 146.709933,21.8245861 145.768287,21.8245861 C144.331036,21.8245861 142.992927,22.3325721 141.753918,23.3485594 C140.514909,24.3645467 139.399817,26.2354222 138.40861,28.9612418 L128.818729,55.9467213 L118.188086,55.9467213 L126.737205,32.5295697 C127.629291,30.0515518 128.756772,27.9824379 130.119682,26.322166 C131.482592,24.661894 132.98177,23.3237845 134.617262,22.3077971 C136.252754,21.2918098 137.98734,20.5731954 139.821073,20.1519324 C141.654807,19.7306693 143.463733,19.520041 145.247905,19.520041 Z M177.244193,21.8245861 C176.352107,21.8245861 175.373305,22.3077923 174.307757,23.2742193 C173.242209,24.2406462 172.189067,25.5044164 171.1483,27.0655676 C170.107532,28.6267189 169.14112,30.3736953 168.249034,32.3065492 C167.356947,34.2394031 166.613553,36.1474482 166.018829,38.0307418 C168.001243,37.7333797 169.797779,37.1014946 171.40849,36.1350676 C173.019202,35.1686407 174.369702,34.0287695 175.460029,32.7154201 C176.550357,31.4020706 177.392871,30.0020115 177.987595,28.5152008 C178.582319,27.0283901 178.879677,25.6407209 178.879677,24.3521516 C178.879677,22.6670995 178.334521,21.8245861 177.244193,21.8245861 Z M218.212778,21.2298648 L223.63961,21.2298648 L225.498114,16.1747336 L236.723478,14.0188689 L234.047232,21.2298648 L244.008814,21.2298648 L243.116732,23.4600697 L233.229491,23.4600697 L226.167175,42.7885123 C225.47333,44.7213662 224.903395,46.4311729 224.457351,47.9179836 C224.011308,49.4047943 223.78829,50.4951058 223.78829,51.1889508 C223.78829,52.1305976 224.023698,52.7872625 224.494521,53.1589652 C224.965345,53.5306678 225.62201,53.7165164 226.464536,53.7165164 C227.158381,53.7165164 227.988504,53.505888 228.954931,53.084625 C229.921358,52.663362 230.94972,52.0066971 232.040048,51.1146107 C233.130376,50.2225242 234.245467,49.0578733 235.385355,47.620623 C236.525244,46.1833726 237.665115,44.4487861 238.805003,42.4168115 C239.251046,41.5742854 239.697083,40.7193821 240.143126,39.8520758 C240.589169,38.9847696 241.010426,38.1298662 241.406909,37.2873402 L243.637114,37.2873402 C242.794588,39.0219527 241.902515,40.7317593 240.960868,42.4168115 C235.410108,52.5766847 228.893019,57.6565451 221.409405,57.6565451 C220.467758,57.6565451 219.550905,57.5202561 218.658819,57.2476742 C217.766732,56.9750922 216.961388,56.5538355 216.242763,55.9838914 C215.524138,55.4139473 214.941813,54.682943 214.495769,53.7908566 C214.049726,52.8987701 213.826708,51.8332384 213.826708,50.5942295 C213.826708,49.0578584 214.124066,47.4100013 214.71879,45.6506086 C215.313514,43.8912159 216.106468,41.6734232 217.097675,38.9971639 L222.821868,23.4600697 L217.320696,23.4600697 L218.212778,21.2298648 Z" id="forest"></path>
                    </g>
                </g>
            </g>
        </g>
    </g>
</svg>