<?xml version="1.0" encoding="UTF-8"?>
<svg width="14px" height="14px" viewBox="0 0 14 14" version="1.1" xmlns="http://www.w3.org/2000/svg" xmlns:xlink="http://www.w3.org/1999/xlink">
    <!-- Generator: Sketch 42 (36781) - http://www.bohemiancoding.com/sketch -->
    <title>insta</title>
    <desc>Created with Sketch.</desc>
    <defs></defs>
    <g id="Page-1" stroke="none" stroke-width="1" fill="none" fill-rule="evenodd">
        <g id="Home" transform="translate(-1062.000000, -53.000000)" fill="#F89191">
            <g id="Main-Top-Nav-1" transform="translate(338.000000, 51.000000)">
                <g id="insta" transform="translate(724.000000, 2.000000)">
                    <path d="M10.1691508,0.428305897 L4.18620706,0.428305897 C2.09749456,0.428305897 0.404451478,2.12178194 0.404451478,4.19540884 L0.404451478,10.1798826 C0.404451478,12.2535095 2.09749456,13.9480409 4.1714354,13.9480409 L10.1691508,13.9480409 C12.2422475,13.9480409 13.9363457,12.2543538 13.9363457,10.1798826 L13.9363457,4.19540884 C13.9363457,2.12178194 12.2422475,0.428305897 10.1691508,0.428305897 Z M12.8284713,10.1798826 C12.8284713,11.6525714 11.6256363,12.8398832 10.1691508,12.8398832 L4.18620706,12.8398832 C2.71410579,12.8398832 1.52709752,11.6367405 1.52709752,10.1798826 L1.52709752,4.19540884 C1.52709752,2.7229311 2.72972154,1.53561928 4.18620706,1.53561928 L10.1691508,1.53561928 C11.6414631,1.53561928 12.8284713,2.73855085 12.8284713,4.19540884 L12.8284713,10.1798826 Z" id="Fill-1"></path>
                    <path d="M7.17941103,3.68924462 C5.24847262,3.68924462 3.68100994,5.27232704 3.68100994,7.1876457 C3.68100994,9.11879518 5.24847262,10.6860468 7.17941103,10.6860468 C9.11056051,10.6860468 10.6778121,9.11879518 10.6778121,7.1876457 C10.6778121,5.27232704 9.11140482,3.68924462 7.17941103,3.68924462 Z M7.17941103,9.57788908 C5.86524154,9.57788908 4.78916764,8.50118196 4.78916764,7.1876457 C4.78916764,5.87347621 5.86608585,4.79740231 7.17941103,4.79740231 C8.49379159,4.79740231 9.56965441,5.87432052 9.56965441,7.1876457 C9.56965441,8.50202627 8.49379159,9.57788908 7.17941103,9.57788908 Z" id="Fill-2"></path>
                    <path d="M11.6755762,3.62571024 C11.6755762,4.82864181 9.87065115,4.82864181 9.87065115,3.62571024 C9.87065115,2.42277868 11.6755762,2.42277868 11.6755762,3.62571024" id="Fill-3"></path>
                </g>
            </g>
        </g>
    </g>
</svg>