<?xml version="1.0" encoding="UTF-8"?>
<svg width="8px" height="32px" viewBox="0 0 8 32" version="1.1" xmlns="http://www.w3.org/2000/svg" xmlns:xlink="http://www.w3.org/1999/xlink">
    <!-- Generator: Sketch 42 (36781) - http://www.bohemiancoding.com/sketch -->
    <title>Page 1</title>
    <desc>Created with Sketch.</desc>
    <defs></defs>
    <g id="Page-1" stroke="none" stroke-width="1" fill="none" fill-rule="evenodd">
        <g id="iPhone-7-Copy" transform="translate(-29.000000, -20.000000)" fill="#505050">
            <g id="Page-1" transform="translate(33.000000, 36.000000) rotate(90.000000) translate(-33.000000, -36.000000) translate(17.000000, 32.000000)">
                <path d="M8.20010667,4 C8.20010667,6.14315789 6.4384,7.88168421 4.26666667,7.88168421 C2.09493333,7.88168421 0.333226667,6.14315789 0.333226667,4 C0.333226667,1.85684211 2.09493333,0.118315789 4.26666667,0.118315789 C6.4384,0.118315789 8.20010667,1.85684211 8.20010667,4" id="Fill-1"></path>
                <path d="M19.93344,4 C19.93344,6.14315789 18.1717333,7.88168421 16,7.88168421 C13.8282667,7.88168421 12.06656,6.14315789 12.06656,4 C12.06656,1.85684211 13.8282667,0.118315789 16,0.118315789 C18.1717333,0.118315789 19.93344,1.85684211 19.93344,4" id="Fill-2"></path>
                <path d="M31.6667733,4 C31.6667733,6.14315789 29.9050667,7.88168421 27.7333333,7.88168421 C25.5616,7.88168421 23.7998933,6.14315789 23.7998933,4 C23.7998933,1.85684211 25.5616,0.118315789 27.7333333,0.118315789 C29.9050667,0.118315789 31.6667733,1.85684211 31.6667733,4" id="Fill-3"></path>
            </g>
        </g>
    </g>
</svg>