<?xml version="1.0" encoding="UTF-8"?>
<svg width="127px" height="127px" viewBox="0 0 127 127" version="1.1" xmlns="http://www.w3.org/2000/svg" xmlns:xlink="http://www.w3.org/1999/xlink">
    <!-- Generator: Sketch 42 (36781) - http://www.bohemiancoding.com/sketch -->
    <title>Group Copy</title>
    <desc>Created with Sketch.</desc>
    <defs></defs>
    <g id="Page-1" stroke="none" stroke-width="1" fill="none" fill-rule="evenodd">
        <g id="Home" transform="translate(-537.000000, -879.000000)">
            <g id="Group-Copy" transform="translate(537.000000, 879.000000)">
                <circle id="Oval-2" fill="#505050" cx="63.5" cy="63.5" r="63.5"></circle>
                <ellipse id="Oval-2-Copy" stroke="#FFFFFF" stroke-width="2" cx="63.8395722" cy="63.8395722" rx="59.7647059" ry="59.7647059"></ellipse>
                <g id="logo" transform="translate(21.053476, 26.486631)">
                    <g id="Group-3" transform="translate(0.000000, 47.790546)">
                        <g id="Group-4" fill="#FFFFFF">
                            <path d="M33.3966427,2.57462487 L1.77887732,3.56108189 C0.790039112,3.5919331 0,2.81646976 0,1.82948142 L0,1.78710047 C0,0.802636739 0.796430503,0 1.77887732,0 L41.2979398,0 L80.8170022,0 C81.799449,0 82.5958795,0.802636739 82.5958795,1.78710047 L82.5958795,1.82948142 C82.5958795,2.81646976 81.8058404,3.5919331 80.8170022,3.56108189 L49.137722,2.57270564 C48.2873995,2.59410642 47.0216876,2.71793057 46.3627814,3.22909097 C45.3137192,4.04292312 44.6745009,7.62065469 44.6745009,7.62065469 L44.6683517,7.6064771 C44.5855845,8.35789447 44.5446331,8.96962164 44.5446331,9.29670301 C44.5446331,10.3312437 45.8010476,12.1413821 45.8010476,12.1413821 C45.8010476,12.1413821 46.4926492,13.4330184 46.1030459,14.7246548 C45.8459243,15.5770802 44.8012768,16.7805052 44.4147654,17.4340123 C43.116088,19.6297941 44.2848977,21.5672487 45.1939718,22.3422305 C46.1030459,23.1172124 51.6284249,23.7624272 53.4021174,24.4119277 C55.1758099,25.0614283 55.8431261,26.3463033 55.2208934,26.3463033 C54.65109,26.3463033 43.2315516,26.1665908 41.3111789,26.1363057 C39.3908062,26.1665908 27.9712678,26.3463033 27.4014644,26.3463033 C26.7792317,26.3463033 27.4465478,25.0614283 29.2202404,24.4119277 C30.9939329,23.7624272 36.5193118,23.1172124 37.428386,22.3422305 C38.3374601,21.5672487 39.5062697,19.6297941 38.2075924,17.4340123 C37.821081,16.7805052 36.7764335,15.5770802 36.5193118,14.7246548 C36.1297086,13.4330184 36.8213101,12.1413821 36.8213101,12.1413821 C36.8213101,12.1413821 38.0777247,10.3312437 38.0777247,9.29670301 C38.0777247,8.96225642 38.0349082,8.33020039 37.9483512,7.55550502 L37.9213786,7.62065469 C37.9213786,7.62065469 37.1522925,4.04292312 36.1032303,3.22909097 C35.461759,2.73145604 34.2451696,2.60093046 33.3966427,2.57462487 Z" id="Combined-Shape"></path>
                        </g>
                        <g id="Group-5" transform="translate(27.012489, 1.033309)"></g>
                    </g>
                    <g id="Text" fill="#FFFFFF">
                        <path d="M25.4255575,26.2516869 C25.5021986,26.0464772 25.5859873,25.8270499 25.6769241,25.5934035 L27.8221314,19.863911 L31.1725112,19.863911 L28.6175453,26.8160149 C28.3925786,27.4393101 28.1997529,28.0266371 28.0390624,28.5780137 C27.8783719,29.1293902 27.7980279,29.524937 27.7980279,29.7646659 C27.7980279,30.0523406 27.8542687,30.2561071 27.9667521,30.3759716 C28.0792354,30.495836 28.2238547,30.5557674 28.4006142,30.5557674 C28.6095118,30.5557674 28.850544,30.4638726 29.1237178,30.2800805 C29.3968916,30.0962883 29.6740785,29.8445767 29.9552869,29.5249382 C30.2364952,29.2052996 30.509665,28.8257345 30.7748043,28.3862315 C31.0399436,27.9467285 31.2689241,27.4632824 31.4617527,26.9358788 L34.1372359,19.863911 L37.4876158,19.863911 L32.7633391,32.6893441 C32.4258891,33.600314 32.0081001,34.395403 31.5099596,35.0746349 C31.0118191,35.7538668 30.4574452,36.3172214 29.8468214,36.7647153 C29.2361975,37.2122093 28.589428,37.5478248 27.9064934,37.7715718 C27.2235589,37.9953188 26.5366173,38.1071906 25.8456483,38.1071906 C25.2832316,38.1071906 24.7931329,38.0272821 24.3753377,37.8674629 C23.9575424,37.7076436 23.6040286,37.4998816 23.3147858,37.2441708 C23.0255429,36.9884599 22.808614,36.6927987 22.6639925,36.3571782 C22.5193711,36.0215577 22.4470615,35.6699606 22.4470615,35.3023762 C22.4470615,34.6630991 22.6720248,34.0637858 23.1219581,33.5044183 C23.5718915,32.9450509 24.2949878,32.5455086 25.2912688,32.3057797 L25.4840965,32.8331807 C24.680644,33.0249638 24.0941326,33.3366068 23.7245444,33.7681188 C23.3549563,34.1996309 23.170165,34.6471182 23.170165,35.1105941 C23.170165,35.5580881 23.3388875,35.9536348 23.6763375,36.2972463 C24.0137876,36.6408577 24.4878174,36.8126609 25.0984412,36.8126609 C26.014377,36.8126609 26.8017486,36.5050134 27.4605796,35.8897092 C28.1194106,35.2744049 28.7139564,34.2955265 29.244235,32.9530446 L30.4735111,29.8365842 C29.9753706,30.4918432 29.465186,30.9513168 28.9429419,31.2150186 C28.4206978,31.4787204 27.8301691,31.6105693 27.1713381,31.6105693 C26.8178191,31.6105693 26.4884085,31.5666197 26.1830966,31.4787191 C25.8777847,31.3908185 25.6086321,31.2549741 25.3756309,31.071182 C25.1426297,30.8873898 24.9578384,30.6516599 24.8212515,30.3639852 C24.6846646,30.0763105 24.6163722,29.7327042 24.6163722,29.333156 C24.6163722,29.109409 24.6364582,28.8816699 24.6766308,28.649932 C24.6808367,28.6256703 24.6853067,28.6011022 24.6900409,28.5762275 C23.1703749,30.59913 21.4572481,31.6105693 19.5506298,31.6105693 C19.2453179,31.6105693 18.9480449,31.5666197 18.658802,31.4787191 C18.3695592,31.3908185 18.108441,31.2549741 17.8754398,31.071182 C17.6424386,30.8873898 17.4536301,30.6516599 17.3090087,30.3639852 C17.1643873,30.0763105 17.0920776,29.7327042 17.0920776,29.333156 C17.0920776,29.1014494 17.1131654,28.8618795 17.1553411,28.6144445 C16.6536046,29.3280669 16.1531274,29.9152405 15.6539048,30.3759716 C14.7620726,31.1990409 13.7457205,31.6105693 12.6048181,31.6105693 C12.251299,31.6105693 11.9218885,31.5666197 11.6165765,31.4787191 C11.3112646,31.3908185 11.0421121,31.2549741 10.8091109,31.071182 C10.5761097,30.8873898 10.3913184,30.6516599 10.2547315,30.3639852 C10.1181446,30.0763105 10.0498521,29.7327042 10.0498521,29.333156 C10.0498521,29.1413728 10.0659209,28.9376063 10.098059,28.7218503 C10.1052956,28.673268 10.113958,28.6228627 10.1240461,28.5706343 C10.110069,28.5891173 10.0960503,28.607559 10.0819899,28.6259592 C9.62402202,29.2252815 9.11383738,29.7446864 8.55142067,30.1841894 C7.98900397,30.6236924 7.36232048,30.9712941 6.67135139,31.227005 C5.98038229,31.4827158 5.21711393,31.6105693 4.38152341,31.6105693 C3.83517575,31.6105693 3.32097391,31.5466426 2.83890245,31.4187872 C2.35683099,31.2909317 1.93502479,31.0751789 1.5734712,30.7715223 C1.2119176,30.4678657 0.926696269,30.0723189 0.717798637,29.5848701 C0.508901005,29.0974213 0.404453756,28.4941125 0.404453756,27.7749258 C0.404453756,26.7041366 0.609331052,25.6613314 1.01909179,24.646479 C1.42885253,23.6316266 1.96715759,22.7286612 2.6340231,21.9375558 C3.30088862,21.1464503 4.06415698,20.5111782 4.92385108,20.0317204 C5.78354519,19.5522625 6.6633124,19.3125372 7.56317912,19.3125372 C8.54339109,19.3125372 9.27853904,19.5482671 9.76864502,20.019734 C10.258751,20.4912009 10.5038003,21.0625462 10.5038003,21.7337872 C10.5038003,21.9735161 10.4596111,22.2012552 10.3712313,22.4170112 C10.2828516,22.6327672 10.1543011,22.8285429 9.98557609,23.0043441 C9.81685108,23.1801453 9.61599099,23.3199851 9.38298978,23.4238676 C9.14998858,23.5277502 8.89690486,23.5796907 8.62373103,23.5796907 C8.18986672,23.5796907 7.82430135,23.4398509 7.52702395,23.1601671 C7.22974655,22.8804834 7.04897246,22.5248908 6.98469627,22.0933788 L9.08169663,20.6070669 C8.93707519,20.3993018 8.76835271,20.2594621 8.57552413,20.1875434 C8.38269554,20.1156247 8.17380104,20.0796659 7.94883436,20.0796659 C7.43462481,20.0796659 6.92845737,20.3353729 6.43031686,20.8467946 C5.93217635,21.3582163 5.48224974,21.9974839 5.08052353,22.7646164 C4.67879731,23.531749 4.35742116,24.3588013 4.11638543,25.2457983 C3.8753497,26.1327953 3.75483364,26.9598477 3.75483364,27.7269802 C3.75483364,28.4781309 3.92757332,29.1014167 4.27305787,29.5968565 C4.61854241,30.0922962 5.15283027,30.3400124 5.87593746,30.3400124 C6.80794228,30.3400124 7.67967509,30.0083924 8.49116204,29.3451424 C9.302649,28.6818924 10.0136937,27.7989041 10.6243176,26.696151 C10.7153046,26.5252185 10.8062908,26.352706 10.8972771,26.1786117 C10.9640271,25.99452 11.0350693,25.7994508 11.110404,25.5934035 L13.2556113,19.863911 L16.6059912,19.863911 L14.0510252,26.8160149 C13.8260585,27.4393101 13.6332329,28.034628 13.4725424,28.6019864 C13.3118519,29.1693449 13.2315078,29.6128367 13.2315078,29.9324753 C13.2315078,30.3480054 13.4564711,30.5557674 13.9064045,30.5557674 C14.3241998,30.5557674 14.8705392,30.240129 15.5454393,29.6088429 C16.2203393,28.9775567 16.9193324,28.0066691 17.6424396,26.696151 C17.7569797,26.4809705 17.8715185,26.2632864 17.986058,26.0430945 C18.0395179,25.8979445 18.0950418,25.7480475 18.1526295,25.5934035 L19.9040844,20.643491 L18.2249399,20.5830941 L18.5141813,19.863911 L20.1524819,19.8693106 L20.7700483,18.1792063 L24.515941,17.5385521 L23.6482167,19.863911 L26.8780793,19.863911 L26.5888379,20.5830941 L23.3830787,20.5830941 L21.0932507,26.8160149 C20.868284,27.4393101 20.6834928,27.9906783 20.5388713,28.4701362 C20.3942499,28.949594 20.3219403,29.3011912 20.3219403,29.5249382 C20.3219403,29.8285948 20.3982671,30.0403522 20.5509231,30.1602166 C20.703579,30.2800811 20.9164907,30.3400124 21.1896645,30.3400124 C21.4146312,30.3400124 21.6837837,30.2720902 21.9971302,30.1362438 C22.3104766,30.0003975 22.6439044,29.7886401 22.9974235,29.5009654 C23.3509425,29.2132907 23.7124907,28.837721 24.0820788,28.3742451 C24.4516669,27.9107692 24.8212495,27.3514101 25.1908376,26.696151 C25.269078,26.549165 25.3473177,26.4010107 25.4255575,26.2516869 Z M14.2920597,16.1481313 C14.2920597,15.5887638 14.476851,15.1053177 14.8464392,14.6977786 C15.2160273,14.2902394 15.6980915,14.0864729 16.2926463,14.0864729 C16.7907868,14.0864729 17.2045586,14.2542806 17.5339741,14.5899011 C17.8633896,14.9255216 18.0280949,15.3410455 18.0280949,15.8364853 C18.0280949,16.108178 17.971854,16.363885 17.8593707,16.603614 C17.7468874,16.8433429 17.5942337,17.0511048 17.4014051,17.226906 C17.2085765,17.4027072 16.9876304,17.542547 16.7385602,17.6464295 C16.4894899,17.7503121 16.2364062,17.8022526 15.9793014,17.8022526 C15.4811609,17.8022526 15.0754235,17.6424357 14.7620771,17.3227971 C14.4487306,17.0031586 14.2920597,16.6116072 14.2920597,16.1481313 Z" id="city" transform="translate(18.946035, 26.096832) rotate(1.000000) translate(-18.946035, -26.096832) "></path>
                        <g id="Group-2" transform="translate(32.466934, 24.799419)">
                            <path d="M42.0920936,10.5534236 C41.8468674,11.0562516 41.5036812,11.8320344 41.2296049,12.3204959 C40.8978283,12.9238894 40.519176,13.4913581 40.0936365,14.0229191 C39.668097,14.5544801 39.192077,15.0213848 38.665562,15.4236471 C38.1390471,15.8259095 37.5512344,16.1455596 36.9021064,16.382607 C36.2529784,16.6196545 35.5461607,16.7381765 34.7816321,16.7381765 C33.5122262,16.7381765 32.5493674,16.4544421 31.8930269,15.8869648 C31.2366863,15.3194876 30.9085209,14.4251856 30.9085209,13.204032 C30.9085209,12.3276747 31.0816192,11.4441474 31.4278208,10.5534236 C31.7740224,9.66269981 32.2536487,8.85818716 32.866714,8.13986152 C33.4797794,7.42153588 34.1974157,6.83251769 35.0196445,6.37278928 C35.8418734,5.91306087 36.7290017,5.68320011 37.6810561,5.68320011 C38.6619607,5.68320011 39.3687784,5.87355355 39.8015304,6.25426614 C40.2342824,6.63497873 40.4506551,7.09829182 40.4506551,7.64421931 C40.4506551,8.19014679 40.3172253,8.70374192 40.0503615,9.1850201 C39.7834978,9.66629828 39.3759958,10.0972872 38.8278432,10.4779998 C38.2796907,10.8587124 37.5945102,11.1639962 36.7722814,11.3938604 C35.9500526,11.6237246 34.9908,11.7602044 33.8944949,11.803304 C33.8367946,12.0188017 33.7971263,12.2307046 33.7754887,12.439019 C33.7538511,12.6473334 33.7430325,12.8376869 33.7430325,13.010085 C33.7430325,13.9295418 33.9521928,14.5903915 34.3705197,14.9926539 C34.7888467,15.3949162 35.3081413,15.5960444 35.9284192,15.5960444 C36.3323211,15.5960444 36.7506418,15.5206213 37.1833938,15.369773 C37.6161458,15.2189246 38.0380727,15.0034301 38.4491871,14.7232831 C38.8603015,14.4431361 39.2497725,14.1019365 39.6176117,13.6996742 C39.9854509,13.2974118 40.3136163,12.8376903 40.6021176,12.3204959 C40.7319432,12.0762651 41.0997793,11.4953154 41.2296049,11.2439014 C41.3594305,10.9924874 42.0920936,10.5534236 42.0920936,10.5534236 Z M37.5217863,6.34968449 C37.2621351,6.34968449 36.9772443,6.48975588 36.6671054,6.76990289 C36.3569664,7.05004989 36.0504383,7.41639047 35.7475119,7.86893562 C35.4445855,8.32148078 35.1633009,8.82789276 34.9036497,9.38818676 C34.6439985,9.94848076 34.4276257,10.5015832 34.2545249,11.0475107 C34.8315276,10.9613116 35.3544285,10.7781413 35.8232432,10.4979943 C36.2920578,10.2178473 36.685135,9.88742249 37.0024865,9.5067099 C37.319838,9.12599731 37.5650604,8.72014941 37.7381612,8.28915402 C37.911262,7.85815864 37.9978111,7.45590231 37.9978111,7.08237298 C37.9978111,6.59391154 37.8391378,6.34968449 37.5217863,6.34968449 Z" id="Combined-Shape"></path>
                            <path d="M40.5885105,12.3204959 C40.6462108,12.2055638 40.7111226,12.0798586 40.7832479,11.9433768 C40.8553733,11.8068949 40.9383162,11.6452741 41.0320791,11.4585094 C41.125842,11.2717447 41.1893037,11.0849832 41.3191293,10.8335692 C41.4489549,10.5821552 41.6487468,10.2373638 41.8218476,9.86383444 C42.1680492,9.17424183 42.4817897,8.56726576 42.7630785,8.04288804 C43.0443673,7.51851033 43.3581078,7.08392983 43.7043094,6.73913352 C44.050511,6.39433722 44.4508007,6.13215229 44.9051903,5.95257088 C45.3595799,5.77298947 45.9329677,5.68320011 46.6253709,5.68320011 C47.3321992,5.68320011 47.9380429,5.76939789 48.4429203,5.94179605 C48.9477976,6.1141942 49.3661183,6.38715385 49.6978949,6.76068318 L49.2867825,7.23477574 C49.0848316,7.03364456 48.8756712,6.87561529 48.6592952,6.76068318 C48.4429192,6.64575108 48.1904843,6.58828589 47.901983,6.58828589 C47.483656,6.58828589 47.1699155,6.72117414 46.9607521,6.98695463 C46.7515886,7.25273512 46.6470084,7.62985042 46.6470084,8.11831186 C46.6470084,8.47747468 46.6758581,8.85458999 46.7335584,9.24966909 C46.7912587,9.64474819 46.8525643,10.0541877 46.9174771,10.4779998 C46.9823899,10.9018119 47.0436955,11.3363924 47.1013958,11.7817543 C47.159096,12.2271162 47.1879457,12.6724714 47.1879457,13.1178333 C47.1879457,13.5919283 47.090578,14.0444666 46.8958396,14.475462 C46.7011012,14.9064574 46.4162104,15.2907558 46.0411586,15.6283689 C45.6661069,15.9659819 45.2117241,16.23535 44.6779966,16.4364812 C44.1442691,16.6376124 43.5384254,16.7381765 42.8604472,16.7381765 C42.3122947,16.7381765 41.8470932,16.666345 41.464829,16.5226798 C41.0825647,16.3790147 40.7724304,16.1886613 40.5344168,15.9516138 C40.2964032,15.7145664 40.1196988,15.4487899 40.0042982,15.1542763 C39.8888977,14.8597628 39.8311983,14.5688453 39.8311983,14.281515 C39.8311983,13.8217866 39.9465971,13.405164 40.1773982,13.0316347 L40.5885105,13.1178333 C40.4586849,13.4195301 40.4154106,13.9008028 40.4154106,14.2168661 C40.4154106,14.6765945 40.5632653,15.0788508 40.8589792,15.4236471 C41.154693,15.7684434 41.5838324,15.940839 42.14641,15.940839 C42.8099631,15.940839 43.3076204,15.7145698 43.639397,15.2620246 C43.9711735,14.8094795 44.1370593,14.2384192 44.1370593,13.5488266 C44.1370593,13.0603651 44.1118158,12.6042352 44.0613281,12.1804231 C44.0108403,11.7566109 43.9567471,11.350763 43.8990469,10.9628672 C43.8413466,10.5749713 43.7872534,10.197856 43.7367657,9.83150995 C43.6862779,9.46516387 43.6610344,9.08804857 43.6610344,8.70015272 C43.6610344,8.49902154 43.6934904,8.24761134 43.7584032,7.94591457 C43.823316,7.6442178 43.9278961,7.38562445 44.0721468,7.17012675 C43.8557708,7.38562445 43.6610353,7.61907678 43.4879345,7.87049075 C43.3148337,8.12190473 43.1525541,8.39845595 43.0010909,8.70015272 C42.8496277,9.00184949 42.6945606,9.32868275 42.5358848,9.68066232 C42.3772091,10.0326419 42.0787476,10.5462383 41.8767967,10.9628672 C41.6315705,11.4656951 41.3701387,11.8320344 41.0960624,12.3204959 L40.5885105,12.3204959 Z" id="Path"></path>
                            <path d="M21.0412834,14.6080266 C20.7172698,15.0205453 20.3932558,15.3735466 20.0692398,15.6670327 C19.2547053,16.4048191 18.3383677,16.7737068 17.3201996,16.7737068 C16.7383892,16.7737068 16.2438578,16.6145788 15.8365906,16.296318 C15.4293233,15.9780572 15.2256928,15.4500415 15.2256928,14.7122551 L15.2256928,14.5712084 C15.2256928,14.520576 15.2329653,14.4735609 15.2475105,14.4301617 C14.9566054,14.8930865 14.6693408,15.2764404 14.3857083,15.5802348 C14.1020757,15.8840292 13.8184474,16.1227212 13.5348149,16.296318 C13.2511823,16.4699148 12.967554,16.5928773 12.6839215,16.6652093 C12.4002889,16.7375413 12.1130244,16.7737068 11.8221192,16.7737068 C11.4148519,16.7737068 11.0548622,16.6941428 10.7421391,16.5350124 C10.429416,16.375882 10.163969,16.1588892 9.94579013,15.8840277 C9.72761125,15.6091661 9.56034328,15.2836769 9.4439812,14.9075505 C9.32761913,14.5314241 9.26943897,14.126371 9.26943897,13.692379 C9.26943897,13.5964539 9.27196176,13.4996926 9.27700735,13.402095 C9.1240036,13.6318003 8.96460078,13.8551416 8.79879817,14.0721201 C8.38425829,14.6146101 7.92245324,15.0847611 7.41336918,15.4825871 C6.90428511,15.8804131 6.33702852,16.1950525 5.71158238,16.4265149 C5.08613624,16.6579773 4.3952468,16.7737068 3.63889333,16.7737068 C3.14435452,16.7737068 2.67891321,16.7158421 2.24255544,16.6001109 C1.80619767,16.4843797 1.42439034,16.2890862 1.09712201,16.0142246 C0.769853686,15.739363 0.51167921,15.381325 0.322590842,14.9400998 C0.133502475,14.4988746 0.038959709,13.9527762 0.038959709,13.3017882 C0.038959709,12.3325394 0.22440898,11.388621 0.595313086,10.4700046 C0.966217192,9.55138817 1.45347606,8.73404884 2.05710431,8.01796205 C2.66073256,7.30187525 3.351622,6.72684448 4.12979336,6.29285248 C4.90796472,5.85886049 5.70430571,5.64186774 6.51884022,5.64186774 C7.40610102,5.64186774 8.07153664,5.85524394 8.51516704,6.28200274 C8.95879744,6.70876154 9.18060932,7.22592757 9.18060932,7.83351637 C9.18060932,8.05051237 9.14061045,8.25665547 9.06061153,8.45195187 C8.9806126,8.64724827 8.86425228,8.82445901 8.71152706,8.98358941 C8.55880184,9.14271981 8.37698883,9.26929891 8.16608257,9.36333051 C7.95517631,9.45736211 7.72609192,9.5043772 7.47882252,9.5043772 C7.08610052,9.5043772 6.75520084,9.3777981 6.48611355,9.1246361 C6.21702626,8.8714741 6.05339455,8.54960154 5.99521351,8.15900874 L7.89336033,6.81364028 C7.76245299,6.62557708 7.60973007,6.49899798 7.43518696,6.43389918 C7.26064385,6.36880038 7.07155832,6.33625147 6.86792469,6.33625147 C6.4024764,6.33625147 5.94430761,6.56771039 5.49340458,7.03063519 C5.04250155,7.49355999 4.63524041,8.0722073 4.27160893,8.7665945 C3.90797745,9.46098169 3.61707664,10.2096067 3.39889775,11.0124918 C3.18071886,11.815377 3.07163106,12.564002 3.07163106,13.2583892 C3.07163106,13.93831 3.22799025,14.5024911 3.54071332,14.9509495 C3.85343639,15.3994079 4.337059,15.6236338 4.99159565,15.6236338 C5.83522068,15.6236338 6.62428915,15.3234605 7.35882473,14.7231049 C8.09336031,14.1227493 8.73697837,13.3234927 9.28969821,12.3253111 C9.3799508,12.1557582 9.47020246,11.9844881 9.56045447,11.8114982 C9.73335563,11.2248179 9.97452392,10.6510781 10.2839657,10.0902635 C10.611234,9.49714107 11.0003139,8.92934339 11.4512169,8.3868534 C11.9021199,7.8443634 12.4075601,7.37059591 12.9675526,6.96553672 C13.5275451,6.56047752 14.127528,6.23860495 14.7675194,5.99990935 C15.4075108,5.76121375 16.0838552,5.64186774 16.7965729,5.64186774 C17.814741,5.64186774 18.611082,5.84801085 19.1856197,6.26030325 C19.7601575,6.67259564 20.047422,7.25485951 20.047422,8.0071123 C20.047422,8.3687723 19.9674243,8.7882916 19.8074265,9.2656828 L18.6510842,12.498907 C18.4474505,13.0630966 18.2692738,13.6019619 18.1165486,14.1155191 C17.9638233,14.6290763 17.8874619,15.0305129 17.8874619,15.3198409 C17.8874619,15.4789713 17.9165519,15.6019338 17.974733,15.6887322 C18.032914,15.7755306 18.1783644,15.8189292 18.4110886,15.8189292 C18.7892653,15.8189292 19.2983417,15.5332221 19.9383331,14.9617993 C20.5783245,14.3903765 21.2255789,13.5115559 21.8801155,12.3253111 C21.890577,12.3056577 21.9010384,12.2859812 21.9114999,12.2662816 L26.2036723,0.716083214 L29.4545214,0.0867979653 L25.6582278,10.4157558 L26.2254901,10.4157558 C26.8800267,10.4157558 27.4581921,10.3578911 27.9600035,10.2421599 C28.461815,10.1264287 28.8908937,9.96368415 29.2472525,9.75392135 C29.6036114,9.54415855 29.9017847,9.29823344 30.1417815,9.01613865 C30.3817782,8.73404385 30.5745,8.41940437 30.7199526,8.07221077 L28.6472636,7.09573366 C28.6472636,6.92213687 28.6799899,6.75215922 28.7454436,6.58579562 C28.8108972,6.41943202 28.9090763,6.26392055 29.0399836,6.11925655 C29.1708909,5.97459256 29.3272501,5.85886309 29.5090659,5.77206469 C29.6908816,5.68526629 29.905421,5.64186774 30.1526904,5.64186774 C30.5599576,5.64186774 30.9017661,5.77206339 31.178126,6.03245859 C31.4544859,6.29285379 31.5926638,6.67620763 31.5926638,7.18253163 C31.5926638,7.52972523 31.5235749,7.8913798 31.3853949,8.2675062 C31.2472149,8.64363259 31.0326756,8.99805407 30.7417704,9.33078127 C30.4508652,9.66350847 30.0836029,9.96368176 29.6399725,10.2313102 C29.1963421,10.4989386 28.6618119,10.7050817 28.0363658,10.8497457 L30.0217837,16.2746185 L26.6836634,16.2746185 L25.24369,11.5658289 L23.5200854,16.2746185 L20.4219607,16.2746185 L21.0412834,14.6080266 Z M12.8693726,15.7972297 C13.174823,15.7972297 13.4802689,15.6417182 13.7857193,15.3306906 C14.0911698,15.019663 14.3784343,14.6363092 14.6475216,14.1806176 C14.9166089,13.724926 15.1675109,13.2439254 15.400235,12.7376014 C15.6329592,12.2312774 15.8220447,11.7828257 15.9674973,11.3922329 L17.0147507,8.59299857 C17.2474748,7.95647697 17.3638352,7.46462675 17.3638352,7.11743316 C17.3638352,6.82810516 17.2947462,6.62196205 17.1565663,6.49899765 C17.0183863,6.37603325 16.8256645,6.31455198 16.5783951,6.31455198 C16.2729447,6.31455198 15.9529538,6.47367999 15.6184128,6.79194079 C15.2838718,7.11020158 14.9529722,7.51887125 14.6257038,8.01796205 C14.2984355,8.51705284 13.9820809,9.07761743 13.6766304,9.69967262 C13.37118,10.3217278 13.105733,10.9437737 12.8802815,11.5658289 C12.65483,12.1878841 12.4730169,12.7737645 12.334837,13.3234877 C12.196657,13.8732109 12.1275681,14.3216625 12.1275681,14.6688561 C12.1275681,14.7845873 12.1348406,14.9075499 12.1493859,15.0377475 C12.1639311,15.1679451 12.1966575,15.2909076 12.2475659,15.4066388 C12.2984743,15.52237 12.3748357,15.6164002 12.4766526,15.6887322 C12.5784694,15.7610642 12.7093747,15.7972297 12.8693726,15.7972297 Z" id="cakes"></path>
                        </g>
                        <path d="M63.5519216,13.7782921 C63.4580633,13.9670792 63.3662417,14.144356 63.2802612,14.2973815 C63.0645106,14.6892249 62.8317358,15.0680391 62.5819346,15.4338276 C62.4868006,15.7721879 62.4530472,16.2016679 62.4530472,16.5024632 C62.4530472,17.0370311 62.6252068,17.504771 62.9695312,17.9056969 C63.3138555,18.3066229 63.8135383,18.5070828 64.4685944,18.5070828 C65.2412247,18.5070828 65.8206888,18.2439791 66.2070039,17.7177638 C66.5933191,17.1915485 66.7864738,16.5275249 66.7864738,15.725673 C66.7864738,15.1576946 66.7570807,14.627311 66.6982936,14.1345062 C66.6395065,13.6417014 66.5765213,13.1697852 66.509336,12.7187435 C66.4421508,12.2677018 66.3791656,11.8291957 66.3203785,11.4032119 C66.2615914,10.977228 66.2321983,10.5387219 66.2321983,10.0876802 C66.2321983,9.85380673 66.2699894,9.56146928 66.3455728,9.21065909 C66.4211562,8.85984889 66.5429276,8.55915894 66.7108907,8.30858023 C66.4589461,8.55915894 66.2321993,8.83061514 66.0306436,9.12295698 C65.8290878,9.41529881 65.6401322,9.73687 65.4637709,10.0876802 C65.2874096,10.4384904 65.106852,10.8185291 64.9220926,11.2278076 C64.7373331,11.6370862 64.3898095,12.2342913 64.1546611,12.7187435 C63.9619206,13.1134109 63.7605823,13.4357649 63.5519216,13.7782921 Z M61.7737633,16.4995979 C61.3260819,17.0262643 60.8330751,17.4949603 60.2947319,17.9056969 C59.6816665,18.3734439 58.9972271,18.74513 58.2413931,19.0207666 C57.4855591,19.2964032 56.6625522,19.4342194 55.7723477,19.4342194 C54.2942723,19.4342194 53.1731354,19.1042957 52.4089033,18.4444385 C51.6446711,17.7845812 51.2625608,16.7446951 51.2625608,15.3247491 C51.2625608,14.305729 51.4641135,13.2783717 51.8672249,12.2426463 C52.2703364,11.206921 52.8288054,10.2714412 53.5426486,9.4361788 C54.2564918,8.60091643 55.0920957,7.91601155 56.0494855,7.38144363 C57.0068752,6.84687571 58.0398328,6.57959576 59.1483894,6.57959576 C60.2905385,6.57959576 61.1135454,6.80093697 61.6174347,7.24362603 C62.1213241,7.68631509 62.373265,8.22505124 62.373265,8.85985064 C62.373265,9.49465005 62.2179014,10.0918537 61.9071697,10.6514795 C61.5964379,11.2111053 61.1219492,11.7122552 60.4836894,12.1549442 C59.8454296,12.5976333 59.0476168,12.9526145 58.0902271,13.2198984 C57.1328373,13.4871824 56.0158994,13.6458799 54.7393798,13.6959956 C54.6721945,13.9465743 54.6260053,14.192973 54.6008109,14.4351991 C54.5756164,14.6774252 54.5630194,14.8987664 54.5630194,15.0992294 C54.5630194,16.1683652 54.8065622,16.9367951 55.2936552,17.404542 C55.7807483,17.8722889 56.3854064,18.1061589 57.1076478,18.1061589 C57.5779445,18.1061589 58.0650302,18.0184577 58.5689195,17.8430526 C59.0728089,17.6676475 59.5640936,17.4170725 60.0427885,17.0913202 C60.5214833,16.7655679 60.9749769,16.3688242 61.4032828,15.9010773 C61.8315888,15.4333303 62.2136991,14.8987704 62.5496253,14.2973815 C62.7007921,14.0133923 63.1290944,13.3378694 63.2802612,13.0455275 C63.2858884,13.0346452 63.2924882,13.0234605 63.2999804,13.012011 C63.357153,12.8794454 63.4184893,12.7363239 63.5053224,12.568397 C63.6564892,12.2760552 63.8891236,11.8751349 64.0906793,11.4407985 C64.4937908,10.6389466 64.8591051,9.93316048 65.1866331,9.32341894 C65.5141612,8.71367741 65.8794755,8.20835125 66.282587,7.80742531 C66.6856984,7.40649937 67.1517891,7.10163318 67.6808729,6.89281759 C68.2099567,6.68400199 68.8776,6.57959576 69.6838229,6.57959576 C70.5068422,6.57959576 71.2122767,6.67982574 71.8001475,6.88028871 C72.3880184,7.08075168 72.8751041,7.39814663 73.2614193,7.83248306 L72.7827268,8.38375347 C72.5475785,8.14988001 72.3040356,7.96612504 72.052091,7.83248306 C71.8001463,7.69884108 71.5062153,7.63202109 71.170289,7.63202109 C70.683196,7.63202109 70.3178817,7.78654231 70.0743352,8.09558939 C69.8307887,8.40463647 69.7090173,8.84314264 69.7090173,9.41112105 C69.7090173,9.82875224 69.7426094,10.2672584 69.8097946,10.7266527 C69.8769799,11.186047 69.9483631,11.6621394 70.0239465,12.1549442 C70.0995299,12.647749 70.1709132,13.1530752 70.2380984,13.6709379 C70.3052837,14.1888005 70.3388758,14.7066554 70.3388758,15.2245181 C70.3388758,15.7757913 70.2255024,16.3019987 69.9987522,16.8031561 C69.772002,17.3043135 69.4402798,17.7511722 69.0035757,18.1437455 C68.5668717,18.5363188 68.0377958,18.8495375 67.4163323,19.083411 C66.7948688,19.3172845 66.0894343,19.4342194 65.3000077,19.4342194 C64.6617479,19.4342194 64.1200749,19.3506944 63.6749727,19.183642 C63.2298705,19.0165895 62.8687552,18.7952483 62.5916161,18.5196117 C62.3144769,18.2439751 62.1087252,17.9349327 61.9743547,17.5924751 C61.8399842,17.2500175 61.7728,16.9117413 61.7728,16.5776364 C61.7728,16.5515038 61.7731211,16.5254909 61.7737633,16.4995979 Z M28.5636282,7.15592392 L31.6877265,7.15592392 L31.3853944,7.9076563 L28.2864905,7.9076563 L24.2050073,18.8578913 L20.6777996,18.8578913 L24.7592828,7.9076563 L22.8949016,7.9076563 L23.1972337,7.15592392 L25.0364206,7.15592392 L25.8426395,5.02601551 C26.195362,4.07381641 26.6152635,3.2845053 27.1023565,2.65805852 C27.5894495,2.03161174 28.1227244,1.53463809 28.7021971,1.16712264 C29.2816698,0.799607196 29.890527,0.540679744 30.5287868,0.390332517 C31.1670466,0.239985289 31.8052969,0.164812803 32.4435567,0.164812803 C32.8802608,0.164812803 33.2875652,0.227456542 33.6654822,0.352745898 C34.0433992,0.478035254 34.3751214,0.649261472 34.6606587,0.866429689 C34.946196,1.08359791 35.1729427,1.34670161 35.3409059,1.65574869 C35.508869,1.96479576 35.5928493,2.30307195 35.5928493,2.6705874 C35.5928493,3.28868155 35.4038936,3.75224522 35.0259766,4.0612923 C34.6480596,4.37033937 34.2407552,4.5248606 33.8040511,4.5248606 C33.4009396,4.5248606 33.0314263,4.39539687 32.6955001,4.13646553 C32.3595739,3.8775342 32.1832153,3.48914302 32.1664189,2.97128035 L34.0811888,1.51793108 C33.9468183,1.35087861 33.7494646,1.21306238 33.4891218,1.10447828 C33.228779,0.995894167 32.939047,0.941602927 32.6199171,0.941602927 C31.9984536,0.941602927 31.4819747,1.12535789 31.0704651,1.49287334 C30.6589555,1.86038878 30.2852432,2.50353116 29.949317,3.42231977 L28.5636282,7.15592392 Z M32.6996993,19.4342194 C32.0446432,19.4342194 31.4819752,19.3381657 31.0116785,19.1460554 C30.5413818,18.953945 30.1550724,18.6950176 29.8527388,18.3692652 C29.5504052,18.0435129 29.3278574,17.659298 29.1850888,17.2166089 C29.0423201,16.7739199 28.9709369,16.3020037 28.9709369,15.8008463 C28.9709369,15.1493416 29.0717132,14.468613 29.273269,13.75864 C29.4748247,13.048667 29.7603577,12.3512333 30.1298766,11.6663182 C30.4993954,10.981403 30.944491,10.3299082 31.4651766,9.711814 C31.9858623,9.09371985 32.5653263,8.5549837 33.2035861,8.09558939 C33.8418459,7.63619509 34.5304844,7.26868515 35.269522,6.99304857 C36.0085597,6.71741199 36.7895765,6.57959576 37.6125957,6.57959576 C38.922708,6.57959576 39.8716853,6.91787195 40.4595562,7.59443447 C41.0474271,8.270997 41.3413581,9.11042309 41.3413581,10.1127379 C41.3413581,11.0983475 41.1188103,12.1382336 40.6737081,13.2324273 C40.2286059,14.326621 39.6197487,15.3330971 38.8471184,16.2518857 C38.0744881,17.1706743 37.1633019,17.9307517 36.1135325,18.5321406 C35.063763,19.1335295 33.92583,19.4342194 32.6996993,19.4342194 Z M37.2346806,7.35638589 C36.9155507,7.35638589 36.5712315,7.54014085 36.2017126,7.9076563 C35.8321938,8.27517174 35.4626805,8.75126415 35.0931617,9.33594782 C34.7236428,9.92063148 34.3667266,10.5804789 34.0224022,11.3155097 C33.6780778,12.0505406 33.3757487,12.793913 33.1154059,13.5456491 C32.8550631,14.2973853 32.6493114,15.0198764 32.4981446,15.7131442 C32.3469778,16.4064119 32.2713955,16.9952631 32.2713955,17.4797152 C32.2713955,17.9140517 32.3427788,18.2189179 32.4855474,18.394323 C32.628316,18.5697281 32.8256697,18.6574293 33.0776144,18.6574293 C33.3967443,18.6574293 33.7410635,18.4736743 34.1105824,18.1061589 C34.4801012,17.7386434 34.8496145,17.262551 35.2191334,16.6778674 C35.5886522,16.0931837 35.9455685,15.4333363 36.2898928,14.6983054 C36.6342172,13.9632746 36.9365463,13.2199022 37.1968891,12.4681661 C37.4572319,11.7164299 37.6629836,10.9939388 37.8141504,10.300671 C37.9653172,9.60740326 38.0408995,9.01855212 38.0408995,8.53409995 C38.0408995,8.09976351 37.9695163,7.79489732 37.8267476,7.61949222 C37.683979,7.44408712 37.4866253,7.35638589 37.2346806,7.35638589 Z M49.225412,6.57959576 C49.6621161,6.57959576 50.0694205,6.6422395 50.4473375,6.76752886 C50.8252545,6.89281821 51.1569767,7.06404443 51.442514,7.28121265 C51.7280513,7.49838087 51.9547981,7.76148457 52.1227612,8.07053165 C52.2907243,8.37957872 52.3747046,8.71785491 52.3747046,9.08537036 C52.3747046,9.70346451 52.1857489,10.1670282 51.8078319,10.4760753 C51.4299149,10.7851223 51.0226105,10.9396436 50.5859064,10.9396436 C50.182795,10.9396436 49.8132817,10.8101798 49.4773554,10.5512485 C49.1414292,10.2923172 48.9650706,9.90392598 48.9482743,9.38606331 L50.8630442,7.93271404 C50.7286737,7.76566157 50.53132,7.62784534 50.2709772,7.51926124 C50.0106343,7.41067713 49.7209023,7.35638589 49.4017724,7.35638589 C48.9146794,7.35638589 48.4611858,7.52761211 48.041278,7.87006968 C47.6213702,8.21252725 47.2434589,8.84314089 46.9075327,9.7619295 L43.6574628,18.8578913 L40.054672,18.8578913 L42.9520212,10.9647013 C43.2543548,10.1294389 43.6364652,9.43200531 44.0983637,8.87237952 C44.5602623,8.31275373 45.0683431,7.86171881 45.6226213,7.51926124 C46.1768996,7.17680366 46.7647617,6.93458121 47.3862252,6.7925866 C48.0076887,6.650592 48.6207448,6.57959576 49.225412,6.57959576 Z M60.0691516,7.35638589 C59.766818,7.35638589 59.4350958,7.51925961 59.0739751,7.84501193 C58.7128545,8.17076426 58.3559382,8.59674168 58.0032157,9.12295698 C57.6504931,9.64917227 57.32297,10.2380234 57.0206364,10.8895281 C56.7183028,11.5410327 56.4663619,12.1841751 56.2648062,12.8189745 C56.9366586,12.718743 57.5455158,12.5057543 58.0913959,12.180002 C58.637276,11.8542497 59.0949686,11.4700347 59.4644874,11.0273457 C59.8340063,10.5846566 60.1195393,10.1127404 60.321095,9.61158302 C60.5226507,9.1104256 60.6234271,8.64268568 60.6234271,8.20834925 C60.6234271,7.64037083 60.4386704,7.35638589 60.0691516,7.35638589 Z M73.9536578,7.15592392 L75.7928446,7.15592392 L76.4227031,5.4519972 L80.2270486,4.72532256 L79.3200523,7.15592392 L82.696094,7.15592392 L82.3937619,7.9076563 L79.0429146,7.9076563 L76.6494522,14.4226702 C76.4143039,15.0741749 76.2211492,15.6504973 76.0699824,16.1516547 C75.9188156,16.6528121 75.8432333,17.0203221 75.8432333,17.2541955 C75.8432333,17.5715952 75.9230146,17.7929364 76.0825795,17.9182258 C76.2421445,18.0435152 76.4646923,18.1061589 76.7502296,18.1061589 C76.9853779,18.1061589 77.2667119,18.0351627 77.59424,17.8931681 C77.9217681,17.7511734 78.2702863,17.5298322 78.6398051,17.2291378 C79.009324,16.9284433 79.3872353,16.5358759 79.7735504,16.0514237 C80.1598656,15.5669715 80.546175,14.9822967 80.9324901,14.2973815 C81.0836569,14.0133923 81.2348214,13.7252311 81.3859882,13.4328893 C81.537155,13.1405474 81.6799215,12.8523862 81.814292,12.568397 L82.5701223,12.568397 C82.284585,13.1530807 81.9822559,13.7294031 81.663126,14.2973815 C79.7819392,17.7219572 77.5732574,19.4342194 75.0370144,19.4342194 C74.7178845,19.4342194 74.4071574,19.3882807 74.1048238,19.2964018 C73.8024902,19.204523 73.5295543,19.0625305 73.2860077,18.8704201 C73.0424612,18.6783098 72.8451075,18.4319111 72.6939407,18.1312166 C72.5427739,17.8305222 72.4671917,17.4713648 72.4671917,17.0537336 C72.4671917,16.5358709 72.567968,15.9804297 72.7695238,15.3873935 C72.9710795,14.7943572 73.2398164,14.0468086 73.5757427,13.1447252 L75.5157069,7.9076563 L73.6513257,7.9076563 L73.9536578,7.15592392 Z" id="forest"></path>
                    </g>
                </g>
            </g>
        </g>
    </g>
</svg>