<?xml version="1.0" encoding="UTF-8"?>
<svg width="29px" height="51px" viewBox="0 0 29 51" version="1.1" xmlns="http://www.w3.org/2000/svg" xmlns:xlink="http://www.w3.org/1999/xlink">
    <!-- Generator: Sketch 42 (36781) - http://www.bohemiancoding.com/sketch -->
    <title>Group 6</title>
    <desc>Created with Sketch.</desc>
    <defs></defs>
    <g id="Page-1" stroke="none" stroke-width="1" fill="none" fill-rule="evenodd">
        <g id="Home" transform="translate(-629.000000, -1313.000000)" fill="#F89191">
            <g id="Group-6" transform="translate(643.500000, 1338.500000) scale(-1, 1) translate(-643.500000, -1338.500000) translate(629.000000, 1313.000000)">
                <polygon id="Path" points="28.5222632 43.6742687 21.3684211 43.6742687 21.3684211 50.8097015 28.5222632 50.8097015"></polygon>
                <polygon id="Path" points="21.6553684 36.0623284 14.5 36.0623284 14.5 43.1992836 21.6553684 43.1992836"></polygon>
                <polygon id="Path" points="14.7854211 29.2115821 7.63157895 29.2115821 7.63157895 36.3470149 14.7854211 36.3470149"></polygon>
                <polygon id="Path" points="28.5222632 0.286208955 21.3684211 0.286208955 21.3684211 7.42164179 28.5222632 7.42164179"></polygon>
                <polygon id="Path" points="21.6553684 7.89814925 14.5 7.89814925 14.5 15.0351045 21.6553684 15.0351045"></polygon>
                <polygon id="Path" points="14.7854211 14.7488955 7.63157895 14.7488955 7.63157895 21.8843284 14.7854211 21.8843284"></polygon>
                <polygon id="Path" points="7.15536842 22.3608358 0 22.3608358 0 29.497791 7.15536842 29.497791"></polygon>
            </g>
        </g>
    </g>
</svg>