<?xml version="1.0" encoding="utf-8"?>
<!-- Generator: Adobe Illustrator 16.0.0, SVG Export Plug-In . SVG Version: 6.00 Build 0)  -->
<!DOCTYPE svg PUBLIC "-//W3C//DTD SVG 1.1//EN" "http://www.w3.org/Graphics/SVG/1.1/DTD/svg11.dtd">
<svg version="1.1" id="Layer_1" xmlns="http://www.w3.org/2000/svg" xmlns:xlink="http://www.w3.org/1999/xlink" x="0px" y="0px"
	 width="75.93px" height="75.93px" viewBox="0 0 75.93 75.93" enable-background="new 0 0 75.93 75.93" xml:space="preserve">
<path fill="#FFFFFF" d="M37.97,0C17,0,0,17,0,37.97c0,20.96,17,37.96,37.97,37.96c20.96,0,37.96-17,37.96-37.96
	C75.93,17,58.93,0,37.97,0 M30.6,51.29c-7.08,0-12.82-5.9-12.82-12.99s5.74-12.925,12.82-12.925c3.32,0,6.35,1.237,8.62,3.307
	c-2.68,2.54-2.59,2.669-3.65,3.729c-1.31-1.101-2.75-1.896-4.97-1.896c-4.21,0-7.49,3.417-7.49,7.627s3.28,7.909,7.49,7.909
	c4.15,0,5.84-1.821,6.93-4.821h-6.78v-5h12.16C43.76,42.23,41.18,51.29,30.6,51.29 M57.75,39.23h-4v5h-3v-5h-5v-3h5v-4h3v4h4V39.23z
	"/>
</svg>
