<?xml version="1.0" encoding="utf-8"?>
<!-- Generator: Adobe Illustrator 16.0.0, SVG Export Plug-In . SVG Version: 6.00 Build 0)  -->
<!DOCTYPE svg PUBLIC "-//W3C//DTD SVG 1.1//EN" "http://www.w3.org/Graphics/SVG/1.1/DTD/svg11.dtd">
<svg version="1.1" id="Layer_1" xmlns="http://www.w3.org/2000/svg" xmlns:xlink="http://www.w3.org/1999/xlink" x="0px" y="0px"
	 width="75.93px" height="75.93px" viewBox="0 0 75.93 75.93" enable-background="new 0 0 75.93 75.93" xml:space="preserve">
<path fill="#FFFFFF" d="M31.92,37.91c0-3.89,3.149-7.041,7.04-7.041c3.899,0,7.06,3.15,7.06,7.041c0,3.881-3.16,7.029-7.06,7.029
	C35.069,44.939,31.92,41.791,31.92,37.91"/>
<path fill="#FFFFFF" d="M52.439,28.72c0,0.635-0.515,1.149-1.149,1.149h-3.7c-0.635,0-1.15-0.515-1.15-1.149v-3.7
	c0-0.635,0.516-1.15,1.15-1.15h3.7c0.635,0,1.149,0.516,1.149,1.15V28.72z"/>
<path fill="#FFFFFF" d="M49.229,34.87h4.21v16.74c0,0.641-0.14,1.26-0.77,1.26h-27.5c-0.63,0-0.73-0.619-0.73-1.26V34.87h4.17
	c-0.6,0-0.8,2.24-0.8,3.261c0,6.129,5.01,11.02,11.15,11.02c6.16,0,11.16-4.836,11.16-10.965C50.12,37.166,49.97,34.87,49.229,34.87
	"/>
<path fill="#FFFFFF" d="M37.97,0C17,0,0,17,0,37.971C0,58.93,17,75.93,37.97,75.93c20.96,0,37.96-17,37.96-37.959
	C75.93,17,58.93,0,37.97,0 M57.439,51.85c0,2.4-2.14,4.02-4.54,4.02h-27.95c-2.409,0-4.51-1.619-4.51-4.02V23.88
	c0-2.4,2.101-4.011,4.51-4.011h27.95c2.4,0,4.54,1.61,4.54,4.011V51.85z"/>
</svg>
