<?xml version="1.0" encoding="utf-8"?>
<!-- Generator: Adobe Illustrator 16.0.0, SVG Export Plug-In . SVG Version: 6.00 Build 0)  -->
<!DOCTYPE svg PUBLIC "-//W3C//DTD SVG 1.1//EN" "http://www.w3.org/Graphics/SVG/1.1/DTD/svg11.dtd">
<svg version="1.1" id="Layer_1" xmlns="http://www.w3.org/2000/svg" xmlns:xlink="http://www.w3.org/1999/xlink" x="0px" y="0px"
	 width="84.048px" height="101.975px" viewBox="0 0 84.048 101.975" enable-background="new 0 0 84.048 101.975"
	 xml:space="preserve">
<g>
	<path fill="#72D0EB" d="M81.201,76.616c-2.529-9.407-5.753-18.603-9.78-27.555c-3.385,0.292-6.648,0.727-9.799,1.3
		c7.179,7.681,12.969,16.407,17.44,26.255h-3.036C71.504,66.971,65.662,58.46,58.432,51c-4.564,0.994-8.878,2.294-12.962,3.883
		c1.015,0.49,2.014,0.997,2.998,1.524c9.522,5.08,17.733,11.887,24.973,20.209h-3.691c-6.632-7.262-14.07-13.248-22.572-17.787
		c-1.675-0.893-3.394-1.732-5.151-2.511c-1.652,0.733-3.266,1.515-4.84,2.345c-8.637,4.559-16.174,10.602-22.887,17.953h-3.691
		c7.326-8.419,15.639-15.289,25.295-20.387c0.88-0.464,1.77-0.913,2.672-1.349c-4.084-1.586-8.393-2.886-12.958-3.88
		c-7.231,7.46-13.073,15.971-17.595,25.616H4.985c4.471-9.848,10.261-18.574,17.441-26.255c-3.15-0.573-6.415-1.005-9.803-1.297
		c-4.024,8.952-7.248,18.145-9.777,27.552H0C3.582,63.079,8.585,49.96,15.312,37.354c6.163-11.552,13.766-22.669,23.042-33.279
		C39.843,2.374,40.809,1.329,42.025,0c1.375,1.354,2.288,2.489,3.963,4.413c9.141,10.507,16.649,21.509,22.747,32.941
		c6.724,12.606,11.729,25.725,15.312,39.262H81.201z M70.201,46.409c-1.225-2.609-2.523-5.197-3.889-7.763
		c-1.998-3.74-4.149-7.437-6.46-11.086c-5.484,2.497-10.588,5.235-15.321,8.219c5.137,3.511,9.822,7.334,14.069,11.49
		c0.247,0.24,0.489,0.483,0.735,0.727C62.816,47.294,66.436,46.762,70.201,46.409 M58.342,25.224
		c-4.762-7.249-10.18-14.302-16.316-21.143c-6.14,6.841-11.558,13.894-16.321,21.143c5.857,2.686,11.292,5.647,16.321,8.891
		C47.048,30.871,52.486,27.91,58.342,25.224 M17.735,38.646c-1.366,2.566-2.663,5.154-3.889,7.763
		c3.763,0.356,7.383,0.888,10.865,1.59c0.289-0.292,0.581-0.579,0.876-0.865c4.21-4.104,8.852-7.887,13.932-11.358
		c-4.734-2.986-9.84-5.724-15.321-8.218C21.884,31.206,19.734,34.903,17.735,38.646 M42.028,37.403
		c-5.161,3.448-9.86,7.208-14.107,11.3c4.98,1.183,9.671,2.727,14.098,4.614c4.431-1.887,9.121-3.434,14.106-4.617
		C51.879,44.611,47.184,40.851,42.028,37.403"/>
	<path fill-rule="evenodd" clip-rule="evenodd" fill="#72D0EB" d="M42.025,15.977c2.821,0,5.108,2.288,5.108,5.109
		c0,2.821-2.287,5.109-5.108,5.109c-2.824,0-5.109-2.288-5.109-5.109C36.917,18.265,39.201,15.977,42.025,15.977"/>
	<path fill="#58595B" d="M3.959,93.477v8.265H2.48V81.225h5.292c2.408,0,4.222,0.527,5.445,1.581
		c1.223,1.053,1.834,2.556,1.834,4.508c0,0.9-0.166,1.726-0.5,2.48c-0.333,0.754-0.814,1.404-1.443,1.95
		c-0.628,0.547-1.392,0.972-2.291,1.276c-0.899,0.305-1.914,0.457-3.045,0.457H3.959z M3.959,92.288h3.813
		c0.909,0,1.721-0.125,2.437-0.377c0.715-0.251,1.321-0.6,1.819-1.044c0.498-0.444,0.88-0.969,1.146-1.573
		c0.265-0.605,0.398-1.264,0.398-1.98c0-1.575-0.485-2.788-1.457-3.639c-0.971-0.851-2.419-1.276-4.343-1.276H3.959V92.288z"/>
	<polygon fill="#58595B" points="33.727,81.225 33.727,82.457 22.925,82.457 22.925,90.75 31.915,90.75 31.915,91.955 
		22.925,91.955 22.925,100.51 33.727,100.51 33.727,101.743 21.431,101.743 21.431,81.225 	"/>
	<path fill="#58595B" d="M50.678,83.719c-0.087,0.164-0.213,0.246-0.377,0.246c-0.127,0-0.289-0.089-0.487-0.267
		c-0.199-0.179-0.469-0.377-0.808-0.595c-0.34-0.218-0.765-0.418-1.273-0.602c-0.509-0.183-1.137-0.275-1.883-0.275
		c-0.747,0-1.404,0.106-1.972,0.318c-0.567,0.213-1.043,0.503-1.426,0.87c-0.383,0.367-0.674,0.793-0.872,1.277
		c-0.199,0.483-0.299,0.991-0.299,1.522c0,0.695,0.147,1.272,0.443,1.726c0.295,0.454,0.685,0.841,1.169,1.16
		c0.483,0.318,1.033,0.587,1.647,0.805c0.615,0.216,1.246,0.432,1.896,0.644c0.648,0.213,1.279,0.447,1.895,0.703
		c0.614,0.257,1.164,0.578,1.647,0.965c0.484,0.387,0.874,0.862,1.17,1.428c0.295,0.565,0.442,1.269,0.442,2.11
		c0,0.861-0.147,1.67-0.442,2.429c-0.295,0.759-0.723,1.419-1.283,1.979c-0.561,0.561-1.247,1.003-2.059,1.327
		c-0.812,0.324-1.74,0.486-2.784,0.486c-1.354,0-2.519-0.239-3.494-0.718c-0.977-0.478-1.832-1.134-2.566-1.965l0.406-0.638
		c0.115-0.145,0.251-0.217,0.405-0.217c0.087,0,0.198,0.057,0.334,0.174c0.136,0.116,0.299,0.258,0.494,0.427
		c0.193,0.169,0.426,0.353,0.696,0.551c0.271,0.198,0.586,0.382,0.943,0.551c0.358,0.17,0.771,0.312,1.234,0.428
		c0.465,0.116,0.993,0.173,1.583,0.173c0.813,0,1.539-0.123,2.179-0.369c0.639-0.247,1.178-0.582,1.618-1.007
		c0.44-0.426,0.777-0.931,1.01-1.516c0.232-0.584,0.349-1.21,0.349-1.878c0-0.725-0.148-1.321-0.443-1.79
		c-0.296-0.469-0.686-0.86-1.169-1.175c-0.485-0.313-1.033-0.577-1.648-0.79c-0.614-0.213-1.246-0.421-1.895-0.624
		c-0.648-0.202-1.28-0.43-1.895-0.681c-0.615-0.252-1.164-0.573-1.648-0.964c-0.484-0.392-0.874-0.879-1.169-1.464
		s-0.442-1.318-0.442-2.198c0-0.686,0.13-1.348,0.392-1.986s0.644-1.201,1.147-1.689c0.503-0.489,1.125-0.88,1.865-1.175
		c0.741-0.294,1.585-0.442,2.534-0.442c1.063,0,2.021,0.169,2.867,0.507c0.848,0.339,1.619,0.856,2.315,1.552L50.678,83.719z"/>
	<path fill="#58595B" d="M72.979,98.291c0.096,0,0.179,0.034,0.246,0.102l0.58,0.624c-0.426,0.454-0.89,0.862-1.392,1.224
		c-0.503,0.363-1.052,0.672-1.646,0.929c-0.595,0.256-1.247,0.454-1.957,0.594c-0.711,0.14-1.491,0.211-2.342,0.211
		c-1.421,0-2.724-0.249-3.908-0.747c-1.184-0.499-2.199-1.204-3.045-2.118c-0.846-0.913-1.506-2.017-1.979-3.313
		c-0.474-1.295-0.71-2.735-0.71-4.32c0-1.557,0.244-2.978,0.732-4.264c0.487-1.285,1.174-2.39,2.059-3.313
		c0.885-0.923,1.943-1.638,3.176-2.146c1.232-0.508,2.593-0.761,4.082-0.761c0.744,0,1.426,0.056,2.044,0.166
		c0.618,0.111,1.196,0.272,1.732,0.479c0.537,0.208,1.042,0.466,1.517,0.776c0.473,0.31,0.937,0.667,1.391,1.072l-0.449,0.654
		c-0.077,0.115-0.198,0.173-0.362,0.173c-0.087,0-0.198-0.05-0.333-0.152c-0.136-0.101-0.308-0.227-0.516-0.377
		s-0.459-0.314-0.754-0.493s-0.645-0.343-1.051-0.493c-0.406-0.15-0.875-0.276-1.406-0.377c-0.532-0.102-1.137-0.152-1.812-0.152
		c-1.247,0-2.393,0.215-3.437,0.645s-1.943,1.044-2.697,1.842c-0.754,0.797-1.342,1.764-1.762,2.899
		c-0.421,1.136-0.631,2.409-0.631,3.822c0,1.449,0.208,2.745,0.623,3.885c0.416,1.141,0.991,2.105,1.726,2.893
		c0.734,0.788,1.603,1.391,2.604,1.812c1,0.421,2.085,0.631,3.255,0.631c0.734,0,1.39-0.048,1.965-0.145
		c0.575-0.096,1.104-0.241,1.588-0.435c0.483-0.193,0.933-0.43,1.349-0.711c0.415-0.28,0.826-0.608,1.232-0.985
		c0.048-0.039,0.094-0.07,0.138-0.095C72.869,98.304,72.92,98.291,72.979,98.291"/>
	<rect x="81.186" y="81.224" fill="#58595B" width="1.493" height="20.518"/>
</g>
</svg>
