<?xml version="1.0" encoding="utf-8"?>
<!-- Generator: Adobe Illustrator 16.0.0, SVG Export Plug-In . SVG Version: 6.00 Build 0)  -->
<!DOCTYPE svg PUBLIC "-//W3C//DTD SVG 1.1//EN" "http://www.w3.org/Graphics/SVG/1.1/DTD/svg11.dtd">
<svg version="1.1" id="Layer_2" xmlns="http://www.w3.org/2000/svg" xmlns:xlink="http://www.w3.org/1999/xlink" x="0px" y="0px"
	 width="38.667px" height="12px" viewBox="0 0 38.667 12" enable-background="new 0 0 38.667 12" xml:space="preserve">
<polygon fill="#83D3EE" points="5,4.75 5.916,2.917 6.833,4.75 8.583,4.917 7.416,6.333 7.666,8.167 6,7.333 4.333,8.25 
	4.416,6.417 3.166,5 "/>
<polygon fill="#83D3EE" points="11.833,4.833 12.75,2.999 13.666,4.833 15.416,4.999 14.25,6.416 14.5,8.25 12.833,7.416 
	11.166,8.333 11.25,6.5 10,5.083 "/>
<polygon fill="#83D3EE" points="18.499,4.75 19.417,2.916 20.333,4.75 22.083,4.916 20.917,6.333 21.167,8.167 19.499,7.333 
	17.832,8.25 17.916,6.417 16.666,5 "/>
<polygon fill="#83D3EE" points="25.167,4.75 26.083,2.916 27,4.75 28.75,4.916 27.583,6.333 27.833,8.167 26.167,7.333 24.5,8.25 
	24.583,6.417 23.333,5 "/>
<polygon fill="none" stroke="#A3A4A5" stroke-width="0.5" stroke-miterlimit="10" points="32,4.75 32.917,2.917 33.833,4.75 
	35.583,4.917 34.417,6.334 34.667,8.168 33,7.334 31.333,8.25 31.417,6.418 30.167,5 "/>
</svg>
