<?xml version="1.0" encoding="utf-8"?>
<!-- Generator: Adobe Illustrator 16.0.0, SVG Export Plug-In . SVG Version: 6.00 Build 0)  -->
<!DOCTYPE svg PUBLIC "-//W3C//DTD SVG 1.1//EN" "http://www.w3.org/Graphics/SVG/1.1/DTD/svg11.dtd">
<svg version="1.1" id="Layer_1" xmlns="http://www.w3.org/2000/svg" xmlns:xlink="http://www.w3.org/1999/xlink" x="0px" y="0px"
	 width="75.93px" height="75.93px" viewBox="0 0 75.93 75.93" enable-background="new 0 0 75.93 75.93" xml:space="preserve">
<path fill="#FFFFFF" d="M38.126,0c-20.97,0-37.97,17-37.97,37.97c0,20.96,17,37.96,37.97,37.96c20.96,0,37.96-17,37.96-37.96
	C76.086,17,59.086,0,38.126,0 M52.556,29.92c0.011,0.34,0.021,0.68,0.021,1.02c0,10.41-7.73,22.42-21.86,22.42
	c-4.34,0-8.38-1.31-11.78-3.54c0.601,0.07,1.211,0.11,1.83,0.11c3.601,0,6.92-1.26,9.551-3.37c-3.37-0.07-6.2-2.34-7.181-5.47
	c0.471,0.09,0.95,0.14,1.44,0.14c0.71,0,1.47-0.1,2.109-0.28c-3.52-0.72-6.09-3.909-6.09-7.729v-0.09c1,0.58,2.15,0.939,3.41,0.979
	c-2.07-1.41-3.46-3.83-3.46-6.56c0-1.44,0.36-2.8,1.021-3.96c3.79,4.77,9.439,7.899,15.83,8.229c-0.141-0.58-0.205-1.18-0.205-1.79
	c0-4.35,3.437-7.88,7.677-7.88c2.21,0,4.209,0.95,5.608,2.48c1.75-0.351,3.391-1,4.881-1.91c-0.57,1.84-1.791,3.39-3.382,4.36
	c1.561-0.19,3.04-0.61,4.41-1.24C55.366,27.42,54.056,28.81,52.556,29.92"/>
</svg>
